<mxfile host="app.diagrams.net" modified="2023-12-25T20:41:26.854Z" agent="Mozilla/5.0 (Windows NT 10.0; Win64; x64) AppleWebKit/537.36 (KHTML, like Gecko) Chrome/120.0.0.0 Safari/537.36" etag="cpiQxPMGL0-ifEJJ6gLD" version="22.1.11" type="device">
  <diagram name="Страница — 1" id="IwhqyOwVu1XeqPlYdqnL">
    <mxGraphModel dx="2001" dy="604" grid="1" gridSize="10" guides="1" tooltips="1" connect="1" arrows="1" fold="1" page="1" pageScale="1" pageWidth="827" pageHeight="1169" math="0" shadow="0">
      <root>
        <mxCell id="0" />
        <mxCell id="1" parent="0" />
        <mxCell id="WruwLa0rmUfx6qdQRTx5-2" value="&lt;font style=&quot;font-size: 40px;&quot;&gt;&amp;nbsp;Backend Server&lt;/font&gt;" style="rounded=0;whiteSpace=wrap;html=1;align=left;verticalAlign=top;fontSize=18;" vertex="1" parent="1">
          <mxGeometry x="501.63" y="310" width="310" height="70" as="geometry" />
        </mxCell>
        <mxCell id="WruwLa0rmUfx6qdQRTx5-1" value="Инструмент контейниризации" style="shape=image;verticalLabelPosition=bottom;labelBackgroundColor=default;verticalAlign=top;aspect=fixed;imageAspect=0;image=data:image/png,iVBORw0KGgoAAAANSUhEUgAABLEAAAE1CAYAAAAYpnI9AAAACXBIWXMAAAsSAAALEgHS3X78AAAgAElEQVR4nO3dT3LbRrv24TupzOXD+QfxXYGUFZhZgZUViK4Pc8srMLyCyHNWmVpBpBUEWkGkFbwk5wdlrsBngIZNSSTFP+h+uoHfVaVyEttAR2o0gRtPd//y/ft3AZCyvCokfbJux74Wk8Ev1m0AAAAAAMC3X60bAAAAAAAAALyGEAsAAAAAAADRI8QCAAAAAABA9AixAAAAAAAAED1CLAAAAAAAAESPEAsAAAAAAADRI8QCAAAAAABA9AixAAAAAAAAED1CLAAAAAAAAESPEAsAAAAAAADRI8QCAAAAAABA9AixAAAAAAAAED1CLAAAAAAAAESPEAsAAAAAAADRI8QCAAAAAABA9AixAAAAAAAAED1CLAAAAAAAAESPEAsAAAAAAADRI8QCAAAAAABA9AixAAAAAAAAED1CLAAAAAAAAESPEAsAAAAAAADRI8QCAAAAAABA9AixAAAAAAAAED1CLAAAAAAAAESPEAsAAAAAAADRI8QCAAAAAABA9AixAAAAAAAAED1CLAAAAAAAAESPEAsAAAAAAADRI8QCAAAAAABA9AixAAAAAAAAED1CLAAAAAAAAESPEAsAAAAAAADRI8QCAAAAAABA9AixAAAAAAAAED1CLAAAAAAAAESPEAsAAAAAAADRI8QCAAAAAABA9AixAAAAAAAAEL3frBsARGQm6d66EQAAAAAA4KVfvn//bt0GAAAAAAAAYCumEwIAAAAAACB6hFgAAAAAAACIHiEWAAAAAAAAokeIBQAAAAAAgOgRYgEAAAAAACB6hFgAAAAAAACIHiEWAAAAAAAAovebdQO6LsurQtIn63bsazEZ/LLt97O8+h6qLS36vJgMik2/2dWfFQAAAAAAXUAlFgAAAAAAAKJHiAUAAAAAAIDoEWIBAAAAAAAgeoRYAAAAAAAAiB4hFgAAAAAAAKJHiAUAAAAAAIDoEWIBAAAAAAAgeoRYAAAAAAAAiB4hFgAAAAAAAKJHiAUALcvy6k2WV2+s2wEAAAAAXUKIBQDtm0p6yPJqZNwOAAAAAOgMQiwAaFGWVxeS3kk6lfRPllfXVGUBAAAAwPEIsQCgJS6smj77zx8klVlenYdvEQAAAAB0ByEWALRnKulkzX8/k/RvlldF0NYAAAAAQIcQYgFAC1amEW7zKcurB6qyAAAAAGB/hFgAcKQN0wg3oSoLAAAAAA5AiAUAx5tq/TTCbZqqrGH7zQEAAACA7iHEAoAj7DiNcJMzSUwvBAAAAIAdEGIBwIH2nEa4yYnq6YXjoxsEAAAAAB1GiAUAh5tq/2mEm3zN8uq6pWMBAAAAQOcQYgHAAbK8GunwaYSbfMjyatryMQEAAACgEwixAOAwU0/HvczyqnRTFQEAAAAADiEWAOwpy6tC0qnHU7yVRJAFAAAAACsIsQBgDy5YugpwqjMRZAEAAADAD4RYALCfQu0t5v4agiwAAAAAcAixAGBHWV4NJX0IfFqCLAAAAAAQIRYA7KMwOi9BFgAAAIDeI8QCgB24AOnCsAln8rcjIgAAAABEjxALAHZzpXBrYW3yLsurqXEbAAAAAMAEIRYA7GZs3QDnMsurELsjAgAAAEBUCLEA4BVZXl1IOrVux4q/XJsAAAAAoDcIsQDgdWPrBqwxzfLq3LoRAAAAABAKIRYAbJHl1VDSO+t2rHGiOshix0IAAAAAvUCIBQDbxTxt70xSYd0IAAAAAAiBEAsAthtbN+AVH1gfCwAAAEAfEGIBwAZuKuGZdTt2wLRCAAAAAJ1HiAUAm6VS4XQiaWrdCAAAAADwiRALADYbWTdgD++YVggAAACgywixAGCzGHcl3OaaaYUAAAAAuuo36wYAQIyyvBpZt+EAp5KuxI6F6Dm3nt3w2X+eLSaDWfDGAOi9dWPSYjIoLdoCAKkjxAKA9UbWDTjQVZZXUx7W0TfuIfFK9Vp2pxv+zFzSraRrrhEAPrkxqVA9Jp2s+X1JulM9HpUBmwYASfvl+/fv1m0AgOhkeVVKemvdjgPdLCaDsXUjgFCyvLqW9GGPv7KUVCwmg2tPTQLQU25af6H9xqR7SWPCdQB4HSEWAKyR5VXqg+N/uBlG17mHxVLS2YGHIPAF0Jojx6SlpNFiMnhotVEA0DEs7A4Az2R5dW7dhhYU1g0AfGohwJKkyyyvpq00CECvtTAmnUgqO3IPAgDeEGIBwEtduIG8dOtxAF1V6LgAq3GZ5VXRwnEA9Nutjh+TmiBreHxzAKCbCLEA4KUuhFiSNLZuAOCD2z10n/VmXvOJh0YAh8ry6krtraN5Imna0rEAoHMIsQDgpa6EWFfWDQA88dG3Cw/HBNBxKwu5t+mtC+sBAM8QYgHAS10JsU6yvBpbNwJok3tgfOfh0Jfu2ACwjwvV1VNt40UUAKxBiAUAL/m4GbVyYd0AoGWjRI8NoJt8fc6OPB0XAJL2m3UDViW6pf3nxWRQbPpNt1jsp2CtacliMvhl2+/zs4rHDj+rUu2t0xDK/WIyGFmcuIPl+++yvHqzmAy+WTcEaInPSslz1YszA8CufI1JJ1lenS8mgwdPxweAJFGJBQDdRzUWAAB+nHo8NlOcAeAZQiwAeGpk3QAPCLEAAAAAJI8QCwC67x0LVgMAAABIHSEWADzV1bBnZN0AAAAAADgGIRYAPOVz0WhLI+sGAAAAAMAxCLEAoB9G1g0AAAAAgGMQYgFAP5xZNwAAAAAAjkGIBQA9keXVyLoNAAAAAHAoQiwA6I+urvcFAAAAoAd+s24AACCYJzsvZnn1RnWw1fwqSUP3tfp3tk1FfJT0beXfv0l6cP88a74Wk8HsoBYDAAAAgEOIBQD9Mc7yaqg6pHrb0jHXBVzvnv+HLK+kOvCaqQ65HiQ9EG4BAAAA2BUhFgD0x6mkS8Pzn7mvHyFXlldLSWXztZgMHtb+TQAAAAC9R4gFALB0ojrUeidJWV7NVQdat4vJ4NawXQAAAAAiQ4gFAIhJUy126aq0ppKumXYIAAAAgN0JAQCxOpH0QdJ/s7wqs7waGbcHAAAAgCFCLABACt5K+seFWeev/mkAAAAAnUOIBQBPsbB43N5K+jfLq8K6IQAAAADCIsQCgKe+WTcAO/mU5dUDVVkAAABAfxBiAcBTM+sGYGdnqquyrqwbAgAAAMA/QiwAeGpm3QDs7S+3VtbQuiEAAAAA/CHEAoAVi8mgtG4DDvJW0gNVWQAAAEB3EWIBwEtz6wbgICeiKgsAAADoLEIsAHiJHQrT1lRlDa0bAgAAAKA9hFgA8BIhVvoeFpPBzLoRAAAAANpDiAUAL5XWDcDRCusGAAAAAGgXIRYAPMPi7sm752cIAAAAdA8hFgCs92jdAByssG4AAAAAgPYRYgHAerfWDcBBqMICAAAAOooQCwDWI8RK07V1AwAAAAD4QYgFAGssJoMHSXPrdmAv88VkQPgIAAAAdBQhFgBsVlo3AHsprBsAAAAAwB9CLADYjKlp6ZgvJoOpdSMAAAAA+EOIBQAbMKUwKYV1AwAAAAD4RYgFANtNrRuAV1GFBQAAAPQAIRYAbDe1bgBeVVg3AAAAAIB/hFgAsMViMphJurFuBzZ6pAoLAAAA6AdCLAB4XWHdAGx0Zd0AAAAAAGEQYgHAK1w11r11O/DC3WIyKK0bAQAAACAMQiwA2A0VP3FZip8JAAAA0CuEWACwg8Vk8CDWxorJtauQAwAAANAThFgAsLsr1RVAsPW4mAwK60YAAAAACOuX79+/W7cBAJKR5dW1pA/W7eixpaSRq4xDD2V5VUj65OnwnwlIAewjyyufD1N/sPYjADz1m3UDACAFWV6NVO9S+Na2Jb1XEGABAAAA/USIBQBbZHk1ljQW4VUM7haTwbV1IwAAAADYIMQCgGeyvBqqXv/qQtKpbWvgPKoOE3Eg16+Hks4lvZE0WvntXULaR0nf3D+XK79+ozquG7K8eqO6fwyffcn995NXDjGXNHP//KC6vzxImtFHuoFxBJZcVfyF6v7XjElLuXFG0u1iMri1al/M1ozvzTUsMb574cbLC9Xj5FDSmfutR9Xfy1LSdDEZfHvxl424a6zpK9LTMX6o9c9Fq+O69LN/NH2k9fGdNbEAQE8+aMb6+SGDOLAO1p7czepI9U1I8+trN6jHuld9s/IgqfS1eyRrYrUny6umf4xU9xHfoX2QPoJ2GI8jpaSHFPoIa2L55x6sp9ptjJqrDgYKj02KnvuejfQz8GN8D8SNndeSLnf440v3Z69Dh1kG9wBNEFrq5xh/0P8zIRaAXlq5OR+JiqvY/U6A9bqVIPZCcUx/fdTPt4yt/fwIsQ7nxr2mj4zkP5B4zVzSrerqidK4LVB/xpE2EWL548asQodtqPOo+gVYNFUuPjG+x8EFQ6X2//4/Shr7HOci7CNSHX42/WS2618ixALQC+6N1FA/3yhTbZWG94vJYGrdiFglVEG4VP0W/egHUUKs/Ty7aX1n3JxtWusj2E9C40jzUBxVHyHE8mPP6qtNOh1kMb7HxfXZWx0eDrU+8yChPiJJd6r7yKtTggmxACTPvfVo5vUP3dfq3H+qrNJEgLVBllfNA2fsNyTrPKounb895MGCEGs3LpgoVN+4xvC2dR9H9RHspgvjSAyfEYRY7Tqy+mqdx8VkcP76H0uHu+9t1m5lfI/AERVYzy0lnR87HTPxe4C5pKttYdaPEMvzTSEAAPsgwFrD7ZZZqBvB7EHrQBBibefeBBeKYyrYsczWCukyxpF2EWK1p6Xqq3WSH9slxvdYueD1Qe3124OD1471kXvVUyxnz3/j15V/7lRCDQBIFgHWM1lejbO8mkn6qm48eEr1m8FPkmZZXhXuJhAHyvJqlOVVKekfdePmVaKPtIpxBLHK8upNllfXqscvH33zylWmJInxPXpXarffnrmXDTvraB95K+nBVQ0/QYgFAIjFUvVb56l1Q2Lhbkpm6tZD53NPbmSN25KcLK+GHbxxfY4+coQejiNj47ZgD+4B9UHtTR9c50T11NmkML4n48rDMYtd/lBHw6tVJ5L+ft43VqcTsjgWAMDKXNJFlxf83Id7Y3ytNNeqOdZcdfl4ue43mU5Yc2+tr9TPpSC29hHUej6OeN/pq8F0wsO4MWyqcP1zvpgMhoHOdRQP64KlJKnx3U3f+8fT4Tfuzu36yLWkS0/njtGXxWRwJblKLPfNBwDAwp3qRSwJsCRleXWl+q10Hx88pbpS5J8sr6aJTy/wxt23PaifAZb0s4/c0kfWYxzRmaR/s7y6po/Ex1VfzRS2f56mMKVwZXzvY4AlpTe+j0If243vM/UrwJKkD83UwmY6YQodBADQPR8Xk8FF6ot6tmFl2sBfSm8nGR8uVU8vGFk3JBYB1o1JzTvVfeTFehl9xTjywgdJpds5DMbcGHYr6W/Z9M+hwTl3wvj+Qirju8+x5UlGw/guqa4++xFiMbADAEJ6VF0mfW3dkBisrAnSxfUMjnGi+o1s7/vJyvbdfX07v0mzXgZ9hHFkk6Yqy8e6NdiRUfVVEtz43ufqq01SGN+DFAMxvv9wmuXV+DfrVgAAemWpejvlwrohsXA3Z9y4bvfBVWTF/kbWC7dQ9bX6++Z1Fz/6yLrtuLuOcWQnf7k+Mqb6NxyDta+S4sb3r9btiFzfx/ep+jd1cJuLphJrZNkKAEAvNGtfFdYNiYGbOlCKB89dnal+C9mr6nF38/pVBFi7OFO9HffIuiGhMI7s7Z3q6YVD64b0AdVX262M73hd78Z3ScMsrx5EgPXc6NfX/wwAAEe5V73DUi/foK2zMjWs72Xh+zpRTx6GVsIJbl7300xBHVs3xDfGkYM1D8O9CsRDimDtq01m1g2QGN+P0Jvx3blUPV7hqRNCLACAL014NUplq+QQVh48uTHBWm76TSnCiWN8zfKqsG6EL4wjRztRXZHVyynKPkVcfbWM4UUa43srOj2+43Us7A4AaNNS0o2k/xBevbTy4BnTm2lEZGWBX8KJ431y03U6hXGkNc2i0SPrhnRBxNVXjVvrBjC+t6qT4zt204RYMQ40AIB0PEp6L2m4mAzGMbztjI0rfy/FZy42WAkn2F69PZddetBhHPHi1lXH4EARV1+tmlqenPHdi06N79gduxMCAA51r/rN5i2h1XbuTT+Lt2Ijqmu8uszySovJYGzdkGMwjnhzonr3z7FxO5KT0M6D95aV4YzvXnVifMdelqyJBQDY1aOkL5L+lPQ/brrgNQHWdu7m1XwaA+LldkorxQOOT0m/sWcc8e6SHQv3k0j1lVQvc2C29hnjexBJj+/YW0klFgBgnXvVN6czSSVrWx2Gt694jatkuBV9JITLLK++LSaDK+uG7INxJJgr94UtEqq+kuoAa7SYDL5ZnJzxPSgqsvrjlhALAPpjqXpB0ca3lX9/aP7d6mava3j7ites7FLFIr/hfMjy6mExGUytG7ILxpGgRtYNiJ2rvpoqjf54J2lsHGCVYnwP6TLLqzKV8R0HWUq6/Y3SWQDohPd8aMeDt6/Y0bV4wLHwNcurWewVpowjwXEtbpBg9dV4MRlYT79lfLfx1VXcWv/84UexmAy+/SppaN0SAMBRlmKtlNhMlebN61L1VNLm69G2Od2V5VUh6dK6HQfqQh+5TeBF7lRpjiPokITWvpLq6quhdYCR+PjeBVM3DRvdcr+YDK4ldicEgC6YMgUwHu7mNeab/WZaael+/bZLRYp74B9KOl/54gH7AO6h8JN1O15xr/37yBv97BtD1dOzYu0jJ6qDLLP1crZJYByR6j7yoDrgaPrJw6Y/vNI/ml9H7tdoKs2yvHoTY3+wQPXVYRIZ3+eqr9nm+p1J0rpx3oVBb/Tzum2+ToO09DDN+H7O9XywR/3sH6X7b7N1mzm5nXOlp31kqHY//x+1skEDIRYApO/augGouQ/yGG9e56qr9abbHjK3cTcuM/28mWmCrZHqG4sUHnTMue/Z1LgZ6zR95PbQaXbuYaHU0z7yRnX/iLGPnEkqFNli3gmMI+UhYcFK/5BWqofdQ3LTR0xDTx54a6x9dZiIx3ep/j411+9s17/07J5h9bptxvaR+zW2vnKq+mdhtjNlYg6+B3j255/3kZF+9pFDg897SRer1/gv/+///+9I0j8HHhAAYOtuMRnwAR0B92E9Uzw3cs000+tDg6t9uP//K0ljxf2GdpvPi8mg8HmCLK8eFFd10o3qcLP0fSLXR8aq+0lMfeTPGCo4pCjHESlsHzlX3T9MpmItJoNf9v07WV5999EW54+Qa7dRfXWcCMf3R9UvOm99h3wu+LxQfNMoPzZT0HzI8qqU9NbX8T0LfZ84VH0PMNZu9wBL1Wtgvfj5/fL9+3ffgy8AwJ+gN7jYLMurW8Vx479UfdN6bbgr01h1hUtMQcUuvIZYbopYLBU2N6pvDmcWJ3cPPFeK4+Z/qXodnRgqOWIbR6YWfWQlFL9SuEDvcTEZ7L2OTldCLKqvjhPh+B4kmHhuJagIee1us5R07mscSzTEiuE+sQk911Xx3evn7IG17SPEAoB0zReTwdC6EfjxYfy3dTskfZHbucW6IVKSYZa3EMtVmPzr49h7Mg2vnnPXzrXs+4h5VSvjyEsuzCokfQhwui+LyWDvqaWph1hUXx2P8f0loyB6k4MC6l0kFmKZh1dt+dW6AQCAgxXWDcCTBwBL95L+s5gMrmK6MVlMBlPVC3x+Nm5KDKbG539U/UA8juEBp7GYDG5dGP9Z9Q22lXcuRDLBOLLeYjL45oKl/6hun0+9W1+SnQdbMzU+f3PtRjO+u2u3UH0PcGfcnLMsr6Ja+9DAF9XXTxQvKI5FiAUAaVq6gAD2rmX3lnGper2HUSw3rs+t3Mj+rjpI6R1382y5TsrnxWRwHvPU45WHHd9BxTbXLkwyObdsx5E/Ix9HZovJYCTpo/yEnXex/r/7kOXVGzd19W/ZV8m8pumfFzE+fBuP76lcuxeS/lC9eLiVwk117Ju56hdY0bycaAMhFgCkqXdvjGPkdhGzWsT0UfU6D0n0hcVk8ODK+b9YtyWklelQFuaSfve9WH1bVoIKq8q9UxnsVGg8jtyrHkdirG55wY1352o3EF8qsh0qfaL6qj3G4/u9Iv7ePOdeolhWZZ2ofzMYblSP76V1Q9pGiAUA6WnmtMNeYXTeG0nRvnndxk0Nem/djoAK2VQ63Km+eQ2+sO+xXOj2p2ymF34yeFtfBD5f40vMFRybuLDzXPU42IZopmD5lFj11VwRV1+tKGTzvfzsrt2YvzcvuMrsC9UVlRYu3UuDPnjvppcm1Ud21YRYlmsQAAD2s3G3DoTj3mZbLOb5MfUbEzcV9nd1/P7DhSEhFqR+7iaBh7+tXHXBSDZ9pAh1IsNx5P0hi5jHZDEZjHV8IP4+lUqWYyRWffVFCVQHGo3vS9V9tgh83la5iso/1PHx3chSdQX21LohPjUhVnJv6QCgx6jCioPFz+F9KtMHX+MqhEbqdpBVGJzzvXu4T57rI0OFX0vtMmA1VujruXkIngY+rxcrgfi+a+0068RM225TTLK8GiZWfZXS2j1F4PMtVVdgTwOf1ws3xW2k8PcAbztcjdX0kc5nO0wnBIC03PRh2kPssrwaq14/J6TOPHg2uhxkuRAk9DpHXewj31T3kdBBVuH7BEbjyEUH+8iD2+HyvV7vJ3PVU5k6uU7MKrfg+IPSqr4qrRuyC4PxvZPhhOE9QBH4fCF0so9sQogFAGkprBsASeEXAe5cONHocJBVBD7flw73kSbICtlHQlRjWYwjZeBzBrOYDKZuraz/UT1V6aPqTQI+un//z2IyGC4mg+tEKn0O4qqvSkl/ieorX4qA5+p0OGF0D9C1aqxO95F1fnO/PshmPj4AYHdUYUXA3fiE3E67s+FEYzEZPLjv67/WbWmD27Eq5Fv6m9TXN3rNYjL45vpIqXAP5lfyFDQZjCMfuz6ONFwYUrqvXnHVV4XiD6+kuvqqSCy8shjfx10PJ4zuAcbqzhjRqwBL+lmJldTgAQA9VVg3AJLCVk/cdz2caLgbsK7sWhjyZ/YY+HxmXB8ZBzzl2D2w+hDyZ3bTlbX0sB7VV0GFvHY/xr7AfVsM7gFCrn3o0/u+BVgS0wkBIBVUYUXA3fCEWl9kKeki0Lmi4CpFbqzb0YJxoPMsVa9xlOKD4EHcA93nQKc7kYdrMPA40puQs69W1r5KYVZNUmtfbTAOdJ67voXP7h7gS8BTjgOey4ebvlTYPteEWKVlIwAAryqsGwBJYUOlXoUTK64UfhHv1rit7EMt1j3uY7jttpe/D3Q6HwFQqHFkqbqP9HEc6Tyqr8ILOL7PlX7AchBXfR7qHmAc6Dw+9PoFBZVYABA/qrDiEeqG4Uvib6oP5h5wxtbtOEKogOKuL9NMNhgrzELAZx6mnIQaR4o+TjPpA6qvzIQa3/sePo8DnefUBZMp6nUfaUIsPuAAIF6FdQMgZXl1rnBvYIsA54mWe/AOOaWgTSFuiJfq8RtYSXLBfqipNq39TAOOI499m4rUB1RfmQsxvt91JPA7mLsHCDVtPMUQ60vfX1D8Kv146wkAiA9VWPEIdaOT3G5NnhQKu+X20dwb3RAPlteMCz+mFc4DnGrc4rFCjSO9Djm7iOorW4HG996/oGgEHN9TC7GW6vmLTunpdMIQnQQAsJ/CugH4IcSNzn1fF+l8zgV5qd3Mh+gjc3dzj9o4wDnanFIYoo/cdCk86Duqr6IR4trlBcVT4wDnOMnyahTgPG3p4rW1t9UQa2bVCADAWl+4mYmDe4A9C3CqIsA5kuECvZReso0CnKMIcI5kuLAmxCLvo2MPwDiCA4xF9VUsRp6Pv1S4KdJJCDi+p1KNNedFZ201xOr1vEoAiAzlwnEZBTjHfYdv/o9RWDdgF4HWOuIGdr0iwDnaeMgZtXCM1zAFvVsuRfWVuUDj+3VXv39HChHsjQKcow2FdQNisRpicdEAQDy4mYnLKMA5pgHOkRwX2qSwNtYowDl4S7+GC399V+yNIjnGa4oA5wAaXa++aowCnGMa4BzJcbvw+h7fz7K8euP5HMda8hLrp9UQq7RqBADgibl4WI3NuefjU2GzXQrXg+8+shQPOdsUno9/4qoxjuG7j9xRhYVAOl999QzXrq0Q9wC+f8bHSuE+KBgqsQAgPuxOFxH3ds73Oja3no+fuql1A3Yw8nz8W8aFrUJcQwc/5AQaR6aejw9I/am+WjXyfPyp5+OnbhrgHKMA5zjG1LoBMfkRYi0mA9bEAgB7j1TkRCfE2znesG3h3lA/WrfjFb7XSyHo3MIFfDeeT3PMWOC9Us9NuwF86Vv11Sqf4zvX7itcf7vzfJqR5+Mf45FKvad+e/bvjwqzawoAYL0r6wbgBd8Pn9yc7Gaqeov56ATYnpuHnN3cql4I25eYQyz6B3z6op5WiQcY3x8CnKMLZp6PP/R8/GNMrRsQm+ch1kyEWABg5a5n5fmpGHo+fun5+F1xq0hDLBFQxKL0fPxjfs7DthqxAX0EviwlTfsYYDm+x/e3kv7xfA68znc19TEY35/59dm/M6UQAGwsRRVWrAgoIuCq1XzvUHQo37salZ6P3wnuIfve4ylOjtjByvc4Uno+PvrrRFKZ5dXQuiFGYt+1Di2JtCJuTrX+S89DrNKiEQAAXfMhFa2hz4NTfbeX0roBG4w8H7/0fPwuKT0f/9AwathmI5557HGVDMI4kXR7RIibspF1AxBMjP27tG5AjKjEAgB7c7Gwd8x8lpjHvlh5bPp4n7Ik4N6L7z5y6EOOz3Gkj9cFwjsTlcPothAb+eyL8X2NJyGWe4sTa6k+AHRVH3f6SUKAt87cnOwn1u+XzxvfWP+fY+X7+7X3z5pxBB3yNsurqXUjAosx2EB/ML6v8bwSS+IbBQAh3bHrWNR837zOPB+/UyKeenni8dilx2N3TqRVa77HEe7dEdJllleFdSMC8ubyOuIAABqMSURBVDm+Iy4j6waswfi+BiEWANhhMXfwmQu0z+fi7kOPxz7UzLoB6J1PWV6NrRsBdB0zNdZbF2KVoRsBAD3FYu7g5mR/PgOKvQXYsav0fHzsZ2jdgOf4HIGRr1ledXqqXY93ZEQcorrficmLECviUn0A6JLHxWRQWDcCr/K9lg0hVvqG1g3ACzPrBjwT445XQBvKjgdZQ+sGAHhpXSWWxG5JAODb2LoB2InXm/PFZMB0QqB9M+sGPONzHGFDJlg6kXQbYPMCIIS31g3AbjaFWGXIRgBAz3whvAAAtGBm3QD03qnqiiyCLABBEGIBQFhzSYV1IwAAAFpyJunauhFAx8ysGxArQiwACGvMTiMAAKBjLrO8mlo3AuiQmXUDYrU2xHIPWKyLBQDt+sLmGQCAFg2tG4CoLCV9dL9auMzyamx0buBY7AaYiE2VWJJ0G6wVANB9TCNMk9e1yzq+qxNgJbbryuc4curx2EjLnaThYjK4ljQybMfXLK8uDM8PHIqZEonYFmKVoRoBAD3ANMI0+f6ZsRBu+mbWDcALsV1XjP3waSnpz8VkcNHcZ7jNY94btmnakZc0M+sGIKjSugHYzcYQy015sSpFBYAu+cw0QmwQ28N2CqLaAnsxGcw8n2Lk+fhd1KvrKsuroXUbYOZedfXVixk0i8lgKulz8BbVTlTvWDg0On8rAozviAsz0RKxrRJLIo0EgGM9LiaDwroRiFYX3lQHE2AL9xgrZnoVyLTkzOOxS4/HPtTQugEIbinp42IyGG2r8nb3HzfBWvXUiaTbAOM20IYbQst0vBZikUYCwOGWksbWjcBRvK6JJR4+9+U79Dv05+2zcp2gcw+RVn74HkfoI/1yL+ncrX31qsVkMJbdgtVnSv95kplJ3bcU69YmhRALAPwp3LoUSFSAdcx4+NxPrN8vn9d5rP/PsfL9/dp7TAgwjgw9Hx9xWK2+mu35dy9kt/P82yyvpkbnbgP3cd03pgorLVtDLPehy1aTALC/u13fkiJ6c4/H9jntqYtircTy6STS6qJYjTwf/9A+4nMcIejsvr2qr55zz3Qj2VUVXWZ5VRidG9jm/bo15RC31yqxJKqxAGBfczGNsEtmPg+e5dXI5/E7ZuTz4EdUzJRttmONkefjd8nI8/EP7SOzNhvxTFSbHaBVx1RfPRFBkPUpy6ux0bmPUVo3AF7MJf3hNkBAYgixAKB94wDTRxCO7+qcC8/H7wRXjXTq8RTHVJ7P2mrEBiPPx+8Et4C01+rGI6aIex1HsrxiHOmmcZtV3a7/WvaVr1lepVY5OLNuAFo1V71r5zk7h6frt9f+wGIymGV59SimPADALj7zodg5M8/HH3k+flf4fvCaGf3dXRBQ7Mb39+mYNYVmbTVig5F48dxFrb8QW0wGZZZX7yV9bfvYOyqzvBoltGbozPPxl4pzKntXPKi+jr5JKhPqd9ji1RDLmUr6y2M7AKAL7t121ugW3zc8Z1leDVlU9FVjz8efHfoX3UNhi0154STLqwvW7XhVzEFniIrOK8/nQEcsJoOpq4j6YHD6E0m3WV6dp1C1HmJ8l3SRwvcCiMUu0wmlOsQCAGw2F9USnRSoso6Hzy3cVELfFeHlkX/f985fjC9buKmE7zyf5uAgKsA4csr6etjHYjK4knRjdPpT1RVZb4zOvy/GdyAiO4VYLhm+89wWAEgZb9G6jRtYW+MA5zi2UsZ7pU1CD3wWQlxD5ZF/3/c4MvZ8fHTMYjIYy3+/3ORMUiq7OPse33mRBexh10osiXn2ALDJe+bYd17p+finie7aFIrvG/zHFkLoso2GbHEiQoptCt8naKGa6ti//5pLgk4cYCS7IOsyy6up0bn3UXo+/pmrOAawg51DLLf9pNWWrAAQqxu25+2FMsA5xgHOkRwX7p14Pk0ZyTFew9v6Ndw0Op87V0rtPOSXLRzjNfQR7MUF+Beye867TOAlThngHEWAcwCdsE8llkQ1FgCsenSl+Oi+MsA53rKmzVpFgHOUxx7ALcw/P7ol21Gxt14R4Bxt3AOXLRzjNVdUY2FfbvwayS7I+prlVbTT6gON75dUYwG72TfESmXeMgD4tlR9w4cecG+qQ0y3KAKcIxkusPFdYSO1Fy6EeNlXBDhHMlzw+zbAqcpjDxBoHDkR1Vg4gFsWwbLvNDsmxorxHYjEXiGWG9ys5kwDQCyWkkYs5N470wDneBvz2+iQXDVJiJdndy1ey2VLx9nmNMsrQoqfpgHOsWxxd8FpS8fZ5hMVHTiEWx7hvdHpT1TvWDg0Ov9rygDnoBoL2MG+lVgS1VgAcMVC7r0Uakr9NdOBJNVvpH2vhSW1+HNdTAa3CjMdp6CPSFleFQpTqdfmtR9sHAl0HnSMC7JujE5/Iuk2xvEt4Pg+DXAOIGl7h1gs8A6g5z6zkHs/uTUxQlQjn6rnUwrclJIPgU7XdqgQIqQ4Uc8fdFy1QqiKtDaDzpnCjCPvqOrEodx6n1ZB1pniXYc5RLuoyAZecUgllsTbHQD9dLOYDArrRsDUNNB5PvR1kXf3Bn4a6HRtTiVsTFs+3iZ9DymmClOpN3cVGG2atny8jeeJsaIFybiS3TIyb7O8mhqde5tpqPNw7QKbHRpiTdtsBAAk4J6dCKGwn399vYm9Vv0mPoTW36q7tZN872LVmPZx/RQ3jTDEYu6Sn8qLqYdjrnOieCtaEDkX8I9kF2Rdums9GgHHd65dYIuDQixXCm1VYgoAoT1K6nPFAxx3Ux/q8+9UPXtp5HYjvAx0uqXHqcGhKtZ796Djqs8+BTxl6z/LwOPI29iCAKTD9dWx7JaS+eQ+F2ISanx/m+UVs5+ANQ6txJJ6vl4HgN5gJ0I8Nw14rnd9uYl162B9DXhKn9/XqcI99J1FOu2mda6PTAOe8s69uPVh6um468QYBCARbiObkWETvrprPxZThRvfP3DtAi8dHGK5D/X79poCANEhwMILbjpByM+/zt/EugeUMvBpvYVYbsyY+jr+GtFNu2mbm1pbKsw6WA2ffaRU2HHkOrIgAAlxQdZ7wyaUsfRfg/H9a8/XPwRe+O3Iv19I+qeFdgBAbJoA68G6IYhSobCff1+zvFIXd8ZcCbBChhM3AcLpa4XbYVGqq21mHe0jFgHWvQuafCoUbhw5UR0EdPZzza0Pd6G6auhc9ZTsxqOkB0m3Hhbq74XFZNCs0/iXwelPJN1meXUeyYvF0OP7tMvXrvTjXqC5flfN9PPanYVtFWJ1zHRCi7dIABDKuMs3CziO0eff165VZBkFWFKAJRGM1g/tYh9pAqxQi/03Ct8nMBhHmiArioqWtmR59cZNqf2v6oDlnZ4GWFLdfy4l/Z3l1YzKlsMsJoNr2a2LfKq6/5pveGIwvnfy2pXqtTCzvJpJ+lf1eodvn31dqr6u/5vlVS83M8FLR4VYTtHCMQAgJu95U4sdFAbn/Jrl1ZXBeVtnGGDdBHybWwQ6z6qvXVkjy/WRmcIHWCGqsBpFoPM0mofhToQ47v9jpv02hDhVHWZNfbSp69xOzXdGpz9TuIXVX1MEPt+JpH+78qLChc+l6rUwn4fOm1xKeujK9wCHOzrEohoLQMe87+J0HLTP8PPvr9QfvtwN6L8KH2AtJQULAV1Y9jnU+VZcZnl1G0PFwqFcOFEqfB+RAj6cGo0jJ6pDnKQDcTeO/K3D+8hl6mOpobHqKZoWovi5GY7vyb/MWnmJ9faAv36iDlYdYz9tVGJJVGMB6AYCLOzL6kbyMsurhxTL6t1uiyF3IVx1bbCeyrVstqd/p0Snn7hF6o8JJ45xF7AKq2E1jvyVYti5Mn2wjXHksi87wLbJjaMjSXOjJlxGEmJYje9JXrvSkxcUx1bYsuB9j7USYrkPe6uyUgBoAwEW9ubWTftidPoz1WX1SdzEZXl1nuXVg8IuhrtqvpgMitAndQ97ViHFmeogK4m39lleDd30kk9GTQhaqdcwHkfeqR5HRkbn38tKBcc+0wdf8yGV//+YuLHtQjYhjhRBiGE8vid17Uo/XmK1+YJimmKQh+O1VYkl2V3AAHAsAiwco5DdTXwzLaiMtSrLVU0UqqcPhl7baNXY6sRufLFaeuFE9Vv7qKuyXB950GHTS9pybbj7VSG7ceRU0j9u0eRoHwg9jyOFh2N2ngtgLYOkqfW4Zjy+N9fudeTXrq+XWCeKZ400BNRaiGW0Cw8AHIsAC0dxb2LHxs14q3rnniKmG1k33eNBdpU1jRuDKWLPjWUXUkh1H/k3tqAiy6sLtzPVJ9lMH2w8WlTqNSIZRy4lzSIcR1b7iC9vY30REDs3tr43On2zUcHQ6PyNsWzH9w9y165hG15Ymfrr8yVWEtXoaFeblVhSXY1leQEDwD4IsNAKt5tlDNPqPymCh9CVLbP32XXIl7kiqBZ3L/sK42ZIT4OKoVUjXDBRqp5aYt1HJPsAKZZx5ETxjCOjwH2Eh+EDuXspi0XOpbrPmq4PFcn4fiLpU5ZXM/cZbHntNhXYM7U79XedE+tppQiv1RDLvUWipA9ACgiw0Lax7Ba5XbX6EBpsqoVbz6iIKLxqjA0Wc19rMRlcK44dnZs+8l/XR0YhTuoebK5cH/lbtlMHV31006JiMFZ848h1qMDT9ZGxm3r0j8L2kVHAc3WOq2S0mpVzJunW6NySohrfT1V/Bge9dqUf0wanqsOrkNW10U6Vhx+/fP/+vfWDupuTWG5eAeA5Aix44cKAf6zbscaj6hv82zYf1t3N8YX7iiWQWPXZcorYOu7t+Ey2U+fWmavuI1MPfWSkuo+8a+u4LbpbTAZRvcWPfByZSipb7iNvVPePkfvV6tq4X0wGo33/UpZX7T9M/fRHBFOh9+Kq56w+D24Wk8HY6Nwxj+/NtXvb9rp/7kXZSHUAb7Xupdk47rm/R3cPEwtfIdZIcX74AgABFrxyO8H9Zd2OLZaqd/d6cF+zXR5IXRgxVH2z2vwa8wurgx5IQ0jgPmmpum+U7tdvuzxIr/SRc/c1Utx9ZC7pPJZKvVU9GEfO9XMcsdzwYRUhVgtckFPK7udq+uCfwPg+19Nr92HXMfDZfUAzxscQ2Jl93hNi2fASYklSlle3ivONG4D+IsBCEK6c3vc6ED404UVjqLhDiE2iDScaCYQUmzzvI28UTwixj6WkUUTTCF/o0DiSSh8hxGqJCzseZBdwmN7vJTq+z1VXka1zrjjCqk0IsXqm7YXdV43FIu8A4rCU9DsBFgK6Ul2+n5oT1TdjzVeKAdZS0kXMAZb0Y/2UFHd1ft5HUggn1rmKOcByujKOpNpHcCA3ZW0ku2fBr6HWg1wn0fH9VE+v29WvmAMsSYr68x7t8xZiuZvHwtfxAWBH0b9tR/e4z8CReJlj4SKh6z3VkCJ1H1N4qcE4Elxp3YAucePw2LAJpWWQJcb3kFL5zEdLfFZixbRLA4B+ehQBFozwAGrifUpTb1b6CA864dy4+9MkMI4Exb1CyxaTwa2k90anP5F069boCo7xPSiu3Z7xGmI5Y/HBCyA8AiyYc/1vJD4HQ0hyzTtCiqBMdy47FONIEHMXuKBlblz+YnT6U9W7rppgfA9iybXbP95DLDcnuvB9HgBYcaM6wGKOPMy5B1CTrZ97JMkAq8GDThBJBlgNxhHvCusGdNliMriS3RpRb91C6yYY370jwOqhEJVYzbTCuxDnAtB7XxaTwZgACzFxU9zei5tYH5IOsBpU23iVdIDVYBzx5rELY0js3DVoNbWusJpWKDG+e7RUvfYYeiZIiOWMxYULwK/37m0fEB33kDQSn4Vt6kSA1Vh50JkbN6VLOhFgNRhHWreU7eLjfTOSTZB1IuNKRsZ3L654ad1PwUIs18Eogwbgw1LS7116mEU38Ta2VZ0KsBquj5yLxYDb8LlLAVaDcaQ1S6W1m2ny3PPgWDZ9d2xwzicY31t108V7AOwmZCVWUwb9OeQ5AXTeo6RzbkKRipUHUG5iD9P50HplDRV2eD7c+8VkUFg3whfGkaMtVa+dWVo3pG8MQ9i3gc+3FuN7K9538QUFdhc0xJIkd0PBRQugDc0C7jPrhgD7WLmJ5/NwP73ZdXQxGXxbTAYj2S2GnKqlpD+6HHI2GEcOxssvY+57H3z5hyyvzkOfcx3G94MtJf3Zh/Ed2wUPsZwLUQIN4DgfWcAdKVu5ibXaejw1d+pJgLXKvW1+b92ORDThRGndkFAYR/bGy69IuCAi9Nhmtrj7Oozve2leYrEbIWxCrJUySgDYV/OW/dq6IUAb3GYEf4qXO9t8XEwGF30Nrd3D3u9iQeBtviwmg/O+hhOMIzvh5Vdk3NjW62okxvedNOFzr15iYTOrSqymjJTkGcA+7iUN+/SWHf3g3iyei2lBzz2qXv+q96H1yoLAvX7gW6OZXtL7nWkZRzZiHImYq0a6C3S6KANMxveNmvGd8BlPmIVYEuk7gL18XkwGIz7E0FWLyWDmpgV9FNUUUn3Ns27NCjd1bKy64oa39vWD75DpJT8xjrwQYhzxubj+zOOxYzJWgE0KYv48YXx/4U719PDYx/fS47F55tnANMSSfqTvvDECsEkzfbCwbggQgqsWOFe4N9OxuVddNVFYNyRWKxU3fV0Haa767Xxvp5i+hnEk6DhSejruvC/TY1eWmvEZ3iRxLTC+PxnfZ9aN2YHPYLT0eOykmYdYzoXYIhjAS0wfRC+5aooLSX+oP29k56q3zWbdix24t/ZXqtdS6cvLwKWkz0rj7bw5xpFg44ivvtirPu6CLJ+bfyXz/WR8T2p8Lz0dd8690Ga/fP/+3boNkqQsr4aqk8wT46YAiMNH1q8AallejSUVkk5tW+LFUtK1pGuqag6X5dVIdR95a9sSb75IKugjh2Mc8SfLq5na/77+J5FKlFZleXUu6d+WDztfTAbDlo8ZTA/G9xvV4/vMuiGHyPJqKumy5cN+piJ9s2hCLOnHoFWKIAvos0dJY94+AC917CF0LmkqwqtWdexhZ6mffWRm25TuYBxpn7vu/mnxkF/6vFmB66NfWzzkn4lV96zVwfH9VgmHV40sr96oXr+urQxjrroijXujDaIKsSSCLKDneNMO7CDLqwvVC+G+M27KIe4lTd3mLvDE3U9dqf23wyHMVVfVTPk88CfxceRRdXA1tW5II8ura0kfWjjUo6Teb2ST5dWVpL9aONSNW4O5Mzowvk/VsRdYbjz9u6XD/c7L/O2iC7EkL+k7gLjNVVdfldYNAVLipuI3D6Jnpo3Zbq76jSsVNYG5N8QXqh94Yu4jzVv5KZ8FYTGOtKeFaUUEWCta+H52LsBaxfgel5YyjPcxhfOxijLEkgiygB6h+gpowcqD6IXimGrwqLqyesobxTi4PjJS3UdiqL5pQomyC1N9uoBx5HhHVGQRYK1xxPezV2sKRTq+l5Ju+zS+H5FhLCVdEWDtJtoQSyLIAjqO6ivAE/d2dqR6m+7mV9/T9O9Vb9BSqg4leBCLnFtfZaS6f5zL/xpJj3raR2aez4cjMI4czl1bU+12TS1VV5cVHpuUtD3XgrpX/XK09Nik6DG+23HTPa+1+4uAe9UBVhJBfQyiDrEkgiygoz6rY3Phgdi5t7RD1TezzcNpY5cbrUdJzTVbrvz6jRuvbnChRfPA82blV2m3AGOuenFbqX6Y+eZ+ndFHuoFxZD9unZwL1d+v1eleS7mHfbH2285cONB8P9+s/NY3/az6mYVvWfw8ju/f+h4YbuKCxLHqcfJ5iNhUqnV6iqUv0YdYEkEW0CG8aQAAAAAAHCSJEEv6kWTeil0LgRQtVZd2X1s3BAAAAACQpmRCLOlHCWkpgiwgJTeqq68olQcAAAAAHCypEEv6EWTdyv/idACO86g6vCqtGwIAAAAASF9yIZb0Y2G6Uk8XSAQQB7aIBQAAAAC07lfrBhzCTUsaSbozbgqApz5LGhJgAQAAAADalmQl1qosr64lfbBuB9BzN6oXbp9ZNwQAAAAA0E3Jh1iSlOXVWNK1WPAdCO1edXhVWjcEAAAAANBtnQixpB8Lvk/FOllACIRXAAAAAICgOhNiST8WfJ9KemfcFKCr5qrDq6l1QwAAAAAA/dKpEKuR5dWVpEJMLwTaQngFAAAAADDVyRBLYnoh0BLCKwAAAABAFDobYjWyvCokfbJuB5CYe0nXi8ng1rohAAAAAABIPQixJCnLq5HqqqxT25YA0WPBdgAAAABAlHoRYkk/Fn2/ElVZwDo3qsOrmXVDAAAAAABYpzchVsOtlXUt6a11WwBjS9XXwvViMvhm3RgAAAAAALbpXYjVYAdD9Nij6uBqat0QAAAAAAB21dsQS/oxxbCQ9MG4KUAIN6rDqwfrhgAAAAAAsK9eh1iNLK+Gqhd+Z4ohumauesrglCmDAAAAAICUEWKtcLsYFiLMQtqWkm5F1RUAAAAAoEMIsdbI8upCdfXKqXVbgD3cSbplrSsAAAAAQBcRYm2R5dVYdWUWYRZi9ah6KuztYjKY2TYFAAAAAAB/CLF2wDRDRIbgCgAAAADQO4RYe3Bh1ljSpW1L0ENNcFWyzhUAAAAAoI8IsQ7gdjMcS7qSdGLaGHQZFVcAAAAAADiEWEdy62aNxVRDHG8pqVS9s+DtYjL4ZtscAAAAAADiQYjVEleddSXpQiwEj909ygVXi8mgtG0KAAAAAADxIsTyIMurC9Vh1oWYboin5qpDq1JUWwEAAAAAsDNCLM8ItHpvNbQqWdsKAAAAAIDDEGIF5AKtkZhy2GXN9MAHEVoBAAAAANAaQiwjbg2tJtR6Z9oYHGquOqxqAqvStjkAAAAAAHQXIVYksrwaqQ60RmKnwxg9CawkPbCeFQAAAAAA4RBiRcqFWueqQ61zMf0wlKV+hlUz1WFVadkgAAAAAABAiJWMLK/e6GmoNZR0Ztik1N1L+qafYdVMVFcBAAAAABAtQqzEuYqtofs6l/RGTEeU6gXWm5Dqya8EVQAAAAAApIcQq6NWKreaX6W6ikuqA68UpyfOVVdMST+rp6SfAdW3xWTwELxVAAAAAADAO0Ksnsvyqgm6pKeBV2PovtpWrvlvTcXUD6xHBQAAAAAAJOn/APTzekXw9ZjjAAAAAElFTkSuQmCC;" vertex="1" parent="1">
          <mxGeometry x="490" y="506" width="211.83" height="54.5" as="geometry" />
        </mxCell>
        <mxCell id="WruwLa0rmUfx6qdQRTx5-5" value="Управление контейнерами" style="shape=image;verticalLabelPosition=bottom;labelBackgroundColor=default;verticalAlign=top;aspect=fixed;imageAspect=0;image=data:image/png,iVBORw0KGgoAAAANSUhEUgAADwAAAAhwBAMAAABikNZBAAAAJFBMVEVHcEzV4fo3NTUoZuRbi+s4NDQ3NDT////u7u43NTUzbuX////0FF7PAAAACXRSTlMA57r65CxqhzzjINAsAAAgAElEQVR42uzdsWoiQQDH4XSxXQgY2MdYK7uQrfI0sTKQxlT6HnPVdgsHBublzjWX4sCcOrvOgn4fIaXFTPHjv4l6dwcAAAAAAAAAAAAAAAAAAAAAAAAAAAAAAAAAAAAAAAAAAAAAAAAAAAAAAAAAAAAAAAAAAAAAAAAAAAAAAAAAAAAAAAAAAAAAAAAAAAAAAAAAAAAAAAAAAAAAAAAAAAAAAAAAAAAAAAAAAAAAAAAAAAAAAAAAAAAAAAAAAAAAAAAAAAAAAAAAAAAAAAAAAAAAAAAAAAAAAAAAAAAAAAAAAAAAAAAAAAAAAAAAAAAAAAAAAAAAAAAAAAAAAAAAAAAAAAAAAAAAAAAAAAAAAAAAAAAAAAAAAAAAAAAAAAAAAAAAAAAAAAAAAAAAAAAAAAAAAAAAAAAAAAAAAAAAAAAAAAAAAAAAAAAAAAAAAAAAAAAAAAAAAAAAAAAAAAAAAAAAAAOaTDad1WrlLAAgV343m/Xyy2bjOADg8labZdHGv8py9zN9E2EAuOj0Xb+X8YBiqcEAcKn8Lg/W92sLT98cEABcYv3+nN+9qRUMAENbL+JRy5VzAoAh5++ijCdoPYcGgAHn70n53T+HNoIBYCDLk/trBAPAQCaLeBYFBoD8/fUYGgD6uy/j2bYKDAC9rBP6q8AAMEZ/Y2wVGACSfcRUCgwAqRaxh1fnBwB59+9+AyswAOTevz6SAwBG6a8CA8DZJv37q8AAMEZ/FRgAzjNMf30wNADk378KDAAj9VeBAWCM/sb46EgB4Hh/3+PAPh0qABzrbxkHN3WsAJC9vwoMAGP0d1fglbMFgJ/cX6i/MW4VGACy99cGBoAx+msDA8Bh64v2V4EBYIz+KjAAjNHfGFsFBoB/+xuzUGAAyN/f2L46awD49hGjAgPA1fZXgQHg2yJmpcAAcHc3+cjb39i+OXQAyLx/OwoMgP7GqMAAkNdklP4qMAD6O45Hhw/A7fb3PTmgZdFpFRgAsvW3KB7quv71svv1VJQKDADn9LdM3L71S1WFai+EWV0XaQX+dAUA6O+pb+It6moeQtM0852mCVWYz57SEjx1CQDcnPuk/nb53WX3X6Ga1UmvtnUNANyYTUox24dQNQeEeZX2HHq6chMA2L/H+lsfzO9eNXtKecmtAgOgv8ceP8+bn1XzpALbwADcjnVSf5//198uwbUNDAAD9/f3c3NECAoMAMP29+HY/t1v4F9Jf1pWYABuob8xqb/NKaqZAgPAgPu3OU1IKnB8dS8AXLePpLf/Vs2pqlnKG4JbBQbguvdv0vPn0/urwACQf//2KPCb2wHgWi0y9LcJIanAUYEB0N/0/n59LKUNDABfJrn6223gJxsYAJL7G+t5k0SBASB9/6b2t7GBAaDr7/vAXz94tMBVUoEfXRUA9u+86SEkFfjTZQFw2/u3eOnV324DlzYwAPp75v597tff7p+hkwq8dWEAXEd/k76h6KVvf5M38NSVAXAF7lMiWDz3729ygbcrtwbAjfa3GUSo6j/s3bFO41oex3FtBW20kUCbp7gylbsortiXYaotaKDivsaVU53OEtKMlJe7ZBhpr2YIE/8D8TnHn88TkMGaLz/HyQltYAUGoHBP0+3fEwpsAwMwy/6mj9MrMAD6e9Txvx/Z35RsYAD096j+tuljC7wNPYatwADYv6cV+Cbyg+wUGIAZ9bdP6RMKvLCBAZhLfyOrc9mkz9CGCry781sEoDSPu1z27wkbWIEBmEF/h0/av/ECOyAYgLKEjh9ctillVuBBgQGovr9NSp9a4LUNDEDNLnPsb0q9AgNg//7c365Nn06BAbB/f+pv8/n9TX2rwADU2t/7XPfv6wHBkQJf+7UCUOf+PU9/91/JocAA2L8/+rs5W3/3Gzh0OJJfLQDV9fd8+zde4Cu/XADy7W8kbYvNOfsb38APfr8A6O8EG1iBAcjSRRn93Re4U2AA9Pf8FBiAWjxFkrbcpGn0nfeBAZhtf5+n2b/fN/BWgQGwfyco8I0CA6C/Ewht4EGBAcinv5Gvd1z27bQBbm4WkZ9bgQEour9NmlofKvBw5zcOQA4eIxVb9ml6zTa0gRUYgGL726QcxO5CDw4IBmByXwru777AoeMJFRgA/T1NqMA2MACTuoz1t02p8ALbwADYvwoMgP372/52mfU39a0CA1B/f9uUmz62ga9dAgAU09/b/Pr7fQNHvpbym4sAgPP39z7S302O/Q0X+MplAMC5+7uq5P7zjwI3CgxArf1dbHLtb7zAD64FAM7nYlXR/eeTCuyAYADO58/a9u9rgTsbGIDq9m/u/Q0X2AYGIOP+Pmff332CFRiAbD3VuX9/HBCswABU1N/lJpUhdhd6UGAA9PfEDbyIfC2lAgPwuf2N1GnZtKnyAtvAAOTX33L27+vRDJGRv7tzdQCQU3+HZZ/K0tyENrDjCQHIav82KSkwAIQ9hvZvef1VYABy8mU2/U19HyrwToEB0N8TN/BagQGY3uW8+vuygVsFBqDQ/nZtKldvAwOgv+UU+NrlAsCk/b1tUtn6dr1SYACm6+/9DPfv6wHBoQ381SUDwFT9XdyW39/9w9B/BTbw6spFA8Dp/Q2dz7epor8vBQ7dhXZAMAD6e+pd6Mg/wJUCA3CSi0h+FtX0N6VWgQEopr+pIn3TKTAA9u8EG7jzPjAA5/Skv69PYikwALn3d7lJ9ekVGIDc+9tWGODUbEMHBCswAOP7u7N//3k8YeTPkd2d6wiAc+zfPtWqvwltYAUG4Az7t2mrDfDLBg4V2PGEAIzwGOtvqpkCA5Bjf4fK+xst8E6BATjOZay/bUrVF3htAwPwab7Yv4e+lTJUYBsYgGP2r/6+9yy0AgOQUX+7Ns2EAgOQTX93XTOX/qa+DR1PeO3SAuC9/t7bv799Izi0gb+5uAD42P07r/7uH4YOFfjK5QXAR+7fxe3M+rsv8EqBAZi2v8Nmdv3d34VWYAA+rL8r+/dzC+yAYAA+qr+bOfY3voEVGICfXOjvuAJ3NjAA+qvAAJToKdbfNGe9AgMwRX+fZ7x/Xz+NtI38sw0KDMAp/V3Ovb/74wkVGICz9zfRKzAA8f5Gvlhx2cvv9w28iPzr3bnqAIj1txHfEwo8KDDA7D1G+mH/nrqBHRAMoL+B/tq/J29gBQaYtS/6+wEFXtvAAOhvIQW2gQFm61J/P+rTSDYwAJ/b312nvwoMwNn3r/4eOp4wUuBrlyGA/h7X31ZsD7wRHCrw/1yIAPqrvydp1ysbGIDf9fc+0t+N+8/v3oWOFPjqwdUIoL/27wQFdjkCzKe/kVAsHD9oAwNwigv9zarAXxUYYBb+1N/PK3BnAwNg/5ZSYBsYQH/f9LzR1mMTrMAAvOEpkoel/TviGzm2kX/iQYEB9PfX/srqqMORFBgA/Z3gLvR2EflaSgUGqLe/kS4se0kdvYEjBR7uXKEA+mv/nrSBQwXeKTBAlR4jq8z+PecGdkAwQIVCxx8tHb8Qm8DBDazAAPav/p64gdc2MAD27wQbeG0DA+hvqL++fuMkCgwwd5eh/nb274kjuFVgAP11/3mKoxlCBb52yQLMef+6//wBtqECf3PRAtTQ3/tIf2/t3w/awCsbGEB/a9q/fWpTm/+PGSvwVxcuQOn9jfz3v7jNPmz9TbdeLLqub+vcwFcuXYAZ9neT/f3nfvuatSH/r6oOFvjrg6sXYGb9HTb579//H3qf/1qPbmAFBijWRWz/5v/G6j+PvF8UsIE7GxhAf3/b31RUf3e7Zf4PYvUKDDAjT7Xu3/6nD9cW8JWZNjCA/hbf358G8P5Dy/n/zM1N6O14BQaYR3+XBdx//mUAl3AT+kVoA+8UGGAe/S3h+ye3v7y0oYQAN9uFDQxQf393te7flN74euV/F1Hgm0iBd3euZoDq928ZX6/8xmt7bov4yUMFHhQYoOr9OyybIiqWbt787pBUcYEdEAxQiMfQ/edCjj/q3zzgr4h70KltFBigYl9i+zelYu9Al3IPOvw+sAIDVLp/y+nvG89AF/Mc9GuB1zYwgP1bXn/THwcOkKi7wJ6FBrB/8/sQUjlvAn+/h96uPQsNUJ3Q889dW05/+/8eeIYspeL/iPCdWADl9ncV6W9B+/fAM1i73XNJr6GNHBDsZAaAfF2sKt+/h57BenkZJb2KvgkV2AUOkKnL+vv75tdwFBfglELvA1+7xAHydB84fvC2rHAdDPDutqzXEdrAPowEkKXAA9DDprD+HvgUUkmfQzrhLrSjkQByFHgDuLj9+84DxIUFOLWRAnsbGCA/gTeAF8Xt34OfQirpg8CnbGBvAwNk53EO/U2pngC/bOBufIHvXOkAebmYR38rWsD7DTy+wD4NDJCX8TegF5tUopoCnFKgwG5CA2Rl9A3o5zL7ezjAXZpHgX0pNEBORt+AXpZ4//ndW9DLMv+gGH9AsCehATJyP7q/KVnAmRR45SY0wEwG8LDsU3UBXpb6ivrRG/jBFQ+Qh7FPYJV0/O/RAf5PsS9p9F1oExggE4+z2b+1PQUdLLAJDFDgAB5K3r91Bnh0gT2HBVDeAC68v32VAX4p8LjjCe9c9QCFDeDC+1trgMcW2AQGKGwAl97fSm9Bf38Wem0CA9Q7gLu28P4eXsCbNKcCm8AAJQ3goSt9/6b016HXVnqAU9+OOZ7QBAYoZwAPxe/fl0odnIm3qYICm8AAFQ7gGvr7zgIuP8CjNrAzGQBKGcCLTVNBf/s/DgWphr8u+ub4An9z8QNM6V/z2r8p3dQc4FEFfnD1A0zo/uj9W0d/07bqAI8psG+EBpjQxdz6mw4d3vdcyetrm+7YArv8AbIfwPX0N20rD3Dq+2MLfOf6B5jK5ez6W3+AUzp2A/sk0t/s3b1u3DgXh3G48gBpIljALqyrGGgqdsKoim/GvRunnqsIOBXfxgJcrW5u7c27H06G0mSGPJTOeX5AakM2lL8OyXMIAMWc14P0ug+K0ikSTnWwl8DPvAEAUMhZ/0/XiurfEHzkme+DpgQ+VnQiAcCC3Z6Xv0GVB5V3MfyUwOd8Ww28AgBQxsFg/sYCWNlj+l3FMSwAWKpzpmDV3ilLps5EAIf2nARmDRoAirgxWP+G8D8bAXxeAj/zFgBAAU9n1L/q8jds1d7FcEECP/IWAIC8+SbgutWXv5HrkBQGsD9jH5hWYAAo4MZi/Ru7jUHJKOgfa+C5Xf7hmfcAAMQ9mcxfSwH8VgPPJfAL7wEASNvMzp9Umb+R65BeNQZw8LP9wL/xIgCAtJkV6GHvlAZwo3wU9MdV6I5z0ACwMNMr0EOtNH8j9xHWSp/WzyXwI28CAMiamcKhNn8jw6D/0Pq4YWYRmlkcACDsdmYBWm0gnb4O6V7v824b5kEDwIJMz4Heqy2AIxWw3gCeW4R+5F0AAFGTZdGr3vyNDIO+U/zA071Iv/MuAICkW6ML0G86E6OgZz85GIYFAEXc2DyBFY0j1QHcNjQiAcBSPJktgO1VwKHdsQkMAEsxVRPVqvPXb+19c0yew6IRCQAETW0BD86pTqOtjcuQPjYDswkMAMswtQV8FwxWwLqfObgHNoEBYBEmtoC1F4Mnr0NSeRnSh1YkNoEBYBEaqzvAkeVY7QEcwgObwACwALdTBbCjAlboG5vAALAAN0Z7gKMB/Kr+qad6gZ95IwBAyMQg6H1Qr7H42TE1DuuRNwIAhDQmp0BPBPCr+oeemgj9mTcCAGRszPYgRStg/U89MYyDTWAAEHJrtwcpnL6P0EAAn+x/5k5gABD1yfARrNMBbKHwnziG9cw7AQAiniwfwQr+wWgAd5zCAoDCoqXQ4AlgW/1X373wTgCAhI3pFeiTQ6FMBLBvOIUFAEXdml6BtlsBx1uBOYUFACKic7CGEIxWwCa+POKXEg7PvBUAIOBgewX6VAB/sRHADaewAKCkJ8tTON50VgPYPzALCwBKagxP4YhshRp58i03EgJAQRvLc6BNV8AhOg/6N14LAMgvegi6DgSwcg19SABQzo3pJiTLS9ATm8C8FgCQ38H2FrDpCnjLNGgAWF4AW9kCNlwBx6dRPvJeAEB2sS6k10AAaxe9Eekz7wUAZNfY7gI2HcDRTWD6kAAgu1gX0mDkDJbpPeDQEcAAUMqt7UHQxivgLX1IALC0ALZyBst2BbzjPiQAKOXG+BgO0xVwcA19SABQyFfjZ7BsB3D0FBYBDAC5HWzPwTIewNFTWI+8GQCQ2ZPxOVgEMI3AAFBEZBNwcASw5WPQL7wZAJCZ+UPQp7ZB7VTAOxqBAaCM2ByO2kwAhwfDJ9CiVwLTCAwAmcXagO/NRNCpS3Fr009PAANAwQC2UwMeGxbgmcQBAOJiczhs74IOnkZg3g0AyOpgPYB9Rxc0AQwA8p6MX8UQfGP5MuQQtkziAAACeClbwJbugtoyiQMAimiMtwHHlmDNHEKL9SHRCAwAWW2sz+HYNfwCCGAAWE4A18YL4HGwcgzL0wgMACVYbwOO1X+GSmAagQGghBvblxFGC2BDnUg0AgNACZ+MB3ATD2AjiwBM4gCAIg7GbwOeCGAr2+DfaAQGgAKebN8G7AlgzyQOAFhSAAcqYCsV8I5JHABQQKwL1kj4HEcC+EgjMADIi87hIIDH2hHAAIBMbll+Ha03AjOJAwAWFMB3VMBmKuBYADOJAwAyMj6HYzKArVTALY3AACDvYHkQsmvddiqA29ZGAncEMAAsJoC/GAjfY9/31UQAD31/7NtWfx3MJA4AkGdyDof3/th3dTWVvt9VddX3e+9tnkQjgAEgn8ZeAL+Xvl3VNOOZqqrue6+5EI5thP/O+wEA2VhrA3Zt/5a+w/iL3jNYbwTvaAQGAGkbW23ALvRnrDtHfiVVH7wzFcA0AgNANrE24HuNO79vxe+v177/0VR9rzKCmcQBAIsJYH1zOJzru2q81lD3Gk9kPTCJAwCEWZnD0V6x9vxDKFV90NYe7GkEBgBpBxMB7HfXrT3/FMF7ZyOAH3lDAEA2gFXN4fChr8ek3qtgVRG8JYABQJj+ORw+yd7viQjWdBwr1gj8mTcEADJRP4fDHbtmzGGovzinPYBpBAaAXJRfxOePGarff4dzqDmNdWQSBwDI2ugehNX2mcrf/xfBQ68lgWkEBgBZqtuA/TFr/P69Dq25EZgABoBMbhQHsOurMb+q1zCXwzOJAwBkfYrEyvq7kPwue/n7dxGsoSmYSRwAIOugNYDdsRqlaCiCmcQBALJibcDrn3w1jHLeiuC1/8KYxAEAywjgdS+qesHyV0kC75jEAQCiItukr6sO4FY6f/9ahl53QxKNwAAgaqNxDofrm3EskMBeYwDThwQAsgG85sXUbixi3S3BngAGAEn65nAIDN+IWnUC0wgMAJLUzeHwfTWWU604gR9oBAYAQV+V3QbcFs3fVR/FYhIHAEhSNoejzPGrD58ua01g/41GYAAQpGsOh+tK5+/7UayVHoZmEgcALCCA19kGvIT8XW8CxyZxvPCWAEB6G01zOEq1H/18GHqVU7GYxAEAkgGsaA7HYvJ3rTUwjcAAIOdWzxyO5eRv7hrY+9Zl+EBiEgcALCCA7zKkhnv7l68y3FXjktTZjpH70L8L6SOYSRwAICc2hyN5AeePfVdVdb/Ps7btF1X/5qyBXV+9fWo0VYbJ00ziAAA5B6EA/mc+Vd079evPORN4989B7/QXINIIDADFAzj1ICz/b39QlgNKC8zftwTO8KD/bbRK/pskgAFATmwOh0tc/zZZjwgvMn9zJLDrPh62TvtnijUCf+Y9AYDkZNqAd03WYHLLzN/kARn8Dw867EUCmEZgAEguOocjbXB0WYNpGfOvTidw0rnQ/qdRGWk/lJjEAQByATxKBHD38xazy1cW6q2Bd03mw3I0AgOAlFgb8H3mAQ8J1079Yuvf73cjuYwfMolL4LahERgACgfwPvfWYrLK0PdLzt+Uxb4/uUKc8i/lY43AvCgAkNpXiQB+yPgT/G7Z+Zuw2D/9pElnhnZM4gAAIYfMoRE/2pNo7XRhAyhPqfaJltrzN4xxIzAASHkSmMOxzThteteNy5em6ypS6if9ViKAAaB0ALv865opSmC3hvxNtOHdCVybwSQOAJAiMIcjdsldgl3gZR+ATtuMFN3rTtnodGQSBwDI2AjcBhyb7nB9mb30A9Apj0LHm51TrlYwiQMACgfwHwLLmteXwMe15G+Cg1jxw96DQCMwkzgAIDGJORzfoql05UL3Cg5AJ7ubcGraV8IDc7FGYCZxAEBiNwJtwBPRcdWPabtxTa7bqp3qdpb4Y/GqAEBaAnM4otOVriyB13IAK8lMyslx13cCAfzMuwIASUnM4ZgI4GuC/riu/L3ul+oboQCmERgAZAjM4ZjMjsvXZVe1AXx1Am8nF7cFAvgz7woAiASwEwrgizNpZRvAV35uTP4OkwZw7Mj6C+8KACSV53jyRznCw68xfy+fx7EbpQKYSRwAIEJiDsd0AF9WAi//CqS0BX8nFsCBRmAAkHAr8V96hmXZFW4AX3Mtw8znBgEMAGoC+E6sAr7ovNc6F6Av/t6Ye9yUAcwkDgAQITGHYyaAL4gkf2xWG8DD3qUugJN+LkW7tp95WwAgoa/5hxtGxwtfXgLv1pu/lwyFnq33kwYwkzgAQMJT/vH+k5Owvqe9M7MAfVHFP/u9kXS9gkkcAKAlgMNcAA92FqC/V/wu8fdGyvUKzyQOAJDQCLQBzwfIvTOzAH1BL9Ls86b9XIr9uBfeFgBIZyMRwBPXEV4yd2vlC9C/vAg9/7yDkwhgJnEAQMoAznJz3i/NMf4rQe5KFsDDXE/x0JRchJ5/3rSfS55GYADIT2QOxxkRUrlS+TtUfd/PBVzfV01TaBH6jII/7V+rJYABIL8biTkcMzcJ/FogJV2AHqq6997t5gK4bdtjX6UcvnX+1cBnfHDs/2TvjpHbyJkwDJciq8qJWWKkOYUKE03GGkbiZZwrsWOdQgVGs8lOrTNe7pfWXu+/XoEEGt1oSPs+B5A0miK/aQDdo3u3mMQBAH4B3OYrXbKKqngC+jl95xCWKfn+gZ9/3PMlxBie62C9BJ71Hjg0Xx3JJA4AaOOxyVf65VNY2YGkVgAPm/39c2Gb8aqhn08HIdzvN1r5nzsTOqMA1t0CTt+tz3xeAEBNog34pPyVrpYiWvm7bvYhTNOFN/D962+bQlCL4K3aBd/q3qzIJA4AcAtg3cbSrDXovF1gnRNYw3b/d/pmVMD/1+YTQzjuVP4ItQteZ+W7NTKJAwDMDclNT113J50SeKdS/d7/WHpeMivgf/TZhhiOKlVwTgmcUwBrr0Ant9lpBAYANW3mcGS8EClzF1ijAN48V7+ZJV9q0EUMKsexMpqBcy74ZiGAAeDNBXCTxlK1Sm4aFOJ3DrG0Pv9XAMcwKkTwJmr827QPzNEIDAANfGhzrOc5SUaFErj+BNa6ncNUfkj7lVGPIYz1W8EXF6Fz/mtb9dWKVNs2jcAAoKZNG3Du7u2lcVjVC9CbfRDtUL8+a7l+HfrS8amsAlj/XtEIDADmPrYL4JwBGudfilRbAK/bGGRtyomXHdQXwReqV58COP36SAIYALQ8ttpWzCuBV8sZWK8cvsoO4MT/o/4w1txhAZxeEfjMJwYAlDy0eL1dQX6em5BcVwCv23kSD+pKP5CEfV0RfHbVPasAXghgAHiDhoYBXFvPVRXAm204c02/yQ8ah6kqgdfbujWDbxZ3ikkcAOAVwEZf61U7mrEqf8+/fKgigF+K4KoEvu9qCNb530wjMAAouT41GoT148xSRaLEu4qUO7f8nDMo8/yeeBhrNoKTjwZT1fOKSQDTCAwASpq1AdevqVYsQK8X8jd96jfzVHgYK7ank48cGW+Q2gab+xQJYAB4VwEcc4LqXv0E1v5STF2ugOdLtX3FRnCiivVbgE6PwmISBwAoaTiHI3se1uupIp/Bse4vl4mVFfBLP5I8gV+/4IwnjnWerO7TjkZgADD12DiAsxL4tYpQXgCv+8spFasD+KUjWJzAr666X15yX7fTQgADwLsKYJM5HH9tAw+SilBcAG8y3jikEcDLVDGT45WfPu3cNoBpBAYAey3ncPxcq70cmrPk9FbiR2VdysUAznnjXzhu1Erg6Ju/yRckf+IzAwAqhuYB/PzdvitfhJYWwNu8/I0qAbxEcTvSr08c8fIC9HZeHAKYRmAA0NG2uzS7a3b9Zd1YugOcWf9mzPi40bq0rBI4I39zL015FBYBDAAq2s7hKCgUf5zvjXUFcHZIaQVw1qiRsyVwfL7kabp8nmu1zd9loREYACx9qIsbw4lYm30MYdrHmh3g/CJRLYDF+8DfS+A4bvf74363cc/f1K44AQwAbzmAc5qR1u1+tzt8XwuXlZUFi7SXA3hWfLhI/4LxcFo3l+O3Qf6mdsWZxAEAKq6KhlFp1sCZTbN/bgbLdoBLQupyAN9qPlykSuAp80LXrXX+phcdvvCpAQAFj14BvOQOjnrpCRYlWlGRqBnA0qnVc87Rqx/5Gxa3AP7MpwYAFKTagO2/33Pagf963/yTdf5mBPDe4OHi1xI490GjRf5GJnEAwPsM4CXmrrduJQVwzvzJopp1u5gn8H3uP2RucHuSo7A+8akBAAVD2RsBWzcjfc9SwQ5w6SLtqBvA2eX9P//oyrcXtjkmRyMwACi49pjDUXxaSVBNll6AcgUsTGCDtfWKUVgEMAA4BHCTr/glyE4rZWynBvVHgcJIlw+l7OAANJM4AMCaVxvw33ulJiG1mbXKPfmqfBxtHi5aHMCiERgArF05B3D2QSzrRdpRPYCNyvvNvLRyoBEYAMx8dGsDNqwTCw9AWwWw8Ch0HxvATOIAAFuPqfFTzb7lg34CSzZJjyf9ALZYYN+3y9/4RCMwAJhxbAP++T2vXSeKNklHiwDWP4i1nRreGSZxAMD7DmDlOjULRboAACAASURBVFHWJWtSAauX95vY8MYkH0o+8bkBgFrXnnM4Kicn626S3pkEcPYrJ3qawEEjMAA0COBTDwGsWicKF2mNAnhRPeV93/S2JA+m0QgMAGYBvG36Ra95WEnaJWsVwIviNvC2bf4mX1BBAANANe85HOrbwNJF2ng5gFfv8n7TdgE63QjMJA4AqHbVRwALX/j7SjTcSItEswBW6wZem+cvkzgAwMzHXr7ro85BLPEirV0FrFbet16AfmkQI4ABwMij9yAs3W1g+YND3JkFsNIp701ofk8WJnEAgJVUG/DU/steYxFaPqYxOfVJI4BVhkK3X4BON0d/4pMDAJWGfgI47lwXaTN++2L607tbgD4zieN3PjkAUCnVcePwZV+/VVqzc226BK3wxonVowBmEgcAWLnuKICrU0p+AjqzRq3YGI93wxssgJMBTCMwAFRKtQHfLi52fhmVUwHf+5X334LLDQkEMAC0DeAbnwCuKoErF2kPphVw7Uno2eeGRCZxAICNq76+76vKxLpF2ngwrYArr63taO6MNYkvfHYAoMpjTyd+6krg2kVa6wq4KoG97sfyG43AANA0gO+XN1cCzzaLrXr/lYpm4NWrAE4O6CSAAaDOQ29f+OISuPqU8MG+DhU/XWwXt/vBJA4AMDH0FsBhcDmB1SSA5W1WbivQyVFYNAIDQJXrobeKKycHTQrg2KACls76ctsRYBIHAFgFcHdLnhlvBXw1okKL5K9tzpI2A/stSCyRRmAAsNDZHI4XT05rtHGwD2BpM3CHAUwjMABUuermZYQXT/1Yt8m2CWDZIvQ3v9uRXJnnwwMANb52d+hHFMAabcttAlh2ytsxgJnEAQAmepvDIUwojRcVNApg0S6wZwDTCAwAFh66O3Ur2SXVeV5oE8CiB4xbAhgA/iMBPL2pCljnTX0Zv1fjcHh4elsBzCQOALAwdDb6P3Mp2GTBvNVAqml4UwHMJA4AMHB96i+Ay0dhKb2qvlEFvITyTmfHLfnk/4VGYACo8KG/ORzlFbBSAXxsFcDl57DWhQAGgP9GAN84ft8Xx5NSAZyz96zzq4pLYM/bkWwEZhIHAFS46nHJs3QNWimAcypgnaX5cfNm5mCdm8Txhc8PAIh97W8QVnmBuOokcLMKeCos8VfXAphJHABg4bG/NmBBCayzCTw2qoDjk0+FTyMwAHTkocdDP0sobQXexje0BF3c5zz73o14RyMwAKjrsA347KqnZZGYM4Na4R/jdcZM/4nhdz4/APDuAvjo0Il0bBLA5W9Dci6A00sDTOIAALEe53Cc3Xa0TOC7JgFcPmjzm3cARxqBAUBbj3M4/nRwGAfdJIDH8nchrRMBDAD/lQC+6XTR81xM3U8NArg2DKPgXYSr9xo0kzgAQN1Vp9uO5cOS63MqNgjgKHiy8D+FxSQOAFDXZxuwqE6sz6msAG69AdzFGvQTjcAAoCzRBnzy3gKW5VRlAtsHcBA9WPgvSBDAANAogJ3ncGR15OovQu+sAzgK89f9TNzIJA4AUDb02fgiDapvs3U8VgWwbAG6gzVoGoEBQNl1n3M4ojSoqraBzQN4kj5XuJ+DJoABQDuA+1zyPJ7EKnqR8haIHRagn93SCAwA78qHPr/vn+RJtZmNA1J8PjyKF6D7XZKgERgAhK66nMMRD/KkqliENg7gmvz1XoNO3hE+QgCgG8C+X/dVUSVPYNsArlmA9h9NxiQOANDV5xyOu6qokheLB8MAlo3A6mUNOtIIDAC6HnoM4KoV6JcSOFr+3nuPqt79mYgABoA2Aexabk2VWSVehDYM4GlXeU3euwJM4gAAVV22AY+1WbXOU2cBHKvz13k2Suqe0AgMACLXXQ7Cqg8rYS/SwawSPQ7V1+S7KjEyiQMANHXZBhzrw0q2CJ23Byw5jjwe6i/JtxGJSRwA8P4DWKFaFA7EsgpghQVo70akwCQOANDUZRvwnUZaierFwSYHo8ojhe/GfPIZgg8RAEh87TGAVcpFSS9SMArgUSV/fV8RmQzgL3yKAEDgscPtxqgTV5JtYJslaJ0F6F7XJT7zKQIAgYcOa61RKa7KnyJGkwo47pSeKFxfURXvaAQGAEVDhx0vTyetvCpehDYJ4FErf31vC43AAKCpx+M+h5NaAk8WAVxYh047tetxnUZJAAOAousO1zqPg2JgFSawwUJw1Mtf50YkGoEBQE+qDfiPd7AFLNkGNghgxecJ3wejQAADgH0Ae1ZamhVj4SL0UT8Fx43m5XhuAqfGhDGJAwAErpTfOW/4PS9MrNtJvfguCeCg+jjh2x5GIzAA6PnaXwCPg19k5VXABSfU4v6k64YABoB34bG/07ajcmSV9CKN2gGs/DThugkcmcQBAHo6nMOxO2ln1uQWwJP6xXhuAjOJAwD0DN21AetuARcuQisvQUf1/HXdBOaNwACgp785HMfBMbRG3Sp01L8Wz03gIwEMAFo6nMMx6mdW/iL0nWoA63Ygyd8woWWiERgAtHTYBrwzCK3sgViqARwtLsVzEzi1O0AAA0Cxq+4CWH8LuGQRWjOAo8FiuvMB9dQkji98kgCg0Mf+3jtrklq5C7d5AZy3Qz7aXInnwxGNwACgpb824KNNaq15CfykVwFPO5srcdwETgbwZz5JAFAo0Qb8P/buXrdxnIvDOFLFwDQxrOJFdBWGXKkTnMq+mfRpJrWvIqArV2PA1czN7bz7gdlMJPGQPBQPs89vt93Eq0D+65A8Rz8+1xawfBFauAQtCqs21/9JuU1gJnEAQOYALjeHI88WsHgglqwCvh3KLUCbXJ544E4CgEDm5nC4bLklWrodtCIw2wJ00Q16JnEAgJKVuTkcoi3ga65FaKcVwLEdSI3tcdAEMABkDuByX/GiTdinNlcCDzo/KLYD6SpaALC3PkEjMAAEsjeHQ5KA19h37HoXoTulAI7dAN6LPkDBTeCpRmBuJQAIY24Oh7ACjA0470CsQWUX1sU/IGx1KvmFA5hGYAAI9MXaN7woWTfRCXdVSs75H+PeYgtg8QWwdkadAAaAMKepStHymxj+n6J9m2URWieAdwkfrpO0Yd2KVcBvNAIDgIoXa6Me3kQr0D+TMvadSZ4EPioEcJ9UnkuuQLm/z5kABgAVrbEveNEYjiZlYMf8IrRTCODodyD99WwgWgMwt0LxwL0EABoBXGyJU3QGa5/S6PPjtlcYAzLzM1zsAvTfjwZdm7wEnrMCphEYADSsrO0xSsLr6tKGRs8tQisE8G6d9rlEBfSjtQCmERgAgtxb+37fCreAUyrNuV6kLjmAoxeg/1n2d6JrUOoP1BHAAJAzgIu1uUhOIG1So269T66AN9ojsP61Ny054G1uk55JHAAQ5M7YFqPoDNQ+dbN1ZhFa+iMftTuQ/j1eUnARyp3CGmgEBgAFJ2NzOFxQ8ee2P7QT+JwYwPEL0PuwaVwbawH8zN0EAAoBXKq+kuTfr/B0XasQd8FzQGb2YN2gUZRLPkSxt2VsCWAAUGBtDsc2rPbr4hehXfwHmHkf0U7liUDyGFLshUg0AgOABmNzOCQLuO+r80F5EVoawONrBL3Ox5HshBd7RpoahUUjMACEMLa+GZ485/iSs08YhDW+hh29Afz7j5OcBbe2S0AAA0AAa3M4XBtaunbRmTfeiyTO80fFEVg/f1ovqjJNzMKiERgA0lmbwyGpZzdKu64/nvr4M1ije7DxH2Xdh1+HR2MPSQQwAFQcwLvwtd/4EnhkIFbAGvLHNeiET7KPWAkvdQqLSRwAoODV2PLmW+gW8CX+xcCj+7gBP+v3U1zRI7DGDoQNEReCSRwAUI+TsQAW5M6H7en4VqQPvUhBgz2uagvQIw8CkqWAg7GnpGfuJwBIDeBS3+2SM1ibqNiWlZ5hrxh+/x87tU8h3QQu9ZTEJA4ASGdsDoegiBxr/zkn1J7v2m+3QT/o3XuFE/J37H+pi3sUKdoI/MD9BABira3zPbu4nc+E8HvXixS6iNx0Gh1IoyNBnGA3vDEWwDQCA4DYytgBW8EW7OhHS0k/F3+K+forgXfr6E9w24eknIVhlPQhAUCuAC5VWw2R664JJfCvBO7C36NwfercX/VvwgfYx3ZEXwlgAKjVva3dRckZqNG4SlkAvjb7ru/7ro95j9G1Obiu684J+TtRxwo2gUu9M5JGYABIdmcsgAWhM34+W7JlOr0P/HQ4HJ7WcRm+bp6ehvj158kUlRT1xgKYRmAAEPtia86/oI6dqBddd0xI4Ha9Xl8TMjThV09v5Ar2wx+N7RQQwAAgdTIWwAknf+NbkYqaXkYWXIxSr8xgEgcApHqRzXgydAh6k3KAy6CmDz3qVP4Y9OS8sAfuKABIC+BS/S2CDD1cPlUJPHOOSnAirdi8FAIYABLZmsMhiZyZ/3r4XAWw4HGk1DHoqWcdJnEAgJCxORwubdF1V18JfO1yLcgX+UPRCAwAiQFcaA6HIEHnPllXXQl83SRejkcCGACqZGwOhyBx5j6Zq64EbvrEBYHG1l4BkzgAQMjYHA7/muv8axK7bWUB7NnC9W+JlzotxyQOAEjzGhNzy7eXSo/9usoWoX31q+AUFpM4AKBKJ1MB7NIrvqpakXxnmF3qisDyjcDP3FMAIPJiqr1UEMBNbGlWYwEs2RMv1IdEIzAApGlNTTgUHDrybk5XdA5L0MSrcEEyNQJPfJxv3FMAILGyNYfDv37sz6yKpnE89kssCTCJAwAsBrCxNmCFLc96WpFuTmM0Z6E+pI5GYABIcW8rgAVnjvxxk/RiYFsL0JJj4cZmltEIDABJAVxmY1GweizYnHZ9HSWwKDkFawKFtuuZxAEAKe5MHa0VBLBk8qLbfZoCWNJVVahlm0kcAJDiZOsdO/4jR7IPVsM5LNnebWc2gN9oBAaABC+2BmG1OmVjDdM4hP8ngkWBDQEMAJ8ngM12IfVasVVHASw5hVXqvRlM4gCABMbagNWO/JpvRRIv8vsPht9sBTCNwAAgsLI1CMsfwNL2KPPvZGhSc67409KOSRwAkBDACWeNi7QBb1LjwUwLkjg1tZbll9qwZxIHAAjcmwpgwc6t+HCY8RI44JS592R4oRNzHZM4AEA/gPfVB7DrjpYXoHvNi2Lsr8VtBQB+r7a+0v2rrapHqu2fwKoygL9yXwGA16myAA46bzR8hgJYsjFubMf+mfsKALxszeHwH5wKSi6zJXDYnLGd0QB2BDAA6AdwocYW5XffDp+hABY8RxhrBH7gvgIAr9rmcAQNfbL6YuCrC6s0dRfmmcQBAAasVArN7NOFY987YHQg5SYsL52/D4lGYACozFQX0nejARy4N22zBA6uVwfly5K7EZgABoDoAC403t9f6mmdE6rmBJYsgAsdWj8yiQMAIt2ZesOsf601tHh0/VB/ASx4iij09mYagQEg1qutANbtQrLZihRRrfoX0glgAKjMydSeoiCA9UKijhYkYQAziQMAKvOis9Wq1YXkDZrwvWlr57BitmuzPJjkDOAH7iwAiAzgQn2lOZZajbUiNTGX1r83bmsSxzfuLADwqGOwQ9rSuKkSOHAGh/UAbpnEAQBRVpplWr4VzbTK3NSLgeNOS/n7o8sEMJM4ACDSfWWDsOKWxvu27gXobBeGAAYAawFcZg6Hf7c2bqW1e6q8AM60Ns8kDgAo5s5WW2murc7uWHcBLNjGNjY55Sv3FgDMeq3j6zy13dUZmcYRPTHS6iQOxyQOAIhjqw3Y3+4avTQ+VF0A57wyTOIAAALYZavzbEzjSHhlwtFmADsmcQBAnNZUG7B3oTg+wUxM49jEX1bvxy90bn3qweYb9xYAzFnZCmBvmRp/1tdCCZzQKuR/fmhs/cmYxAEA8wFcx7f5MhFmeAFaMKKk0DOToxEYAGLc1/FuHZUA7kqXwEkRaTWAp64qjcAAEBXAG6MBnDLxuNu29RbAgkkchSpgGoEBIIaxORzbnCeNXOGR0GnL+mejw6AJYACIcrI119CbkN/zHrK2WwALDohfbD00PXN3AcAMW28D9gfwY+afb7YAFrxPosxD02RpTgADQEUB7J02kbg0XrAVKbEAFswoKRTAOyZxAECE1tTb3S+5A7jgLvBjb/zhRHttnEZgAJixshXA3pBJLSPLlcDXLvXieJ8dNgQwANQTwLbagL3LrMmHw7q3UgVw/v3xQgHcMYkDAMIZm8Nx8QawS/0NfVvlDrCkRWtj66mJSRwAMMNYG7A/gJMPh7kyJbDCmKqsPdI59tW/cn8BwKQvxs7zLDDtqcwusEJ1ujMawBcCGADC2ZrDIcgYhfaoY+jqcbMePvwb+jMOCzydFBoGfXmjERgAgtlqAxZkzBLjLn//nd077uc/XWgZrZGNZgOYRmAACNdWFsDNEr/kw3J8f+ndr3//PMoVWEarvN0x/wa57gX9H/cXAIQGcKlaapGDvoEDoa9By645DyibDWAagQEg1MrYcZ5FAjjwtcCj1yL03cIah9r8TdKF/moXGoEBINR9lncOZQxglSALWj6eaOANe62DyqE2/5iwQkfnHAEMAFoBXGoQljfVDosH8MRqvAs6hqWzOGw2gI9M4gCAQNbmcCwSwGH7t5vohwXtADb7NgYagQEg2Kutb/JlKuCgPqTp6Dynl9HajyfW/mzP3GEAMMHYHA5/AF+WDuCZ/qGANejb5TMH8OQFJYABYIqxORz+Xc5luo1F71AIWYO+LfN4UiqAz0ziAIBA7X8ygHcqa8chx7Buy1Tu1gKYRmAAmJJzblOWAO4XCTJhpA3L7gE77+cudHh9cjWeAAaACausBVuGURM6h5neFI5g/VkCL9yGVF0A0wgMABPubb3Z3T+jaukAbtKeF5QD2LvmXSyAjwQwAFQdwN4laJ0APiocwQo7hqVzrPxsNYCZxAEAge5ydtvmKPF09lKPSlu3Acew9otcnu+lHpyYxAEAYU7GAtjbWqtyOsypxaa8BN4sUgE31gL4mXsMAEa9GHurzjIJIw5g/3UQdxSrPDn0VgPYMYkDAOoO4N0iCSNeOBakZquzmC20TLuxYmf1A/cYAIxqc6ZFjgkZKgG81TmCFbQGrfM+wkVW6DWXLmgEBoBRK3Pf40tspYrPYAmeQ+THsFQ2gZfp0lKszelDAoCwAL5YrYA3S9SRQb9sWHATuDMbwI5JHAAQwlwb8CIVsHR+lWx4xllvPTu9di82w/tCIzAAhLj7LwaweNu20alKNUvg6gKYRmAAGPXF1tuAl1mClu7aSkvWt+VKYLsVsGMSBwCEMDeHw1sB75crgIX7qW63YAlstwKmERgAQrxY+xrfZQ9geV7utRP9uu8/bQVMAAOASgBfrH2NqwWw20l7kOTr8OJpWOvUBDYcwFOPTt+4ywBghLU5HN4ATt1Hdb14eHPAgrF4tHSTmsB2A5hJHAAQYGWum9RbAR8S69+h1T8yJX8jQ2oCe39TueNzNAIDgEIAF5vD8Qd7d6/btrKFYRiuYuA0IcziILwKYVixEziVfDO7T5PUvgpjWLHaBFwd3twhFcfxj0acIedn0XmfdCksQoL0cQ1nrVmugLcEjFG6cI5Kj1rS1M5/dSy02hLBBDAAfAri5nBEDWDVHd3z12sVoBs9Erg8qU9ZATOJAwDc3cQ8PD7OJqzVAaMaXQweQTmEvOo3f3jQrfp8FTCTOADAw392F8BrA8ZM8VuNXjl5ihTA058utGnkrRBs9EgfEgA4e9jNr/i2CtgoffSLX6+7EI9NWM+qUqvPVgETwADgTtwcjjgVnqp9Hv6uWAa49//rT+WadWjBz4CtjcBf+Z4BwAeVuACOUAH7rz7/8m3zBuAI69D1/gKYRmAA+MhWnfViA9g7YFatPnsGsFr3AkPp3ZIkuQJmEgcAOLvdXwB7VsDGr/Vo5bvQVStfYvBuSRK8CaunERgAXH3ZXPulr4A9H/7qam04ejQC1+NqhV9L0nIFnG8Du20dgEZgAHAO4FZwBezZ+bs+Gj2ehG8I4DmCjQpYAef77Gw3BwQwAHxws78Adq+A1+69WhHAh3HT6xQn591Ykitga4vUD75pAPDOww4rYMdnnFse/no/Tj1sfKHK/VGw4AqYE4EBYGsA59zIE2gXtOq3xq/Pfchx80sVZa92XwETwADgSt4cjjAV8ObVZ78ANtsDeO4Kbh3ediO5AmYSBwC4kjeHI0SbzfrO35WbwU2QV3PqCt5lANMIDADviTsNOEQFvP3hb54AdjuoUHIfcM8kDgBwcyswgDcGjDFbOn9XTuKoQ73gclew5ElY1kZgJnEAwDu2NuC73VbAptHlGMzTxqXXGAOiJVfA5p5GYADYFMCnvVbASodaffZ6Ft4FfM2xuHpQoegK2LobnK8aALz1c4cBfOXiVK1Dxq97AD+OYV9Wt/bdWIc9BvAPvmsA8IbANmCzOmBMEzh+3d+Ix9CvW2hbV7DsCphGYABw8z3EeQeJWlkWKuBgrUdrGoHvg7+wvSVplwH8le8aALgEsPspQBF0q0JRdRHi13U3mrmP8NJDeboUwbIrYCZxAICbSmAA1ysCOPjD35dGYKd3wlRRXvxyV7DoAO6YxAEALqxtwKIr4LtIcyfXN0RHCuCLBxUuV8A5P7yeRmAA2BTA/Y4C2DRdrPh1XQvoor3+hYMK7wlgANg9iXM4lpeg7yLNnVwfwHUV7wredwUb0QHMJA4AcHIj7zRgzwpYNTpi/LruBz/EvIQpgt9Mp9xlANMIDABvSJzD4VMBm8jx6xjA5hD5Il5PpxReATOJAwBcPAhsA16ugL9F7fxdcS8S4jTg66pXXcGynwEziQMAXEicw7H8QLWM2vm7YjU+ShuwtSVJdgXMJA4A2BDAWduAl7cUl787fxPkr9t+tAQBPK9Dt41L2uf99Gy3T//ybQOAV6o9/YS/7lJWKvbDX5+OLFMluZQpgpVafjGZnx6TOADglVuRP+H9YsKomJ2/a2aSpLqYeR1aVQFuGSKuQdMIDADLvoj8CV+sgJ/qY6Ly1/FmpKuSXU6h28W3J+unZ7s/oBEYABwC+E5kDfVqKXZMZzABGqeCRvAouwJmEgcALBM5h6NX1SiIy47wg6QLFhrANAIDwCsPAo/TSdPU49OHtLgGrY6iLjjvEnT/SCMwAKwN4DHvL3gvK4CL00ICN0dRJfvLnBJhjcAEMAD88V3iKCVpFfBY6GZP+Tv+L+/tU80kDgBYVIlcw+xlrehONyRa2e8WxOVv5grYuiWcRmAAeHFLAG9O4Fpc/hLAACA/gEVuo01wtIE/SwKbWuC15t1CZ93EziQOAHjxRWYJ1QsMtaFUl+tfeZeauYnM2sZNIzAALAZw7l/wg8BUu7QKLbL+zf/x2d4UvnAA8JvMORzS5lq8LMyrfeRv9o/vyCQOAFhgm8NBBeyyCi01f7MHMJM4AGDJd5GDsBKPVl6bwGLzV+zHRwADwFIAN5l/wbtRagKbV/lbjASw18f3lW8cADyztQE3VMBLCSw3f52Ob4r78dEIDADX2eZwZG4DFhzAcwKf705UV8i9xoYABgDhASxzlvCkEpzA8+FIkvM3fwAbJnEAwHVS53D0TTWKTmClBedv/icIttOsmMQBAM+ktgEryQE8H094FH19w0kxiQMARPspMoBNowvRATcOwi+v0G0jMoB/8J0DgLMHiW0sqjtWsgNOvqHMWwQfaAQGgKtsbcB55xgWBGiICKYRGAD2F8A51y8PVL9hErgVGMD0IQHALxLncBzJzjBylsA1AQwA19wK/OnuKIA/QzcwjcAAcI2tDfiOgwhZg962DfqeAAaAfQWw7ZcbK9agG3EfI5M4AODMNocjYxdSzQr0pyiBaQQGgGt+ygtgVqAD+tYQwAAg0oO4NmBFAfwpSmDDJA4AuEbcHA7zSGoGfQqsctXANZM4AMA/gLO1ASueAH+WiZS2bjIagQFgcitrDoeRfcbfPhO40K0igAFAWgBLmsNh5jMYSMzwjtpkWIg2TOIAADtBbcCm6TiDIZKi0CeVugymERgAdhDAjWo0JxDGXYjWrWqS1sH39CEBgJVtDkfS5pWpNut0QfUbPYNL3RulDI3AAJCfrQ041RwOMwVCp0nfZEvRpZ4rYZXkkfAjjcAAYGXpQhqbBIvOsykOjkU1svacNIWP09tuzu9/1HKYSRwA4B3AQ/To7U/dnL0Stl0NQ6pXqoqiGESE8DBdSaH1SXd9vGqYSRwAYJe4DXhecZ5+9afoLYtBxJ6r86JsotuAQvfnh91C6v1hmD6COYZ1pM1ZNAIDgFXaORxGdVPylnMADTISaEqfeRXWdCkSuGynWnMq/2strN3qqdAmRo9STQADgDWAE87hMGoKHjnJc07ftjHPAzCPCfL39/vQK2nbzopSR0hgJnEAgJWtDfhbhF4jUVOu5pYc0/9ZeVV17EAc2ubVzJG5DhaVwYM24Vc9mMQBADY3yeZwNHKGPP+qfd/t/zWxD4G4e5tvzfw0XNTskbJNFcA0AgOALYDDHyLbiCl/511X8+Ct9/WeibsIfeGpulF9LWlPVvgEfiSAAcAi1RwOJSR/55Xn1tL8GrcEbu27wsU8GS9VogD+h28egL+erQ048ONAIyJ/f+26sp5JoGKWwPZ3dIrgRutCwlr0UAb+3DsCGADyBnBdiah9e9Vca3iNeZV3V7eHTxfWSaiDQz96sE3i+C/fPAB/PVsbcOACOHe0VOddV4tjF+/zJZuQOjhwCcwkDgCwuE0SwOaYOX1L3TUukyYeU27B+hjBjaqzHwrVJglgGoEB/PXStAFnXYAuCt0axyMH4l2o42ATZc7TSjK+X2FHoCkCGAByBvBj1tpXKee9vabKX1iaJutadNinwIZJHABw2U2KhUiTJ0uGqfY9Ga+jfkysh8BebV1TvT5lcK49WWGfAh9pBAaAi36mKINyrEDPta9W3of8xKrVvXeVG6PqPHVw2BZwTgQGgMuSS+A7AQAAIABJREFUzOE45qh9u7ZfcdZ8J+jJqmpMnaMObglgAIgvRRtw6hXoeeVZrTzgNlaxvuZwKXOug5vkoyqDbsOyNQJ/5bsH4C9XJQjgLmV+nFee159t2wkK4N+F8Hx8cJVwLTrshz/SCAwAHgEcdCPOY9La1/SqkXez8G3DNU3FvErZmxR0AwCTOADgotsx/hyOaDuLP6avVkptu3VQkVJu4+mOxjRzHVwMSd7JkEdR0ggMABd9SfATnOIR8PmAX7M1fSNebICiUinTpamDQ65/2G6/CGAABHD8ORxV/Nq31GbDg98EARzkjqZRc29S/G3RQXdhHZnEAQAX2OZwhOxCit8FvH3leR8B/HxmQxd9PYFJHAAQ288EAXyI37hqjPT18oBLCqreVQDTCAwAl6SYwxE/gAOmm8A2pAy7yk8EMABElmAOR4KjCAM+s4y1Xh7yser9rgKYSRwAcEkVPy4SBHDA+4Va/j1Cgl3lIQOYSRwAcMn4OQL4FD0uJN0j7CuADY3AAPDRbYInlgmOYgg4uina89U2S5E+rOtZChrANAIDwEdJ5nCsCOChKL2C4y52WkjqQ/K4Ryi0XjW6I+hZWPc0AgPABzfRy7UVFfAwlKd2HjiR4QlrvAAON13K/RLLtlHTvymDc1bANAIDgHsAnzJWwEV5Uk3TGKXdK7dgT1jjbXB6Sn+JRXt+TWWazjOCCWAAiOwhwSAGrwp4GHT7e6iVRwIH24UV7+TEYO+pwyUOz0/Gmz9jpL2q4LCfP43AAJAngM3Bp/rVU/X7EhvHan4cfHQIxTZyWAjaWeywB6vURVUNbxa95wiusgSwIYAB4KPvCYbxu4faUGj15kCFKYHn/3L4A3d5lstz7MJyuMT2/+ydvW7jyBKF15ENbGJBCgbmUwhkxIzQRNLLTO7EG/spDDpStAIM3MX45a48O3eux1K3TvUP1W19XzjAyKQI6vSpOl391vddfDibYi/Bs6nL5d5tU7e8fwCAAJ/nB/gwsrv68HfH/uuq3Y7CByS64pxHFyfa2iVc4m79dmTD4dlQYzfsChLgv3n/AAABzpfY1VNDu8W6PTxS4cc/KV3PRFecccZFokscxS/j2PEU+wXNbMK1wokrZhQWACDAmX+ApX0zH6vPv6mwoDlpmsA5D/pLFBQTLvHFrYVtp3SC55MIMJM4AOCSaab4ARa6lrvF19b9/9thKs3IenDTaqpL9K2fesEEJz0Li1FYAADHmMYBLU/rb9tnFJ1CxlbPJ1rNnDidsX2eTVTPP1EBQYAB4IK5aXKPVpZSWDOf/RV33iQRjZwZrFRrhPg9WeOpMnTiDgSzKAEADgV4khLkiSbwbrE+JZ5KCivFNfdZzxlKskboEnwVY++fypF4/eWsK/ACAgACnHUW/4my6anysxpOTqEaOTNYidYISYoBo3dLcOoKtKuDsHvgDQQABDjzL7DHtp0sP6ul4UU+pSgphTUk+SbG9tldhk5dgXauaxBgAECAcwuwO9w0W7eJZCfF8IjMJxffTdOl/q58E23vUuDUCQC3a0eAAeByuZ5iEJKnibtbrKQ/pYyTTlDgbZu8AvyS7YsMSFs7y9CLHgcMAHAuAd4mZziuv2Mf56HSFnifMwtwgspCyi/iuAKnN8DO7/UbbyAAIMDZBfhYF3j3tVUVSYknLyZRtzOnsJ5SHmXUdrMji6J+koePAAMAAjyNAI8HHcfd7Fn/qVdan/GF88wZrAQmPfH3cGRH8KLd4oABAD6TALcffurV9q8ej9pNoW7nHsWRuBLwdkThbx+5SF+AdvfWEWAAQIBz70M5UOC3Y377xKXXaH85NrkFONqkK0Xyue2xdO86wbss+uv8YhFgALhcrrJtlznWx/01fmk2ezvmN7nyxK4buuwCHJvCGpV1iLHR3I7Pw2z2b1NgMW4RYACAMzrgPAL8Nvxh/1M/W7zJr1WJlIByrL80ZrBmw2I2GDU7MoWlFMl3ZhFt9y54fy8hjyVOgG95AwEABzyFAO89cNuvv65XbcDvvLJFNzZkbMpgvR2g+KZcM5MERx6IlGsZ0vb7e2m3fR79pQcMAHDAn9OMgn5vtvbq22fyfpFNYFMGa/f1xzKiHXuTCV7k9+hh24jGMZP79X2zCDAA4IAncsAxv+HL7PJmymD9mmC9V+DJUljSccXz8h6e6zQsStAAgAMuX4Al8xeXcbLMwXpvMy3/b5d/ibAqcPWEAwYAqNYBSxHluCmKhgzWb3+otaSn17mXCMkP0sABAwBM54DXBf6GS+4vqvw6hBlg2/+MusJl9iL3tAKMAwYAHPBHB1zgj3g7ZFafcQgzwFv3aT+p29RD/pgXAgwAcE4HXGIJWrJ/u9wW2xE0biZJYeUvAkxcvUCAAQAHXIEAj1KLNqIJbMhSrSLMc0R5//k1dxscAQYAmIjrisqYkv9b5HXYDp89dsHV69QV6CIzWAgwAIDogL+XKMDbTVb9MbjYwzKyoXw9z7sCeUGAAQAqdsAvRQrwkNVgGuZgHWbUDOod7tGl3U53CDAAAAJ8hlEc4e1r3cQeEfnRUL8OVshl5ib49AL8wBsIAAhwDQIspaQWfU5/6ZRQw/9e57TosedRTDtEBQEGAAS4CgHeZlUg3cMe0/i2yZ7CktYfRWawEGAAAFWAy/wZ1wZOzXN+uPMvGJrAoUXyLm+H+QzNgx0CDACXy01NAqw1WgNr0HoG67jH7nKnsMasy4/MzQPH1fICAgACnPTMnmz0UhE28MPlGrJjo0+TO4XVVNsCdpX3d7yAAIAA1/E7rgWVw3qs+hysRXiDOubL7V6rbQE7++u8gACAAFexmUUsE4eNotAzWI7v5in2A1JUoBdlCrDjuf2HFxAALpimplai1gQOq0HLIapd9Damu3zuf17VwgkBBoBLpqofclHkVtnMtc9g64M8gmxql89cn6118A/vHwBcMPc17WbRUlhBAjdGz3Juh5wpLK0CXWgLGAEGAJAF+KWvqpYZL0PyLiL3HI0uZwpL89ffy3xsroDbLe8fACDAtQjwMlchdhlvX/Uc9SqdhtXROXBc7t+8fwBwwTxWtRFYbALblw/6ICt3fVtvIweksIY4d17mLqRvvH8AcMH85fhtLHMjsFiJtdd4xxTudRmb44q+70LrFgMCDABwwJ91FTNFp2p2gnL52KftXb4UVpdJ2M/buX/g/QOAC+aqLgEWXaZZiboU5lU+EcleKtbWHaU+tA1nMQAAHHBd10glsQlsrkHL1eO7PkUj2SrAYgW60Bawc4o1rx8AIMDVtBPVZu08i8M8IZ2jLOPfrRXy14pbwM6rZxAWAFw0N3Udq6O6TGMNWs5g+TVOnkZpvTztpgudnuIsLyDAAHDZNFUNNVRdprEaK2ew/JX5fpMnhdU1NbeAncuHL7x9AHDR3FcW6NGmURrdoJzBmqepZBvXB+Kio9SixYY5HAAABgEudEuLeu6uzWM+JRLOVEIeNOGj2BZwwzZgAIAjPFb2cy66TJPHlGdYnVyVyKXsDBXoUlvAzlXJA28fAFw0f9W2p+U5Rbc2MIN1SuPkjUim+oL4oaU+sCcEGADgGNe1TXUQXaalIyqnl1fBYhNRXxCXB6WO73aWF3a8fACAAB83aYX+oLeb5G1Wdf/uSY0b00m52fKX2rR3fiXsQgKAC+emtkyP6jINgpSucCwXs/XlgVrWvitVgF0X/A8vHwBcOE1lTWDZZa6ii6R21WxVLddb1Mlvt5TQ3C3vHgBcOPcJT62dRoGbxBqnfqCyJOmSp7Ce0neVy3ha33j3AODCeaytqai6TNnCq3OwFI2TP0u+W3W5UeompIYQNADAca5qm6wku0y1K7pMWDaWy9mrxDdb3SYkQtAAcPFcV3e8bN+krcoOCYNT41PaFJYawapuDiUhaACAmybFLItJf9TT1qBV06ppXJe2Q61+XHWbkAhBAwC4U1jFjnZYpk06JdW4Nqk9H4e0hnpy3I/qljcPAC6ex+r6inINWroBtcsqxpzS1oyT3mlJFWhC0AAA7hRWsTXo7SZhbErOYK3S2vPVNuG11VeBJoMFAOBJYRWbg5ZHLgs3IHeU+1jNCYh0qSuNUvdsu79bMlgAAJ4UVrGdRXnksrITaZPWZI4JP0/dVVxqs8Az4oQMFgCAJ4VVbGVTdoZKjix1zCmdo5YjWKWOwfK012957wAAPCmsYrM9qjIJ1rBLHXNK94Gy0S+0We97TA+8dwAAnhRWuUfspJOmZXKTmer0hJTLjLPgqaCTwQIA+MNzImG5tU11t62gTaLKLZLb87tkq4xSn5JnbUMGCwDgjaa+dI+agz7Zxh6b5CZTPbA4mQEutQK9oQUMAODnvroNpvKhwCeVUwwaW6aCidd2yrd2zeetQDOGAwDgB1f1jVjaNonsYZfGSAeY6lNfrWzyCx0Z6nPwuwfeOgCAP3yjOIotb7ZyffaEzokyN89wbfNEBrjUCnRDCxgA4BRNfefc6frkN6+bDFVe0VUvUqSzy61A+27gC+8cAMAP7us7Z0fPQXst8JimXxvUV/auDAz3V18EixYwAMBPruqb869nhL0lWtFI26q84qAur3J2r5VXoH3fLLuAAQB+clNfhdOQg/ZZ4C59C1g+Ecl3Xf2m8gq0d4FECxgA4H80nyvjo5t4LYNlbYSLi4N5CgO8G+uLqd/yxgEA/OTxtboYVqunlNxWUywWW8vwY2xh22CAC10feZ/OA28cAMBPrl/ri2HpNWi3SKlKmadB7dZ1fXFRagXat4KgBQwAoNWgC41hGVyiU6XEvLJV5NQmsPPW9LVFoRlo7+qIs4ABAMQadKEbTZ9eoy3wMlObVXTn6+iEt9mcl5BR/8b7BgCg1aDLbDMactAuDxtdKo505/Po4nqhFWjvHVCBBgB4x01TXwzLYhSPa+gYpZM+hghjHn9fZUewqEADALznPuro2vMIsCGqdNwpahmskBJ8F9HAtRjgMp+Mf8AnFWgAALkGXajPag1KdbSP+5wv56RJ+zrSABfanvcuPzgJCQBAr0EX2mlsDVJ1tNy7zJdzGoJ9ucUAl7ky8i8hqEADAPzO4yebNyyYxXHIl3N6Cu0uWwxwoVu0/Y+FCjQAgKEGXeo0rCbKAmsZrKB7FyPai+CtySWPofQWFshAAwB8pKnPapliWEcscJOvzCvmuw4+u59FltULeCoNFWgAgGQ16EKbjZYa9OE9aBmssKCx1p8+WBSMhukiVW4CpgINAGCrQdd46N2hlPYhGazAO++CPjxuRVHBM+EkQgCAQ+4rjGE9v0YUoYewKrF4ZU2AvbYtKGqMYH3hPQMAOOCqwhjW1uIYP6witDZt6MpDS3i9RBjgQh+Jv4j+wHsGAHCAfytwodOwhnALrKldsM1c2v21aWNzqUWJDRVoAICkNegyz72zxbBeX0ZrlzZ81lRndrG21cRrhVOwiGABABzlusKph0bReu8al3mDTq3ZYNsWE4WeBDywCRgAwE5T4UBoUwzrt2WE1KSNOG/3yfj5xrXEXZHP45lNwAAAAfxVowVubBa4tf3H8JsejQ57fG7C+9l1TMEiggUA4OCmwqPvbKMr3hWhJb3bRVxZ35gKyV0TXEyvZTlEBAsAwIU3hjX7DDGs/zvHLm8LWK1xr4MS0ESwAAA+FxcQw3pdjIYWbdSsi8HwF8Yn4zqCKVgAAJ+KCmNYxt7pr+LtJnujVcqHLYIK0EzBAgD4ZNQYw9JKve9vo1czWJE+s5GL3NYCdKEHETIFCwAglBpjWMadSHvNW6kZrMikk2Sy/y3dhrl4IlgAAJ+GCqdhGQdC/5SvZf5Cr7YRaR1QgN4RwQIA+Gx8/kMJf4heLyWkYo87kHR1L/K99QZqPIiQKVgAAH6aCuf/Ww3k3kFKhxXF6pzUZ14ELCBWFT6GW94tAAAvVxWWPluzgr2sNG2cwJr/l73713HcWKI4jInscIlRcDF8CqEVMSPESPMyk2+yE+9TDFoRMwIbXEAvZ2rWvt4/IiWNiuQ5ur8vWMPwekcgLDer+nR1l66NcVsWwESwAOAMx0sJry+BD6tZCs1Lhn10TXkfBXBmDDQA3OSrYwzr6hJ4nmEXF9W2xfyfa4Ew+gvfLAA4w3EaVnt1F3eesz4X7TRfTfMeJKZgAcCtPhvGsKopSuCAaVNvUxTmRLAA4D69Gu4/Xj2MY6aFbiNZmDMFCwAkjcewVpoL8OZZcAv46tuKjQtgIlgAcDvLGNY6vtJcZEaIawHMFCwAuJ3lNKwUXmtuJd8LVGNwRLAAIIBjDCtH551unUP50RPKlkM4iGABQAjHaVi5KhVXuvDCfOv4+vOF7xQAXMQyhhVdAsdceR+9CazafyCCBQAhLGNYwcVmUKm5+X8ogJmCBQBBHGNYwSVw1GtG7Iwu1QKYCBYABPlsmAOKLYGjlrrYaZSWk0A/8X0CgIu9Op6ECS2BH6M+1dv9F8AtFxECQBTLGFZkCRxzCCn6IJLqmw8RLAAIYxnDCiyB49rsgdMoVQtgpmABQBzPGFbcWeC4Ij/wIJLoY2cKFgBEcpyGFVgCB65167svgIlgAUCgB8sYVtSlSF3kZwoqy2UfOhEsAIjkGcPKQcduI09aRR1Ekm07EMECgFCWMax2H7Pj+hj5meq7LoCZggUAwf6Yb4WabybEIovd5r4LYCJYABDMMobVVhH1ZmyBn8p7LoCJYAFAtAfLIzEhJfBqxhrRvABmChYAhDsTw1JdECKWu+C3i/UdF8BEsAAg3teZDurM2hOddw5l2DRK2YYDU7AAIJ5pDCvdXAJHX/d0+ybwN9l+wzMRLACI5xnDun0g5SpXWq8E3daz3fCJ7xAAfMiD56KQbm35dqsmxb0P5E1T3msCiylYADAJ0xhWwOiLYrUNWoJzaoq7TWARwQKAiZjGsAIGUnZFs61Clt/65vVX+FVnTQQLACZhGsMKmf5YrpqUbl1+N7eXv/3LQJJ902EKFgBM5LNlNDfoBqJitUvVLctvG1D9Kh9BIoIFAJMxjWEFrcDdMY1V3VD9hlzNpNuAJoIFANNxjWEFXUF03AtOH1iDU9rHVL/arzlEsABgMq+ja0PWXYCDLgY+HIqi2V23GXwsfusi6ucLv+UwBQsApmMbw0pBJfD3KrjZXlgH55xS00RVv8eNdt2XHCJYADAl0xhW0L2E/47mWDXt2TW4X3zbfVMUkT9YtwFNBAsAJuUawwpsQn8/lVQUq/dCOA0uvn3p26++XeRPVW5AjxfA3Re+OwBwE9tpWGE5rH/XlEOxKvpFNp2w79feui4P0T9S+A2HCBYATOvVcxrW8ShScZhAUXxfhvfNrtn0vzbvdW8xyc86KHcYmIIFANOyjWHdfinDyAHhQ9k79L8Gt5x9GgxcRAgAU/ts24PO9cGa9BY7ESwAmNqDbZO0rQrr9XdXub7cEMECgAi+Maw8WRN6DtqPlggWAExuPIa1Uy6BW+MmdCHdXFgzBhoAJucbw2pzVftuAEsXwESwAGAGttOwnJvQ0g3oMxGsF74zADBDCSzdKW1T7bkCC8+AJoIFAHMxnoYVeisDJ5AuG/NJBAsAojjHsCYaiDXx+iv+VkMECwBmKoFH/3/7VImvwCUbwESwAMCTcQzLcRtY+wTSuQ70C98XAAjzh/F+pd82sPoDPRPB4usCAIGcY1ht67UNrL4BfOYMEhEsAIjkHMNy2waWf58hggUA8/nTdxrWexO68VmBtU8AHxHBAoAZWcewnLaB1QNYTMECgHk5T8NyGgqtPQKaCBYAzM56Gtb70RmLIFan/yQrIlgAMCvvGFbbJosg1irJP0giWAAwcwnsHcPqV2CDBbjTX3+ZggUAcxuNYXUGPWiHBVj/PYYIFgDMzXsa1rnWqQj9NBsRLACYnXcMK1vEoB+9C2AiWAAwhVfrEnh871ImhEUECwDwqzOXElqfnpHZBFZvJBDBAoAFWE/D2nvM4dg5d6Bf+I4AwCSsp2FZZLDUnyIRLABYhnMMy2QU5ZNxAUwECwCmYhzDSqXHAvyNCBYA4DfO07BYgJmCBQC+fKdhuVTAT74d6Be+HwAwGd9pWNlkD9j3GRLBAoAp+caw3kyuA7adpk0ECwCm5BvD8jiGJH0OePQRdl/4dgDAhP4sXTcwNx4LsHITgQgWACzINoa1sUhhKXfxx19hXvhuAMCkbGNYHjFo5VNIRLAAYFGl6UBoj9uQnlxbCESwAGBqD64lMAswU7AAwNl4DGtFBXynC3AuiWABwLJGY1iFbg+6ZgEmggUAzkwvJaQCZgoWANxzCawbwxpegDuhY0ieEaz/8K0AgBl4TsMa2cNcFTNP2yj83l/eiGABwOI8Y1jDJVy33dRzHhIumo3dKBMiWACgwHIa1tiil6t6tiK4W+1SW7o1ELiIEAAUWMaw1mM1e077mYrgosnVWKJJ8+kRwQIAgxJYc5zxSAj6fc3rV+BijvK3SeM7qt8MC2AiWAAwF8MY1vAm5t83APZFcDF1EVyscjqzoEmmsMYLYCJYADCbMzGsyqqG+2fJy2nTTFoEl3+Xv5e8DhDBAgCc8tUuhjW8Bfz4v9+T8oR96O64+/vPk0lem8B7pmABgAi/GNZlK15KzUR96KLZpoveB54qsw40BTAAzMltGtZwE/Xn6dXvfehygs3fJv30YzaDP0Tw4RHBAgAdbjGswTWkaH75nSm3dfASXKx26ZdlNQ/O/hBs4DMFCwB0uE3DWg8dC9r+vt69V8FdYPO5Sem3H5JSU5o08McjWP/lywAAszKLYdUD628+9ZurlPZNUcREr1ZNqqrTO6ulx4VIXEQIAEq8YlgDRdwqDf4LIXGs7hi9qgZ/RG2xCUwECwC0WMWw9ifX0tXoe0K/BN/UiS774ndbjTyIXJ1c2jqrCNYnvgkAMLMHpxjW+iN1el8Ft03xwTq4KJpdTvkj7wVazy4TwQIALU4xrNNd1AsmdqWUNk1dHMqra98m5XT+gz3rj4MmggUAaoxiWPnjlWa/jKamX4MvbkYX/eq726Wq+nBlrtW/ZwoWAKgZj2E9yud4L35HyFVKVdMUZ7vRXVfUTbOtUnvpH31yf1Wqf08ECwD0+FxKuL75E+ZjM3rfHJfhrncoyx+W3aOi6P9hc/xt+Yo/NpXqLy97IlgAIMdmGtbpu4CvXebSsa2ct7k9rrR1Ua/6krj/pa6Pf1/t91VVpSqkvlR6eeEiQgDQY3Mp4T6m0ZvfK+GqPc616ivdqv/rsTud3jeK8+V95x//yLX4BjoRLABQNB7Dupct4BN7wrnN+ad1+cMq8U1gpmABgCKXaVjCfd7Tm8Ar7UdHBAsAluYxDSsLJ51ObwLL9KCZggUAmjymYZ0O8u40FuC18qNjChYAiPKYhvWmXGRulA8iEcECAFUO07BOH0JSCWmf3gQWad8zBQsAVDlMw5KuMQdeDzqJBjlTsABAl0EMay2d0R7YZn3UfXUhggUACvRjWAMlpvhJW4kOOVOwAECX/jSsTSl9Rur0KA6JHjQRLABQ9qo+DWstfl/x6QpdoUXOFCwAUCYfw3pWvy2xFm0eEMECAG3ilxKensKhdFfT6RJ9+R40ESwA0CYew1ofpGc9Di90W+kCmAgWACzvoHwSaWAZ+Sa0AA9ceb/4kyOCBQDixqdh7SRXN50M1mAKa+kA25oIFgCIk76UcK1+VeLwcdtlPyMRLADQpzwN6/mgnsEauBBp6QAbESwA0PegWwIPLCNKGazB87bLdu+JYAGAAd1pWOuDfAZruNhc8qxyRQQLAAyMT8PKcvkmqQzWyKes5KpyIlgAIEV2Gta+PKjPwRpp9y7YgyaCBQAeVGNY64NBCHr4Yy73nkAECwDuoAReLnI81NvVuO7+h0Jd7dVlvADuvvBfPACIEL2UcKiO0wpBD3fKF6vUmYIFAC5eJadhrYWvKf5RGlrvnpiCBQAYL4EVY1hDHWixEPTIB12oBz34eYhgAYAcxRjWYJJILAQ9PPVioe1zIlgA4ENxIPRgkmintgAPtnwXqdWJYAGAE70Y1mCSqFNbf4fHXnyTenBEsABAkF4Ma7CRqjWIcjQGvUjvgAgWADjRi2HVB5sFeDAGvUQPmilYAOBFLYaVy4NJCLodujVxmQdHBAsAvKjFsPaKw6mvLjrnb94TwQIAM2rTsGq90Zgf2Xb9i7071m0b2QIwDFdxGcEugvApDKpyZ1iV/TK3d2PV+xSGVHkrAamWL3fjOPci2VhDytbMmaG+7wUieIU9HOrnYfmrBQkWQGPqyrASKe9dfQN4Wc3N+40EC6C5I3Dy/9xfCw+S/b9k1rYJOp1Bl75ysQULoD1VZVj7D3Lf6pu/qfP6bS2XAg7AALWq6aWEiZTossYBfF/J9cJIguVLDlClijKsxJHya4UD+Pm+klsH1xIsgAat6zkCL2tbTP3uO+Zl/27pBOvRdxygShVtw3qq7+3E73xquewFgwQLoEnVZFiJ31RrjKCTJ/aSt8yXEiyAJlWzDSvxE3ClA7irocKSYAG0qqvkCFzHPGvvikGCBdCoWrZhXQ1tRdDJe+ZV/NkkWABVqyXDStxKrbLBSn7i2wquAiRYAJVLZljFbqamJsltnQO4hjO7BAugXXVsw0r9olrpCTiRQZda3SXBAmhZFduwtq1F0MkHgUvFa0sJFkDDqtiGtaznpRBHCJBLfWQJFkDLRl5KGD5KLiudv4kdVDtbsAAYV0OG9VTJQswjPYckwQJgXAUZ1uamuQg69ZnLdGMSLIDWxW/DqmOrxfFum9/FH4AlWAD1OwvfhhV/O/eo4ViZiwYJFkDrRjKsEkfg+/Yi6NSzy7exFy0SLIBGhGdYiWFSbQSdumooMYAlWADtC8+wEgP4otr5m4igbkP/dQkWQDPCt2Hdt9dgpX6ELTCAtxIsgBmI3oa1/wRc6yLKZIVV4qohmWDtHn2nAZpw3sVuw9o/gL9VPID3LqMsMYAlWABqlzU/AAAgAElEQVSzEJ1h3TTYYCUuGyRYAEwTnGFtrlrbg5W8bMj/7LIEC2AugrdhXTXYYO3/1Pn/XhIsgLk4iz0C77ujWvVPwIGf2hYsgLlIZ1j5f4nt2vsJ+Pm5j/rUm06CBTAXyQxrcR00yqr+CXjvL7EXUUdvCRZAe5IZVvZBuPm7sTcxvH7qZcwdewkWwMkcgXP/qrkngy6xhOv4t4KzP7blRYQAcxK7DevtmXLxXPkAfvMo+k/uf/bJFiyAGYnNsN48S1Z+B/rlcaCIywYJFsC8hG7DevMsWfsd6Lfr7aC7BRIsgFbFZljbmBchfrTevgn4vVyCBXBKR+Dsp9GusS0cr6674pcqEiyAuQndhtVfNfYQ8Otp9M98O/tlgxcRAszNyEsJrwsf7Br4BfjlCHxT+iFgLyIEmJ2/AjOsTX/VtfYL8OuP113Zy4blIMECmJvQDGvze9C0u7tuYwA/3/w6gRexW7AcgAHaFLsNa/nLbNldtjJ/v184dL/M39gtWF98hwGaFLsN6/sE7v4/f/vn53Ym8OLnp17kP7Z7ESHAHEW/lHD5c5QtVu3M35cJvL3puu/jd5X9/DuyBcszSACtisywfoyy1WqxuCwwyI78sTfb1d1qc53/Y0uwAOYpdhvWy+PAm77vr9uavz8+d3/dF/jUEiyAuQrNsF4frG1w/BYjwQKYq9BtWIwdgJ8kWAAzFZ1hIcECOE3pDMsMjL0DLcECmK3wDAsJFsBJis+weFeC9dl3F6BpMqxqSbAA5mwkw3IElmABkIUMS4IFQAAZVqUkWAAzJ8OSYAEQQIZlCxYAAWzDkmABECH4pYS8ZSvBApi9dIZ1YRjaggVAFg8eBZZgAVDemSeRmnoGSYIFMBO2YUmwAIhgG5YtWAAESGZYOxmWLVgA5CHDkmABEMA2rHaeQZJgAcxJZyG0BAuA8tbJI/CdoWgLFgA52IZlCxYAEbyUUIIFQG1HYBmWLVgA5GEblgQLgAjpDGtjMNqCBUCWI7AMS4IFQAAZlgQLgAAyLFuwAAggw5JgARDBNqwKXEmwAE7vCCzDij8A30uwAE6PlxJKsAAIkF4ILcOyBQuAPGRYwa6T/wW++IYCzJQMS4IFQAAZli1YAESwDUuCBUAAGVa9B+Ddo+8nwGzZhhXKFiyAk7W2EDrOVoIFcLpHYBmWLVgABJBhxR2AOwdggNPlpYQSLAAiyLCq3IIlwQKYOxmWLVgABJBhSbAAiCDDqnALlgMwwPzZhlVhguVrCXACOkdgW7AAKM9LCatLsB59KwFOgAxLggVAhGSGtXMPWoIFQBa2YUmwAIhgG5YEC4AAtmFJsAAIkM6wvhqYxybBAuAH27AkWAAEsA1LggVABNuwJFgABDizDUuCBUB5551tWLZgAVCebVgSLAAC2IYlwQKguiOwbVilDsASLIBTYxuWBAuAALZh2YIFQIS/ZFgSLADKk2FJsACIYBtWAVsJFgD/cuYILMECoLz0NqxLw9MWLACykGFJsAAIIMOSYAEQ4UGGZQsWAOXZhpXZU/IP/OgbCHCi0hmWbVi2YAGQhwxLggVAgGSGNbgHLcECIA8vJbQFC4AAtmHZggVAANuwbMECIIIMK1+CNUiwANhHhiXBAiCCbVghzyB98c0DOHG2YUmwAAggw8p0B7qTYAGQIsOSYAEQQIYlwQIgggxLggVAANuwMniSYAEwYiTDcgQ+eoJlDTQAL2RYEiwAAsiwyiZYnkEC4JUMq2iC9dk3DoAfZFgSLAAC2IYlwQIgggxLggVAABmWBAuACDIsCRYAAWRYR+RFhABMJcOSYAEQQYYlwQIgQDrDujBWJVgAZPHgjQwSLADKO/Mk0nHcSLAAOISXEkqwAAiwTmZYJqsEC4AszpMDWIZ1jDvQEiwA/iTDkmABEOCTbVi2YAFQnm1YEiwAIqxtw/qorQQLgMOPwLZh2YIFQAAZlgQLgACfbMPKeACWYAGwx7ltWB8jwQLgXWRYGZ9B+o/vFwD7jsAyrI+4l2AB8D7JDOubI/AH1kB/9u0CYC8ZVq4DsAQLgAQZVq5nkCRYAKSsHYGzvAdJggVA+gg8+BU4xwFYggVA2oMjcI4D8GffLACS0hnWrjdp33MAlmABMCY9SHRY7zoAf/G9AmBEOsP65ib0m1ug088AS7AAGJXOsByB33MDWoIFwLh0hjXcmsCHvgZJggXABOkMa9i5Cf3nDej0AViCBcAE552b0AfegF4MEiwAPmw9cgQ2gX/Xj9yAlmABMO0IPIzdhDaBf/sBeOSWgQQLgGkeBj8DT5+/q84BGICjGMmwhmHhDDw5wBp2j75RAEwzNlOGS2fg/83fxdjfyosIAZhqPZjAx5q/7kADMNn5MGECuws9af5KsACY7sEEntRfjc9fB2AADvBpfLAMi1V/0iN404/2zxIsAA5z3k2ZwJebE349cL+9mfJHkmABcIj1hNky7C5P9hDcL6fcfrYGGoBDj8CTpsv3EXzXn9wM3vQv47eb9AeSYAFwmIdh6gherfq+/y97d6+iRhQGYJgENtoKAQN201nv3oDEKlUI6AUIsd5UBtKYyqm3CFgnN2CVwpuL5t/F3Z3jzJwjnue5g3yZ2Zdv5qhfM2nvLr7X4/GoYn4dwQIgVGdb1aY3Go/H315frutfbm7e7P6ho5e9bfXZuJAACDTYBtj0MhE0FUewAAj3bEttS9cRAIG6A/2syxEsAMJ9FtC6bl1FAISvwAJqAQYggU8SagEGIL6OhFqAAbACW4ABsALjSzgAsAKfoY+uHwCswBZgAKzA3gADgBXYEWgAzo2vw7IAA5CAb4Q+Td+lA4AVOL6lKweAeiuwc1gneOXCAaAm57BO+AiSBRiA2jyEdgILgAScw/IAGoAUVpLqBBYACXzQVA+gAYjPQ2gPoAFIwUnogO+gXLpeAGiKk9CVP4F062oBoDm+jqMivwIMQJO8BvYCGIAUOgrsNxgASGClwA5gAZCiwALrK6ABSMBRaAegAVBg/QVAgdFfANrjPfCD/fUBYADa03UW2vkrAJLswAp87PO/+gtAy8qe3uovAPF1/Tyw178ApOAx9MH6W7oiAIijtAT/XX8XS9cDAPGWYAm2/gKQgA8k7bbf797+ApAgwZlvwX35BSBRghe5rsGbzcLDZwDSJbhbLgaDzCo8GPQX5dJ/PgCpK1wuMrIqrb4AAAAAAAAAAAAAAAAAAAAAAAAAAAAAAAAAAAAAAAAAAAAAAAAAAAAAAAAAAAAAAAAAAAAAAAAAAAAAAAAAAAAAAAAAAAAAAAAAAAAAAAAAAAAAAAAAAAAAAAAAAAAAAAAAAAAAAAAAAAAAAAAAAAAAAAAAAAAAAAAAAAAAAJy3ybx4awoR5z0tDAFADebFcL0W4Fiufs7bHAAyr8F0X4O1AEee951RAOS8+/6prwBHn7dpAGS/+wpwgnnbgAGyrUGx/r+/AtzyvGeH8xZggDxrcNBeAY5Q33sEGCDL3fcIAW7Jkfp6BwxgFxPgVuc9eWjeNmAA9RXguLuvDRhAfQW4zd13+Mi4bcAA6ivAzdd3/uS8TQng4k2erq8Ax563DRjg0nexSvUV4MbqO3/0ybMAA+RSg3VVAhx13gIMcLneVdvFBLghL4LmbV4AFyskBwJc3/OQcduAAQRYgAUYAAEWYAAEmJYC7B0wgAALsA0YAAEWYAAEGAEGQIAFGAABRoABEGABBkCABViAAQRYgAUYAAEWYAEGEGABFmAABFiAARBgBBgAARZgAAQYAQZAgAUYAAEWYAEGEGABFmAABFiABRhAgAVYgAEQYAEGQIARYAAEWIABEGAEGAABFmAABFiABRhAgAVYgAEQYAEWYAABFmABBkCABRgAAUaAARBgAQZAgBFgAARYgAEQYAEWYAAEWIABEGABFmAAARZgAQZAgAUYAAFGgAEQYAEGQIARYAAEWIABEGABFmAABFiAgUZN3psBAizAQFRXk3kx/GIOCLAAAxHrO50X+/tWgBFgAQaimc6K339NBRgBFmAg0u47K/7dtwKMAAswELu+AowACzAQo75Fcf++FWAEWICBNu2PPB+5bwUYARZgoL3d93h9BRgBFmAg9u4rwAiwAANp6ivACLAAAwnqK8AIsAADDdt/0WSF+1aAEWABBhrcfWdFtT+XAowACzDQ1O67q+9dxftWgBFgAQaaUYTctwKMAAsw0MwCvBZgBFiAAQFGgBFgEGABRoAFGBBgBBgBBgEGARZgQIARYAEWYBBgEGABBgQYARZgAQYBRoAFWIABAUaABRgQYAQYAQYBFmAEWIABAUaAEWAQYBBgAQYEGAEWYAEGAQYBFmBAgBFgARZgEGAEWIAFGBBgBFiAAQFGgBFgEGABRoAFGBBgBBgBBgEGARZgQIARYAQYBBgEWIABAUaABViAQYARYAEWYECAEWABBgQYAUaAQYAFGAEWYECAEWAEGAQYBFiAAQFGgBFgEGAQYAEGBBgBFmABBgFGgAVYgAEBRoAFGBBgBNjABBgEWIARYAEGBBgBRoBBgAUYARZgQIARYAQYBBgEWIABAUaABViAQYARYAEWYECAEWABBgQYARZgAQYBFmAEWIABAUaAEWAQYAFGgAUYEGAEGAHmB3tnt9o4EkThYGg9h2mwQW8jDBL4Lggs0NsMDRbkbVf2zM5kfpJY3V2/PrUwF3sRyq1T9dUpyTICAEYgAGAAGIFAAMAIABgABoARCAAYAQADwAAwAoEAgBEAMACM80IgAGAEAAwAA8AIBAAMACMAYAAYgUAAwAgAGAEAIxAAMACMAIABYAQCAQAjAGAEAIxAAMAIBAAMACMQCAAYAQADwAAwAgEAIwBgABgARiAQADACAAaAAWAEAgBGAMAAMACMQADAADACAAaAEQgEAIwAgBEAMAIBAAPACAAYAEYgEAAwAgBGAMAIBACMQADAADACgQCAEQAwAAwAIxAAMAIABoABYAQCAQAjAGAAGABGIABgBAAMAAPACAQADAAjAGAAGIFAAMAIABgBACMQADAAjACAAWC1HSz008/o+w5KQnwilGOMx+M0XbQIxTGAu3thHu+Feen7YCjzru8vt7TH9b97+hd7nQUAtgvg0P8fqqsm9MMY/9TZ2mBXDkMPZBRb42JCHu/iJpT4Q/rpvVDE+45PAPf99P95/+o564Ff5A/8K6HclBL/efjr/58MtRYA2CSAb63qmOLPmlm71EXnxfkHfN/VymSPwd2dbZdpuFzuhFM0cq8NdRrHeOtNqX3fUu89SXnxfiEU2ewdAjhMHxDsLpnjRatcwmdCeS/66dIZuAwAsDkA/1Bg+3eXOmprsv0YvywUEwy+Wcrhthhd0Rb/+AAptuN96JYzmmFNbk3tLon0McVWa6PV0qxCSYqF4g3Aof8SYjEqBNhq2TcQS2FHBICNA3il72eXbO2xmjzNQ+pKmnL+V6+aphjjY/U+sSNuTW98vCnpnHf0C8UXgMMQHwOYLrGsnv1tc6Sj8PIEAHYE4PC1o3yLSnDWb5hV40VrpxrjxqKPnHv12z28dmtH0nbYFoTiCcCP4vc7vtS0/K+3aZ94eQAYUQ7g/jGj8KZhd/RornoRHPpxM9ze39ymvga3xwBy01NkCvpxY+4i4nYE4CFudJC9Dpnk1qKmTwEAGwZw2CDB+Cr8MTPKRRWCQz7dft0NIHTC2+6FKXY2VoTiBcBhtKiVQvyqsSUAsFkAh20SlC2aPpqGQhhifKsRRA+TFljzd/3ooOC0BytC2eaAr2rbz6nNY5fw0NBWKceo8W4wMYCnvOiq/t2t8gmVk60A4O2dKsqJLbtekgYTPFQq918PgVQ1wv0UK2UmvnIIJ3mhDH+V83Ecp+Nf/2xL719/YcM/ea2FxP7+CMnZeKhXjwoRTAvgkFlfddNOtFlvWvdmATircKRoFkoAcZRmQjW8/f7YU1ctvbbmbCB71lFB6uc3zfGqhmRis3H+0PDB4uepALzLO6V93bQX4wDOLRwRrRXOq4LGvc6tpg8fAin+YKF+elHw0RQdQnkiABeSTOaWxVC9IpU97kkL4DnvjLq6aRt3wPltV8DhnIpRJVYfQyRtpoU2mMSbC5528TBRJ/WnAXC5kxRYQ1e2vwr26cwAziuypfIfNu2AizTILrUKBZNEjHsgxm/hc0/9SJWe0EpOi1CeBcChgn7SK3dREok+HZ4EwDsy2T2NA27KjAIvgSsNrEeX+M13bWEYCXOS8AOVhHIAgB+MwjYiQ+D662e5WUIGwHnqTrXTNuyAiwuHE2bVBlZuAjPh9+6Ct1f+RJydwJd69AjlOQDctAa5Rcjft6TGBJMCOO8ED7X/sl0HXEGDC1t7DfUKhnVsYMTvff216YKEkWE1zkxgTUJ5CgDXQxnjMwMn4rNVcieYEsBN3sl0tdM264BNwaxiW+UkMC9+N362Wq8gUEVgVUJ5BgDXtJJsBD6RH66Ktw6QAjgPNkv1tNNTA5jpMZvQSlGqbBnasl+PpAy/NwJb5W+xup8AwE3VA2faQp84CvHgHMAtnejggJUROMwWkx5bgcvxoBx7zuSOVvlbKhT/AG4qHzgLgU9Msu88AzjvNVipftpP7oBZSqb+c7r0BB5aka56lQGVEgIrE4p7ADfVdZQ6L/x95JVPhgG8IzwSOGBdJUPwPRnqsaGPQl31G+H4qv1GhTqheAcwxRxH3k74JmPXAM5bSnb10352B0zvb0gmVtI6l9k+byj6YK/ZWxSKcwBXvzPE0U6aVlkt2gRw3ux1JUj76R0wtb8ZiIw7YcZRrqsqBTDDZpFK/QkA5ls4kLcTzpsvr44BvKM8EThgRd2VbGKlmrTDqL+rsgOY4WfkyYRyAIB576VSgmtmPODOMYCzpJ0o0oYDJu2uhBMrzYZoakW7aqcUwOS3gTUKxTWAG7LECAf6k75atAnglrKQ4ID1dFdCO0nxhogQZZtqUgtg6oXc+KYPCJ4BTLnLJRvoG9ZafPEL4Ia0juCA1cyspBNr/ToXtr8PF33Qm5onoXgGMOkul2ig5/32nWcAZyn7SpI2HDDhzEr8yGLlOpe2v7oBTLqE1ikUxwCm3eUSfUtw9tATVQC4JRUcHDDjfTLJibWucRd69UaOGkUATPnda51C8QvgxiK8mNvj1S+AG9prCgesZAl9erNT57IPP28sehEAE1oCpUJxC2D6XS7BuoT59W+eAZwl7D1N2nDAZBXD8MhENeOuwf4+fhWCuZZvUihuAczwa0L1B/qZ+Xz3fgHc0l5ROGAVFcMxsdbKmnu6Lix6IQAnFX2GTyheAczxMPFicEp7FgBnHeWBKG04YKqNC8t39ioZ96CkqeoGMFFPOmmVt1MA80ybr/amtGcBcJauqR7xggMmqhieibWSBQ62mqpUuiQWuFErb6cA5nmbxWJwSmO54SIP4Jb4csIBa6iY2VLWWgDcKU+XwhXoFYpPADcWtSJwj6jzCuCGWm1wwApGvp2prLUAWHu6BBZYsVB8Ani2qBV+A5zcAvhMfTHhgOUtMN/EujgCcFKfbnULzCeUBADzomxvUSW0t1tUALilvpZwwPIW+GQrawBYqi0xCmUPALOirKKHPDlQuhYAN+SXEg5Y3AI3xipFCYAX/QCubIE5hRIBYF6UVdNKMN0MlQE4R9VXurThgDOWGGruM9WqcyUAvupP1+ajenlCcQhg1l1uNQt8si90PQBuybUGB0wNAE2+pkqpAMAS9ym4hRIBYNaBp9q39FvDvVAbgLM20IRpwwETjKyzNSYoAfDeQLpVG5NuofgDMPPrpCrdR5UwwG/fnAL4TNiX4IB1jKzcn2MBgA3uFfl5sFUo/gA8KxV0/aWpktT1ATjjMBNl2nDA9UfW1kIv0gjgVwvp7qUaDLtQ3AG4MdlPdtZlrgnAORI4UKYNB1xddvwfY3EC4M5CuvW+n6FdKO4APFtIUocB1vAmSgoAnwnbEhywhm2uRMEUr0UBYInWpF0o3gDcmOwnje5aNAbgluEawgGL6k7iUxxcADjZSLfWT0erF4o3AM8mstRxFZJPADcclxAOWLS7SpR5AoDt7aDVC8UZgBuT/UTop7o1vAiLAMBnjpOAA5YUnszGaO8BwIuRdOvsoPULxRmAZ5P9ZGe0D+oEcMY0c6BNGw64cncVKfPSe006AHw1km6drwLrF4ovAAvdS92blImKF2HVB3CGBjJ28XDAgt1VqMwL710DwOzuwIBQfAFY6NMYHY19AvjMwgM4YMHuKjSwFt5r0gHgvZV0a+ygDQjFFYCF7qWWikWqJ15dArhluXxwwHI7I6M/FQ8Ac3cnC0JxBWCx5nIwOaftPQI4QwMLddpwwFW768lKP9II4Fcr6VbYQVsQiisAtybFIqZ0lwA+85wDHHBZ8ElGzdwAAHPvoC0IxROAdzbFIpa2SwAzTU9wwGLaE/wEyT6AOzPpFn+704RQPAF4lku0ZDSebZyuDQDvmFgAByxWMK1g2nvrAE520k28rUVIKI4A3NgUi9iTYyreRFkbwNunmbz3gcEBSxWMZJkXfXEAAObtTzaE4gjAoh8lfzSW64gv/gCcMc1c6dOGA664fhEt8wQA21g3mBGKIwBLbhwKVmpni81EK4B3XCSAAxYqmNBahYIKAC+G0i37IpIRofgBsGxnyf9hAzGdeATwTNiR4IA1qG9nFgoqAHw1lG5ZgxIWyvJ0AJ5lU92bK8vFH4AD23WDAxbaQc9moaACwN8spfvK11jEhOIGwFZf3LIzl7FiAO/YGiocsMzEavjbqcHWqQerErElFDcAPgmnmtvJ5S6AQwDPbDUOByyzgJEu84KqAYA5d3RWhOIGwK2hXHXkvXcH4O09I/vWPRxwcXS2yqV4Bx1sdVQF6Sa2viKXvBcAN+K5Xq1VpT8A75guGhywlP4aSz1JI4A7U+nm7/vNCMULgOU/R964trPVAHUDuOWrcDhgkYlVQbvaWwZwsgXg/BZlRiheANzKJ9sZE8qrNwBvbxkLT9pwwLUmVgVlvpgGsK10r0xtRVAoTgCsYOPA8E5hBQODZgCf6PQFB6xCgBrKPPuxAQCYaauoReXdEwFYw8fIGY0lX9fy4g3ALVt9wwHLTKxnm2nrIdpiK91sk2BHKE4ArGDjkNXOG1vpqgZww9ZK4YCFJlYNZZ7/Ek1buRv71pQaX7PxsH0AuDGVrY526A7Am6Wc//pQOGARBTY20waAuQG8syMUHwDW8Sky1CKY+OINwJun3gNX2nDAdSZWJc2qswvgvTEAZzYpQ0LxAWAVG4cctcz2NmlaAdxwNVI4YKmJtbWZNgDMvW0wJBQXANaxmspZaQoqxRuANyt5YUsbDriKBBubaWsi2qsxAOcNyZaE4gLAZ1vp6hD53hmAW/KrBQcs62/KyzzFNVrmtDURrbMG4KwitSQUFwAu95G38478TKsyqsX2JpZInqxuAG8Gy8KXNhxwFX9TVubpOPV933XrP9PYMqYNAHPbhApC6boQ+mEYI/VxewBwoVTidD/wl1tllk09m3t6WTdM8TgN/b2r3NrKqpdpw9j26gvAM+8AAgfM3l5DUVO9/C6dvqS17q0COL1YA/CV+aBTvPz+t6iF4gHAJT0lHvvfD3womI4376bOBUI53oaGv6Nb5/uHKOwLwJu/+ZcY04YDrtFeCzL/o8i/H3J+oR8AYKV3KewJxQOA5/zLO/2jozcj2x2L3Mzj1H9ePA8s2TpXAN5cdHvGtL054BTTGMcK92wSR7G8xQ+KJeR+gMUqgBd7AM5oU/lCufALxQGA85Vy/ODqDrkjD8/3KtLlAVX2Q6R0gNoAPDMUNhzwrUmtw9/3swsv/VQKYQ4gHD++1CN92s8H4NiO8Xic7lH+ZE1H3VIohfJAl3EA4NyWki4fiy9TNlvvWNTWyR9zxGc22BeAA/WVggP+rr0/Z78wRPICL0r8kyq/lQjPpksLgK/E6ab78zS/G4HCR962b6pyn2z9VCgnKqE4AHDmR/h0Ogl5I09ikMqWG1DD+CQA3tydu//YO8MV53EdDJdAAr2LUGjBdxMKM5B/YWAGcjcl0ELu9ux87Nnds6fzNVL0yrKsMH8nca3XevzKjqPZbCcOeHm2QvYHgpNKeuUN89/z94/EmnSoYAPAPa65y3dppP0pmyaVJiOF8g4SigMA84J7epGCeQQe0ABeiBtA3k5Jch3LKoCpGnioNtuHA768CdeLaHFgDfPlZd+wrM09ALxVHLsMDaureUL5zCSU62nbRZ0NyVwThmKbqvMfaIWzkiF9A+YPNcK7JwCTNTCpNtuDAz59ItLrAsbX5+sbX6HNrgXAPYRfnK4uTSjtYdjwR/tVj033fP1QXEbZsDreziuaj1cF/v5UI7x5AvCokUBrdsDLBVEvopSMWO3eNFw+kM22BeApH4CZxX76UC1fKPujoVre5HBy2aJEzkclab98BMwbtq7B9J4ATI1Ur9vs4h3w6wLdjEYC5wGXbb2dsCQzBOAhI4C5Hpia8sbihfL0sgtgzsTqc9OdOUu02LkDO5z/b4I9AbiDRikc8IZ999xPoPfAYb51utoBm20LwIecAGYSeMLzwJhQynLAnCXgy8Z7MxQzILWyZ9323xWgyRGAqZPes3KzC3fAm4ZLxyPwAzjMN/cLfZzfiwTwkhfAGttqWL1sTChlAZiRULYXchNWLgnV7mfX2wmyOGEAwK1qP9bmgJdPVHKidA10vyLdvi8ZAXw6nS5fX59/Xl9fXx9bN8nmBjCrTNLDeXCHZWy5tz3tAnhGhrTDykV5NvU/dWhHAG6U+7EqB7yVv8xl4K2ToRl2Z96sZMgB4G/yPn/Xtj28vb8+duqRGcCsc0+Io3WECoUOBPdrwPRJFaV1V+TNqSNyNzPfPsRnZhYAPGv3Y0UOeJmAyYnQeHAtSmM3xj4Af7P3pXDb33+J5Y5r7gTqZzJM6EI5WxNKUQ64gw15XnVJ5wAAACAASURBVNFkwbVdoFf/fiPJEYDbddVXZyUOeKHcm1WE7kHwWrBppNcE8K9Pn22fZr//BGEggHtYul7AnWxPKEUBmF7yv2Pvj6tniITyv2cmPPwA+AqcgPlzwEfcrVlLfHfQMCeOlhmaRXYB+NWnz55C+OlnMvrsAOZUiME8IAplxAulKACTSwLE1RtyUplQYpHYOvRrHebkDMAJOaArd8C0dnMs8AOTt6lR7iDN3g/g5fLGTdnvH8kegBkWeEDyET05Fku0VgFMnnRTX0FpcBOqJk+n/jqWw8pJlPsB3OECVP0aMHq2urlvyDcmR3nG5m0egE+f+2bd7x8nfj0D09/0VeAJygODQinJAXfY+RQjqdxBuVDy5Iz2Y725AfCYZUAU64CPQACzLPCAYNcCzyQDOIeu399+FBjq//TBFgCMrRG7EEpJACaHk+78iEnlgWr8JNlv79PByLUbwGnNMY8JByxlgSdA0uMctZJW8HAkRvX0KTTC3r5OHBaAAIz1qI2CUOY1Q962CuARMdx3jZsF1fiDz2svgKmv1QwZml3sGjC5t+h7bDbl1yP1powoNzgs4KP6ar59Sit2P3GPkwiFkS6E8vQyCmDqdIrTshkV0hEE9qoAPONGs0sHDC1Bc/bY3OWHIGuYE907vZSWEcDfRwAkKIAnFL9oPe1CKAU5YHLJnzMdaVADZ7Y5qSkKwOqHmYQDli0wbuoc6l1Z8BrBOS4rgL9Xgy/A5vY4iTyA8jMplIIArPMZnASS4qw/kXIH4GbNo8xYAxbyN5u+Wa4yzDvwMzIDGNtcAoBnXDR9CKUgAOucAkyb8dwCwIoATpmyWrEOGFuC5rxrIz/MzwoxDQBzAdzgKKl0KnzSB7DRNWDqZIon6g4U1ADwbgDrn+YZDlh2SG5ZFRhVhjnxMei5iVsAd/IC8SWUghxwgs2lNLJtAHg3gIkjrs/T7IrWgCHvec46w7zDJu8AMLNIMmAyqlmhlANgaii5EBsDwEYBnFQGnCcHDC5BM2rQvbBG+EMlQSdzAWBeOAk9oSSUFiuUcgDcrTqa7jATtmSxT4sCcJ5X8sIBi9ag78LdwUcXaaJ9PhiKalEAHlfQsFUTCknjN5FwmAQw9RAGnXQ7QcIYAH4C4Fkp/o4cMBzA8p/QVhvmDXRAugbwhEvbsGMulYRy14+GFiyIUyl+T8wQvaRc9PACYGJKO+dqdkW7oBl7bF4q+6o1zFvogAwHzFTIZgvZ+BBKOQBOK0wkOyK7+THzDvYEgMmZeRlyNbsqB0xe4ltkx8mehYYUAFYAMGzrzuhDKMUAmHr0+6Dz8++YTDUdXF57AJww49i1A8YDmLwIPIhKZM9MdUQ+JwDMDOgDdF+rQnl6WQSw4kugCfGcWWu+5hTAjdp4c+SA4SVo+otIk2Tu2WU4mgCwBoBnTOJunQilGAdMHOl7lgBnRGBni51aEIBz9l84YLElvlfJm3i/u1aamwxFtSwAjxhSehFKMQAe9RTd5Aew011YfABnTWixBixWCXyVvDXfNUvABwWAmRFdMLc1K5RiAKwIsI5LCcFKzHTwePEB3OTUZLEO+GgPwC+sCHET9KCVUm4BYFsA9iKU/eswD4u5+6H2+ydAEFevZ2HxAZx1D1s4YLHK1KuRqVkoaoDjMd4DZvbEVlRqCuWqnLgtOmDVDyMjSg7zqqgYdwDusnZerAGLGZxXsdEc5l2hUS3LAR8wANY0ZI0yDi0CuNMU9AgQI9Up9AeHFxvAY9a+K9YBK5Sghb/KqjlI2kKjWhiAEwTAXoRSCoBV30KhPGzrdmvhUl1dAG6hCAwHvAfA1EXgwQ63UgBYAcCQ3S9uhLJ/dqFDCtJcfm8vUOz21ioYFcAuLTAXwLTp1zlrsytbAyYfxTGYmWdTmk7tnAAwN/NN8srWFIrEi8AWHfCo2aYW8CjysfUeV4G5AE4KIPHogBVK0LLfRW9Uh8iIQ2QAmJv5tt3crlCcApiWum96TwO9t4YwcsUCuMvcb+GABYXdy9F8747TJgCsAGDIG7tuhOITwL3e03AAlndypQJ45P1bOGANAHeSAJ5Vh3mDe1YAmJv5tpknN0J5etkDMFHPe3MwJbwwADvch8UDMG2fzz1zsyvbBS37uRvdeXYXAGY1d0J2xR2QSQwLpRAHrPwe6FEe9gwA+ytC8wDc5M5l4YDlgvrbBNvyBKLhNO52olqYA0YAWFkorW7SNghg5ZMIATX/jgHgZTr4unjDJuWWY6wBy1UDfxsgWl8smoENALNNXgIA2I1QCgHwVT6GUrScICPS5zIwC8Bd9lRWrAPWKEFLfu5G+8CzGRbWADB31D+kE7QygCV4aA/AI1Ig+/TYQ0bkn9clAEyL/ZK92dU5YMHT9mm32u81AsAaAJ7leeJHKIU44Ll4AB/WIDALwK1u6F05YJMAHoQc+3rTnNcvdqJaGoBHsQmaQ6EUAmDlzRmU590gP8HnRixOGK/io7ceB6xSghb83I3yPJsydwgAWwLw6EYohQCYJmfVlHuHwMcngTkATrpDrWIHrDM45QA8aebV1U5USwPwVR7AfoSyf0Q9zOlDYA4yywN4ZgJ4cURgBoA75chHCRoc1d/9Au1CVwN7WrwHzF2jWECJxKhQynDAnXaLRvmnjSuXwJ81A5g0bzkbaHZ1JWjq1LLP1NE788pkJqqlOeDcADYtlDIArL3pDbHofl3ZBHbjgekAblUQEg54T++NUgBWL3QFgDUATHxnaJBurvKqbAC4V30g7jBof+vAdABflWdeNQOY2z3EqeXNTqGrhWWVADA3rFtKuI6E8vQyB+DRAYC7HQD28jYSHcBJeOhGCVoewMSp5d1OoYsS2QCwHQCrC6VNmvix54C1N72RADxAhuS/CTwcHFxkADfaGbliB8zevtnlAfAtAFwGgNvMADYtFI8AFmBVB3hc2kXg5a1GAM8msliUoCUB/LBT6KJE9mwmqsUBOEmn76MfoZQBYFoEBR5oD8AuNkNTR2JnQ4h1lKBXnXwhBuBJN7J3M1EtDcDEYb+hLxwJ5elVNoAXZUFuje+47rzKL0NTATzaSGLhgCXDuthZaUK8718BgCeoPibRsJUIYHMOWH3XOQTAx70AXk/ToeyLCODWiA5jDVgHwOKlSslM/jAT1XDAsx+hOATwQ/mJPSQbuixDEzNsg8wKUYI254Bp/RwArhbAjoRSBIBpuzxENsMC5NiuAlfZZWgigJMKPsIB73XANEPyc0JUX2lCnHgXALYGYIkOUgWwuTVg/fcDIdvOkwSBiy5D03rgikwKAWC5REXc3TCYWWnCfWYuAMyeoPXCrbUtlCIcMA3AZ+Wc22N0+GN8Cz6UgwZgkgEerDS7vl3Q1N0Nk528cwwAuwewiFDqBvARKo+9OfcGMgoOV4LTirrOZppdoQNuZH5CFwD2CeBR+O5dAFgXwKNpAN9BeernCBdrgmEAhhrgWAPWAXCGlaYmAFwggDMIZdQYR39d1gA864sZAeBWDjinMs/FggH4bKfZFe6CJh6F1RcJ4NVMVLMDeALSSx7AN4kOovyEQTca5gA8KOfcRw7+lGmCYQAe7DS7QgecBcCnr4+vy96/D5TGwgEDlxBpQnlcLvuVkqoGMC1vX04f//yDd/j2DhglmXMaAsCibqh2AC9KCePHDHtdTV8BYCsA9iQUhwBelzX99afQ3w9MPvS4FytZlXyUoA0AeAwAB4C33H10DuBD4QBWvhbUqHzt9YcAsIYEwwG/+Am0uJ5FVprUrykAzARwUxeAJ91o4AHcegGwOIBKM8HJqOIDwLvWgIlxvQeAA8B77j4HgHUBvHoBsPzUrSwTjAHww1SzKyxBB4ADwAHgALB9AHeAp39WD+DJVLMrLEELAdh2oYuGnQAwEMCehFLCGrAfAEOkU5AJTrn7PwAcAA4A723uFACGAtiaA+78ABhSPCnn+wzJpN6jBL0XwLNIxggAhwMOAAeAydeAkqK7MjRi5CzGml2jA5YB8BoADgBvufsaAA4A8wCMqqYXUoZOFuUeAA4AB4ALAnDrHcDW1oAbPwCGbeBbpkoBvFhrdo0l6FEiZG0AOAAcADbogD0BGPZblnOdAO6tNbtGBxwADgDrAbgLAAeAuaMHeKhIAWXoAHAA+McHdQFgpwDu6gLwLQBsF8DIY9Tsf54BUYIejDW7xhL0sQYAnwPA4YDFhVLCGvDRE4CR6jG/GzqZlHs44ADwhuseAGa2VtgBN56EUoIDHj0BGPsS26U+AMdrSPkB3EhEzHpeDQdspAQdAA4A7xg9WPnYXghO2RNjlKDzA3itIK8GgAPAAWCTAAZ/22kZagNwHEVZmAMOAAeAA8AFrQH7AjD4Wx6LZQJj5h7nAHAAOAAcAA4HjLlm4x3eI+XIQPBUGYDhU45iAWy0BD0EgAPAAeAAcB4Aw3+PXQInGwEIBxwADgAXC+BrADgAvGf0wN+3MEtgEIDRFjgArAHgawA4AOwBwPuJGADGGrBUK4GTlQhECdoegMcAcCEAngLAUCJac8DJG4DxxTajO7FQkVwCwOU74NFTXg0HjAPwGAAOAO/zX6lSAic7IQgACwK4qwHA4YADwAFgHwBW2G9iksCwSC4B4ChBhwMOAMcacADYxrL28qgJwFgLHA5Y1gFPAeAAcAA4HHC+5K9x8PylJgCfAsCll6Bn48M8StBGADwHgP/D3vmuOI7sUDwYHOi3MIYM1NuYQAL+ZgzT4LdpAjHkbW/v3rs7e2f7T6SSVFLV8S7Mt3RVWaWfzinZBoBz1ZdFEJ0aArBqCoMFLWtBQwEDwFDAAHDJ3N8npwOLeid3ADi4BQ0FDABDAeMM2Oj80eJhNneNWJp3cgGAiwG4awHAUMDc0UIBQwG7A7DJrPaGALwDwMUsaChgKGAoYAA4FIAt+rC8HQOr3skFAIYCBoABYAAYAH7mWi3GtrQD4B0ABoABYAAYZ8AA8FNBbzEvX8fAujOeAOBCFjQADAADwFDAsQDcoAmd/GRIKGAAGAAGgAHgdgFs81mPpRkAq6l9ABgABoABYCshAAAbAdgklG7NAFhN7cOCBoABYAAYZ8C1AdjkGPjUDIBvADAUMACsDuAFAIYCdnRl7B6LY2BHfVjad3IAgCMAeAKAoYD5vz4DwACwVNq3OAbemwHwDQCGBQ0Aw4IGgKGAHRF4aQbAAwAMBezhKAcAhgLGGXAEAFu8j+PWCoCVghEABoABYChgKOAaAdwbxNMQEsDJ/F7Agi4I4BkABoChgAFg66Rv0Ao9hgTw1YsEhgKGAiZiBwAGgAHgGAC2IPAQEcATJyVPAHBQAM8AMABcA4Dzn/sEgG13jz6Bx5AA5jykdQeA7S3oFwC4JQAvAPBX1xsUsO2VL7r0CbxEBDDHldR46jlpcqwGBUwE8AEAhgKuF8ADABwNwIeL9hz3kAA+lgh/WNAAMADsGMBnABgAlj52VNfAS0QAsyQwFLC5BT1L3CEAGAAGgHEGXAbAh37UHeQ9JIB9SGBY0BYA7gBgAPiZX+9qBzAUcAEAH3rdN3K4eCM0GcAcCbwDwNYA3gBgABgArhXAm+/1FkPb6jssigCYI4EXANjYggaAAWAAGAAuBGCxiZ41tf4eEsAc++MOAEMBy18LAAwAN3kG3AyAD9fkJYG4ATBnt00AsC2AEwDcEoAXABgKuEoAq7Zi3UMCmCOBTwCwrQWdJDIGAAwFXAWAl9oAPLcDYM1WrFtMAHflZwoFDAADwG4AfASAAWC9dK9nQw8hAcyRwAMA7BjA95h5dQKAAWCbmwkAl9Rbajb0HhPA5+IzhQX9zRQAYAAYAGYFSgQF/OJ7veUXQOlVL7eYAOa8JGwpOOz2FDBxCneRXwGAWwVwDwDbArhrDcCHo44IHkICuLwEhgUNAAPAADAA3AqAD/2qcRJ8jwlgxoaTfe9XWAVsZEETPcEhZl49AMAAsAmADwBw+QW4KIjgW0wAc55DOzkYdjMKWAbAtLTzGH+8/7eOq9k/ADB3tMIAJgbKzTJM/vjf+G64A7DhnvzzHy1jV0EELzEBfCxcawDAJgBOwnk6DtGggEm/XlOgRAAwcX9Ph0qui/gzwaU9aC7JGBJ4cDDsVizoDgAGgAFgALgyAB/6s7AILu1Bc0nGOITYHQy7FQXcyUwBAAaAAWCyx74jmBWnLiyCCxcnbJIxCpGl1LAXP9FtBOBZZgobAAwAP/PrtEB5gwIGgPlzl30xVuGsxQYw40mke6lhOwLwi0sATwAwAAwAA8BBLslmrMKHwGwAc548mAoNuz0FvJUA8L2iHAoAk359rihQQgA4NQ1gySeSCh8C8w9TZ/pch0LDBoCZf2cGgAFgAPjg7gy4/kP37y65Zqyp6Dz4AC76JJKqN1qBBZ1k7svZW94BgGVGWxbAe7h03wPA7m6JVDNW2cXJaCfe6HMVy2phAdyFAnAHAEMBP/PrHQAMAFvfE6FmrLJ+TAaASz6JBABLzgAABoAtAXyLl+y9bQRaAjwdqrxkXg9dNm1lAJjzJNIUIf7iW9C9UAjWlFcBYACYf3lL6dUfuj93iYjgsABmPIkkVYqptufGV8DE8/m7zO8AwM0CmBgoU7RE3wPAXkVwPoCLbvUcAHO+idQ6gG0UMPF04E1oJaZ6cigArAjgeK9GdAfgF28DCiyCh5LDzwFwwRdCz1EB3HkE8FAJtADgUgCu/cUQ7gBcvedvKIKL+gNZAC7XhjVr/tH4AJ6lqqKKmi0BYEUA196VGxzAj0PV1zlPBBf1B7IAXO6F0GEBbGNBbwBwWwCmjhYADg7gZj+H9PFqZBG4qD+QB+BiL4SeNVc4vgJOUjNIBe4tAFy9Ag7XFOQOwI2/DFrWhi5ZnuQBmNOGJTLbFwBYEMCTkJTe68mhADDt1ysKlBoBHM5yMLWhS+71PAAXa8NSPQIJb0H3YjWRqtMAANcD4IoCJQSA8SosQRu65OpkArjUC6GJAJ7cpGoTBXwUuyOzFMkB4LoB/AIAewZwvQ8C/+Mesb+QVHJ1MgFcqg0LABZcnZvYLy3V5FAAmPbrFQXKh3cjeQPwVnfFw7pJa4MALtSGpbrfj4o/bmJBE2/KLrbOnp0uANgRgMNZoskb7gDgDy4mgW9RAusDABdqw1Ld7+EV8CZWERFrkTcAuFEAH+sGcO8OwLTDodqfQ8ojcGQAF2rDAoDlbupX2JT6qgMArDtc6mjFAVxRoMRQwLVbDqYEnoIE1kcD7YoUHMSC++QmVZtY0HIFEa3yd+10QQGrArieQKkSwC10YfEJHBnAZdqwjprhp3kGbKGAj4K3I4WJZAC4JIArCpQYACZu8po/x5BTCRbf7PkALtKGpep4RbegO8HwI54wOHa6AGBPAI5midKm5y+cG+nCYhJ4iBJYU34kyLRhqYZfdAua2J/xpRqZrUsrADgmgOsJFKU8WXZE1b+Mkm8ARgdwmTYsTQBHt6A3wcWZqym0AWBPAI5miYYHcDTLIeOie7JvoQOrRBsW1WeYvKRqCwAnwZtBvbmT220JAKsCuJ5ACQLgre6Kx9SEvocOLI7pvtiOm/b3glvQ1DOBXTKv+i20AWBVAFNffxpMkSV3wVOPN1VeAu9RAmuSCAWRkkPTgAluQXeS94JK85PbXYnngFUB3FtnAM95cnBImeXQzpXaAjDniwyT7RIPXlK1AYCp9dAgmVf9FtpQwLoATrUEShAAd9WUxuXXZp+CBNYkU3AIhOimWG8Ht6CT6K1ItRTaALAqgOsJlCAAPj6qrnhM9VnBz7iJALhAG5ZmC0JsBUx+LGyRXGi/hTYArAtgaqC8hcrom79N8Ki64jGVwNEBXKANa1PkfewzYPKBwCRqaLsttAFgXQBXEygC+ebuL3W35UFT3xNRbrfLtNdvdABnxugsSpmaLGjhRNjVUmgDwLoAriZQBDLc7m9IjXnQW1sA5njQeapfswcwtgUt3AHYGVdWAHArAL5XnNAthjRXXfGYetDhAWzfhqX5fGpoAPfCeZD8e14LbQBYF8D0QJkCJXSHAK674jHdPreh2ECFAMz4IsPNNPre1LKTMwu6Ey6E6Of7Qw1bEs8Bk+9oLYEiITctagu67Rip4rEFW3gAM77IkJfiyE96taKAN+k0SM6rTl96BwXsDcCRDiVnf9FDz7kttWHNbQHYvA1L8ym40F3QSboO2mwrKwA4KoDnSgJFYnKDv9wdzfQ39QfiA9j6UWDhh23MUrW2BU1/K5m80+VTAgPAygA+VxIoEpPzCeCWJPCxMQBbfwa5V6y2IyvgWbwMYpRWLpUNAKycnmoJFInJmfQ70S2HhiRw3xiAOV9kyCqAFWkf+QxY/sSW8abvHwBwgwDujTOAZwD7bINuSQLTFGEFAGbk6ayuvKS31wN3QdP35F18pZ0qGwBY26CrJFDCALjER3DiXK0BmONBn8wGTtoSgRUwvWNqUPhNl8oGANYGMCNQwjRCUyvbyV9EO5TAR0WvrDUAWz8KTN7tk1J28gRgxpb8fvSMwwWPj3jiOWBtAFcSKCIAHvwlb4cSuFMcT3MA5njQGVlu09vqcbugO40NyThq8mh1QQFrA7iSQBHJbiZdWAzLwZc59R4xt58eFqcGAHPqsYwwnfX+VlwFTL8FN/nc47TbAwDWBnAlgSIyN59vg/Z27P6HHLkpRUB7ALb9IsP5obYlwp4BdyolEOeoyWF7DQCsDWBOG0iUPizyJrBQ9hzLwZXn8N8K4ofKiNoDMCdRD4bBN+lkJ0cW9KZzA1L0fQ4AmwCYGSh1AnjxOChvnsP/EpbKx4jaA7Btu2ynB/uoCljrFJ7ldLl7GBgAVgcwL1BifKTH5axYFY8jz+FvYpymsmtTB4A7y2A46sE+6hkwZztO0mN26y0CwOoAZgbKcAhwUTdXtrDvn4jAjbXefsypX4s6LkVvWB0A5hDgZJRPKR500C5oVhOqlrLWMJbOWdsEAFYHMDdQpIFwHUonyvwAOqYnJnHmLbh4J/R1yl5U6W5oUkPCrRIAz0oEEPGE1PKIFwWc1LZi8pBYL+vjDQAWGq3Sq+pdBEq/avi/5KnlHbVe0zOrzrQchI+BLyNzt/x/jMv2YjX3LmhuBbyY7YineRbzDJhVDT8XeBtzn0seA59T5rkaFLA+gD0EyjWpHMBuWtkmJ9r7hwMCr4kLsN+iUFQEkyL8Vm63iwLY9FHgTQ32IbugNZ8BmR+lE+t1zLbOAGB9AJcPlEt+oEhNLSOC1mczY+IuuBjrromvIH+PwpugCH5pEsAcD3oy2xHP7suQCpgnPib5QSsk1n4VOLsCgPUBfGQHykkoUJJMB5REurlnhvuukwRFkXNccyzcf+cVORG8mUDIG4A5G3Aw2xHPZtWIZ8C8doybCrukE+s5Sbh6ALA+gAsHylUkUKQ2GDer9+Pzk+CXxhIE/qve4RYbH4xeSgTTDMFqAMyxRLiyhhN7e/FUrWRBH3le1F0lSmQT63WUOVYDgPUB7CVQHvL3w+zju6Qqgm855IvN/poyk/hZZVyM21UPgDlUZE6eFXuDwi87UMA9M/E9m1ln/j7PdKH/8rjy8yoAbADgcoHSrwI5RTazsdL6Stv9qRiB/1nvMAH8cbSIiGDaiVzBL1QIA9jwdZQsAD+1J+KdAXO7Txe97PPrGqeMrJoeUnkVADYAcA2BIjczugTuR+IkciqeHNPhOLK7Vb5PW/kimAiHegBs+FFunurb5e9eeQt65dbABmd7Gfvp96yaR0U8B2wA4BoCRa7eJ0vga6JWEVkVD/vR2+sqksM38YExMVTwbajSADZ8HWXSqvqiWdBn7v7bldf6l6kkklUBYPcKODdQTkKBMhS+Hyxl1a/0EMyreHglz3FMMiIqCUcCm0Jv9QCYExDM+oPpu/4smqoVALyyt5/N2d6f7uKFeHMva5I7rQCAzQCcGyi38oHyyaVt8vZnloxPmQtO1Zr9dRRr5JFNGRnm6FAPgA09aOZe/77/PpYFzecvYeTdIzexkjb6dU3iGwUAtgDw0ThQxmSVUZMugV9H3iTm7AWniOD+dWSTgRri7GYs+uFkTQDmpGre/F+0Ii6SAu7HjL1HCPDHwyyzflJjZ3aNAMAmAO4tA+V1NDzUY0rNEz/kB/GE8onWfBbBlzVJbpdeLBIy+Vtys4sDmLMDeU1oGe9n+moe/WV1A+Bv1/ua40BRln17SGTWyxOpaE06zRIAsAWAzQLl8pn41QLwppFsvgz5N4Ww/mTBX7/P7JfXUXi7HJ+JBDKCOSlxqgjALA96MsioT9V871FGlpR6FvRj/Dr++jVr271pFQ6f3+jx5/S1EBg1ugUAYDsA2wTK65gUSnodr/dLiLzTN1PGJ5EFH3/8/Fr7frPgHBOze271SGfBV5YjWBWAzTzoPif0xtff7mvfX77b1eYK+PFI7zvjMpENIfmBHx9C1+195S8f+Q7X9fvl3wFg7wA2CZSHZqDIVxbve/jfM+n/w975rTaONFFcGGS8b2EEMfhthEEmvgsBm/Vb5MbLXA4NNuRtPysZZneZ7DdWq6vqHOkccjE3M9N/qupXVd2t/Nbkb7aJwRdJz1eh5rG4uDZc0fu4Rh9ejb9rQwPgHC7eHMb+hVucjt2Hjqd74bv14FiWGzfN6RfXyM0Wss1u+15OzX3pT/vPte/2+371G3NP0TtgFwAXNZR0N/0PJ23bT0t5dTAUk9K+n8gPg+/DTT+RQunm8r20Z/ZjvKcH9wU/Pbzg3zNW9PHnk2lz6n5P3+yCZFoAzkrJsnoA5zIm14z8Fwxb0P8eZ+8cH9o0TYEwNyzrObyX1/auH4X+uwA8jQrYwlC2zXagmxqE1GWZYJOKT2JbfsFT6ld8yN/IORwaZCmp2fz3qUTfyG+8IiE8gN160Lt3CJlXwD9tsOy41+7xZ7wEYHgAL9gNBcYBHgTwGWG9cxg2fOB9L/DY90M+/v5HW+R4eh1dQl2nBeCce3Yz6AAADxtJREFUlCwrY8VwdacKOHjc407ci6kVgNEBXL+TGwrMvB68mwoRBn0A/APDfT+k17YpE5TWEwOwVw96SQgykKQhI+c50621ABwBYHpDcWz1FgmKNWM0iVnQmQA4B4xPFe0OklbAQ/suC/K4KgA7AZjdUHCizQtPxpMBYIyeWrSvWwDYrQdNCGCcCnhtCzC4XFUAdgIwu6F4XkMsYoMIMSXjUw41TCispgbggzXGwlxiQhXwYI85c8dVAdgJwOyGguO6ayKSEQM4TQ7AOT3onJtoGOUkZwV8o1xtAbjMaE0BvOM2FBz7X5sEcZQ27pI3FKID2KsHjbGFnBXw2ppgJroKwPgVMLmh4ESbNWxqUMJfYGqR6/QA7NSDxmhicFbAw1tGCK3FmwCMD2ByQ8GJNleiOLjmBfB6egD26kEj9F44K+CchsOCOq4KwG4A5jYUnGhzJcp4hlMMphn4Mj0Ae/WgD3T7h5L25WR9AO8GkgBMAGCAisziYo075m5EUWXNGbwzm4HwAHbqQfM9OURJ+7L4cmCOqwKwG4ABKjILAB9gJwGQGl8rPiOxM5VwADv1oGs6li2YjW7J7CwCsB+AF5OMqgvcScTD7GqMHqSREwDYqweNsImMFfBTHhTil7sVgAkAXDEbCk7+mXCHlt8uhwPwepIAdupBI7QxGCvgTLwciOOq3gE7ApjZUID6bS0PzQaXTzBfonyZJIBzQJPRC6B7AYdRASeaEFTOW1QBOwJ4Ocmw6o6Mx+Ptji6koHwIK7WTBLBTDxrhUxyEFXB21+VMO3IB2BPA8RWZxf6dcScRjrPEGLrHFCPoAD74RFeAPgZhBZyd9IXnDwIwB4CJDQWosb4GTg7GxhQUAF8nCmCnHvQ5fgf5KuCbl70IwHMFcM1rKEDOuyYKLC1biobh6GYArny6AQuyHYSogEcEp+izpqsATAHg8GtY3w32ZInsqFsykKEAuJ0qgM8OmwjRyKCrgJMbFwTg2QJ4SWsoZYuKURryWjA6NR5qJBiHcbG/CskUwE496G34FtJVwKNi05nVXwRgVwDzGgpQsBniqdFN/6FGcniH0NNkAZxTK2XUZvH7SFcBj2JLcGWTBOASo3UAMK2hAAWbG1EkXHMlaCh+bgdgpx70gmsLASrgkaHpTDp4VcC+AA7uTZkA2DvY3AwNPLqUjG9dmpkJCICdetCqgI1TVagZCMA0AF5ML7IuoScRmxpfKQF8nTCAnXrQ4a0Msgo4+ZpM6dG3AjAJgFkNBWhKCTo9GFGtwwB4PWEAZy0xYQ+arAIefesgdgoCMA2ASQ0F6ZyVqBa5mbrjVDvQpgDOuRh/tQ6ss6+AW2ebiVxtATgSwKSGgpRTtIa7GssyjA9h3SYN4KX9NiL0oLkq4CtfFBKASQG8ozQUJGy0PKGQEsDrSQN4Jj1orgq4QFwKfXG4FoBpAMxpKEhF/QsR1chODj+ShnbaAM45MXmyjqzzroCL9FwWjHFV74DdAcxpKEg15hp7eCPgAAHg8DvQxgCeRw+aqgJ+CbCaovouANNUwJyGgsQN232NDC2HdwC9TBzAWf7XojsFcwV8owxDRZJWATgAwIyGgtRuG7zyZxaaIQA4/g60NYDPHjYX/RVUpgq4FFbi/PwmABMBONBQrggB030Sgedxa5ZMwfiUAgnAC58Ie+CBWmwFXOzW/ZJvCgJwBICX/LYe6cDDs4gdCc5ii6bPAridPICz8rGWyMvJKuByVAlLYJMAzARgQkNBijXDs4i4duATG4ABrmBZA9ipB0304j+0Ai5YFIT5uQDMBWA+Q0GKNRmTWHDwDKAD3c4AwDsfTPB8GuIPmpGCtroEYC4A8xkK0nlXxiTqqJ4D069uMjyjwAKw00Ok0GtYNBXwLdBy4vNWvQOOATCdoSD1oBP6AHPDC8CHsF7mAOAs78vw9wPLRkZWwC1vIBKAaSvgMEN5gQiZAdYe1HNIXADGKIDNAZxDxiuPkzNVwE+FTeeVK64KwEEAjgKC1Q66TicHwEH9wEQSB6EKYHMAL6x3csRtr3lVwMUv3Qf5+VoAJgMwmaFAHV9mmWFMOcIFYJAC2BzATr+QIbIEJqmAy8ejJdU8BOAoAJMZClSyn2eGMc2pIXSIPDM0OI8DBvDZyXXiSmCOCtgi43tliqsCcBiAuQwFKonOm0RMz4EJwE/VXADs1YOOK4EpKmCTr76E+PlVAKYDMJWh2HT1fLOIJXogDDwyNAuHmAB2+hhW4JZSVMA2Gd+SKK4KwHEApjKU38vxGtZ3/CFmmcn2PVTrajYA9nqIFFcCM1TAiT8Uje2l6x1wIICZDMWoqHDOIrYCcIRpAAL44LVAZwYAx1TAyQwnrwKwKmBM7zT8ZXNnfFQEdP2HVOtqQLsB2OsQOOzrZgQVsN2VA38/TwIwI4B5DAWq25Zfq+2Re/6xX6J8quYE4CzPywp/DA/+Qypgy47LcisAC8BTMhSoEnjEJHbIAI5sQQM1oD0AnGWsWUcfQbsKXwHbdlzcZyQAUwLYHwiWaScBgN1/K8MQsO3jCIzUgHYBsFsPOqi/C18Br21NyDuwtgIwJYBZDAWqBB5FC2fIDQra9WsUgF+qmQF46ec8Z/gNDcgRzE88XikcSACOBjCJoWCVwGMA7NwSTNDWgHgA7ANgt4dIQU1o8ArY4cTjLAALwHhNUdPOz4GhjPc9dx/atgxpQ2+q+QH44IeNBTqA3QfocuJxJoiregccDmDnBNkUwF5TGWeHvgRuoc0B8ADYCcB+h8AhfQ3oCji5gMTVkwRg1gqYw1CwTrRH2uEeGcD+B8Fw/HUBcO1oeAFJFXQFfHTCheOyPwnAtABmMBTLkzX/LMKzz5vhM7vtvPnrAuAsU831HvfnhtAVsNuNA8fAehWAeQFMYChYkWb02jsS+AU8QUgv1TwBnEOd7LtD3o8dmhYXwI43Dvwu2NwEYGIAOxLY+vqhS6T5XvEQOMtO/NrQiPz1AbDjQyRnAqdmYI93MVH++h2/p6MAzAzgqm6cDMW8/eOQc6YCa+/VFGwyfcapDQ3JXx8AZyW9a3QS9CY3GAae1w68b9y7TG3TVgIwNYDRDQWpmE9F7nD4EDh/wV3Gh8lfHwD7fY3StRvaZHnHspkof6t6B7rkAjAWgB2aVMnl9qE1OUolEQ5Nh2bUgtunZE1bzRjAng+RnI6ZUr7F+RzKRLw43wMHJL0DxgGwtaGkjVO4Nc0kSvbQjQk3eqjIkWMCAPY9BPYg8KYbE1xP20ny13jhx1U1qoCBAFx1lobSHN22acfCDFPCFRiq7dncU1XNGsCOX6P06LmMT7DrV2MER1mcnR+NTbIFYCQAWxrK0XOfdqDm/mvK04DnO3Ypgq9FQALY9xDYNqFKp7ZIADJEcKTFGfnR+JxHAEYCsJWhJO9m4w7T3N1CYrlYYxWzYdvPjgB2PgQ23M3mWGo7a7OUL/aDLxYr33TORBOAzQFsYiibzn2ndhZBhiXlSU8t9gAdXqMxADjrEPgFzjHSpqxn7E3aQuEZ324LGI8EYDQAlw+4zXEK5p7M7m+UbrsVbzeU7wui3n52BrD7IbCJe5/Kp9f74haHcOBRtLYpNCEBGA/AVfdKj9+q8Gsk2x560ZTfot1Q1CKgT38/ldK2efwn3zR2Q/6b+0+vKxIHklVzq9432+llfMWufBSLqnUzyPjCAdwMcZfBAB7kjU+zMpTQQGN+hF2XQrDZSMvlCAn69PfHfnRt9/jPmP+nG/JT9yowvULvfVJzstzK7tRML+Mr4kclo+rjZl7I+EYOd4jHZPzrj/t9187LUOK6bY0HMYo8grRkW6E+NAN+p68SuWlztL/ZUYbBWCY3OrIG3KiRAnx0CoZSgBrl7ndajzWdWuMB4nYsJVcMGNe+/85Mm2ZiGd+Y7nqjBHZOTspvKOOw5jyLEVExeXQbRuYICh6TQHCyuHb1/2uB7EIYNOPLrOzT5igPmpW6vIgLZSjZ1IiYxT53wZ3iTD0iFCp48Ht3ajZdyDZ2+9fh5YBfnT7ckbrXZnCKLQean+o9v6HU++FdrCaKF8OvfzoPdXDkUPDA9e4h/d0mzCf+UQk/7hzNBv2y/eM5RYpeeimYwduHnRQz6Rwyh34SXfRgH69IAsJMdxqQJCh4YJfB3QMQvu/hqYNo5tb38b7+dsB9l5zC5roHXP3uP50caO5u+gDAGmyrrx+ZQwKx9u5Rz4xazPohCCcFD5Ic+9S/8vxi/+46HTvEgNRz+Nch30e8OZHd9Ov+Y/Wbj7nIfaR/UPgLQ2mYDKU39s32l07W5xzAKrX6I9n/hXOfUREhyvwY4NeBG245pd+obS/P3Z8/1V26CnwH67Z97i5/j/iZ95J9Xdf31d9f/vz8uU+rlftIX9n83Taef/roc0dpJ23XXS79RD5+oANN3d7HuL/8veBgg62rfoDd/q8PXfq43dXyE0qtVqtvP3T5tmrf3vBHXP0c8uXb89uKffWfLx8/355X1ZvsUfpSb5fL5dPi739gtZNV9bx67m199VyBB5pV1bvkx4pf3hBjzNtq9fztMw72oWO1ko9IkiRJkiRJkiRJkiRJkiRJkiRJkiRJkiRJkiRJkiRJkiRJkiRJkiRJkiRJkiRJkiRJkiRJkiRJkiRJkiRJkiRJkiRJkiRJkiRJkiRJkiRJkiRJkiRJkiRJkiRJkiRJkiRJkiRJkiRJkiRJkiRJkiRJkiRJkiRJkiRJkiRJkiRJkiRJkiRJkiRJkiRJkiRJkiRJkiRJkiRJkiRJkiRJkiRJkiRJkiRJkiRJkiRJkvS/9uCQAAAAAEDQ/9cmXwAAAAAAAAAAAAAAAAAAAAAAAAAAAAAAAAAAAAAAAAAAAAAAAAAAAAAAAAAAAAAAAAAAAAAAAAAAAAAAAAAAAAAAAAAAAAAAAAAAAAAAAAAAAAAAAAAAAAAAAAAAAAAAAAAAAAAAAAAAAAAAAAAAAAAAAAAAAAAAAAAAAAAAAAAAAAAAAAAAAAAAAAAAAAAAAAAAAAAAAAAAAAAAAAAAAAAAAAAAAAAAAAAAAAAAAAAAAAAAAAAAAAAAAAAAAAAAAAAAAAAAAAAAAAAAAAAAAAAAAAAAAAAAAAAAAAAAAAAAAAAAAAAAAAAAAAAAAAAAAAAAAAAAAAAAAAAAAAAAAAAAAAAAAAAAAAAAAAvkWhDto4+w4AAAAABJRU5ErkJggg==;" vertex="1" parent="1">
          <mxGeometry x="734.01" y="485.5" width="133.33" height="75" as="geometry" />
        </mxCell>
        <mxCell id="WruwLa0rmUfx6qdQRTx5-6" value="База данных" style="shape=image;verticalLabelPosition=bottom;labelBackgroundColor=default;verticalAlign=top;aspect=fixed;imageAspect=0;image=https://upload.wikimedia.org/wikipedia/commons/thumb/2/29/Postgresql_elephant.svg/540px-Postgresql_elephant.svg.png;" vertex="1" parent="1">
          <mxGeometry x="951.63" y="320" width="72.22" height="74.5" as="geometry" />
        </mxCell>
        <mxCell id="WruwLa0rmUfx6qdQRTx5-9" value="Мониторинг состояния" style="group;verticalAlign=top;labelPosition=center;verticalLabelPosition=bottom;align=center;" vertex="1" connectable="0" parent="1">
          <mxGeometry x="900.09" y="450" width="175.30999999999995" height="60" as="geometry" />
        </mxCell>
        <mxCell id="WruwLa0rmUfx6qdQRTx5-7" value="" style="shape=image;verticalLabelPosition=bottom;labelBackgroundColor=default;verticalAlign=top;aspect=fixed;imageAspect=0;image=data:image/svg+xml,PHN2ZyB4bWxucz0iaHR0cDovL3d3dy53My5vcmcvMjAwMC9zdmciIG92ZXJmbG93PSJ2aXNpYmxlIiB2aWV3Qm94PSItNC42NDkgLTAuNjY3IDEyMCA2MCIgaGVpZ2h0PSI2MCIgd2lkdGg9IjEyMCI+PHBhdGggZmlsbD0iI2RhNGUzMSIgZD0iTTU1LjM1IDQuNjAyYy05LjIzIDAtMTYuNzEzIDcuNDgyLTE2LjcxMyAxNi43MTNTNDYuMTIgMzguMDI4IDU1LjM1IDM4LjAyOHMxNi43MTMtNy40ODMgMTYuNzEzLTE2LjcxM1M2NC41OCA0LjYwMiA1NS4zNSA0LjYwMnptMCAzMS4yOGMtMi42MjYgMC00Ljc1NS0xLjc1NC00Ljc1NS0zLjkxOGg5LjUxYzAgMi4xNjMtMi4xMyAzLjkxOC00Ljc1NSAzLjkxOHptNy44NTQtNS4yMTVoLTE1Ljcxdi0yLjg1aDE1Ljd2Mi44NXptLS4wNTYtNC4zMTVINDcuNTRsLS4xNTUtLjE4Yy0xLjYwOC0xLjk1My0xLjk4Ny0yLjk3Mi0yLjM1NC00LjAxLS4wMDYtLjAzNCAxLjk1LjQgMy4zMzcuNzEyYTQyLjE5IDQyLjE5IDAgMCAwIDEuNzU3LjM1NWMtMS4wMDItMS4xNzQtMS41OTctMi42NjctMS41OTctNC4xOTMgMC0zLjM1IDIuNTctNi4yNzggMS42NDItOC42NDQuOTAyLjA3MyAxLjg2NyAxLjkwNCAxLjkzMiA0Ljc2Ny45Ni0xLjMyNSAxLjM2LTMuNzQ2IDEuMzYtNS4yMyAwLTEuNTM3IDEuMDEzLTMuMzIyIDIuMDI1LTMuMzgzLS45MDMgMS40ODguMjM0IDIuNzY0IDEuMjQ0IDUuOTI4LjM4IDEuMTkuMzMgMy4xOS42MjMgNC40NTcuMDk3LTIuNjM1LjU1LTYuNDggMi4yMjItNy44MDYtLjczNyAxLjY3LjExIDMuNzYzLjY4OCA0Ljc2OC45MzQgMS42MjIgMS41IDIuODUgMS41IDUuMTc2IDAgMS41Ni0uNTc1IDMuMDI2LTEuNTQ2IDQuMTczIDEuMTA0LS4yMDcgMS44NjYtLjM5NCAxLjg2Ni0uMzk0bDMuNTg0LS43YzAgMC0uNTIgMi4xNC0yLjUyMiA0LjIwNHoiLz48cGF0aCBmaWxsPSIjZTY1MjJjIiBkPSJNOS42NDMgNDEuNTI0Yy43NzgtLjEzIDEuNzk3LS4yNCAzLjA5My0uMjQgMS41OTMgMCAyLjc2LjM3IDMuNSAxLjAzNy42NjcuNTkzIDEuMDkzIDEuNSAxLjA5MyAyLjYxMiAwIDEuMTMtLjMzMyAyLjAyLS45NjMgMi42NjctLjg3LjkwOC0yLjI0IDEuMzctMy44MTYgMS4zNy0uNDgyIDAtLjkyNi0uMDItMS4yOTctLjF2NWgtMS42em0xLjYgNi4wMmMuMzUyLjA5My43OTcuMTMgMS4zMzQuMTMgMS45NDUgMCAzLjEzLS45NjMgMy4xMy0yLjY1IDAtMS42NjctMS4xODUtMi40NjMtMi45NDUtMi40NjMtLjcwNCAwLTEuMjQuMDU2LTEuNTIuMTN6bTcuODkzLjE0OGwtLjA3NC0yLjc5N2gxLjQyNmwuMDc0IDEuNzc4aC4wNTZjLjQwOC0xLjIwNCAxLjQwOC0xLjk2NCAyLjUtMS45NjQuMTY3IDAgLjI5Ni4wMi40NDUuMDM3djEuNTM3Yy0uMTY3LS4wMzctLjMzMy0uMDM3LS41NTYtLjAzNy0xLjE0OCAwLTEuOTYzLjg1Mi0yLjE4NiAyLjA3NWE0Ljg4IDQuODggMCAwIDAtLjA1Ni43NnY0Ljc4aC0xLjYzdi02LjE2OHptMTMuOTk0IDEuNmMwIDMuMzE2LTIuMzE1IDQuNzYtNC40NjQgNC43Ni0yLjQwOCAwLTQuMjk3LTEuNzc4LTQuMjk3LTQuNjEyIDAtMi45ODIgMS45ODItNC43NDIgNC40NDYtNC43NDIgMi41NzUgMCA0LjMxNiAxLjg3IDQuMzE2IDQuNTk0em0tNy4wOTQuMDkzYzAgMS45NjQgMS4xIDMuNDQ1IDIuNzA0IDMuNDQ1IDEuNTU2IDAgMi43MjMtMS40NjMgMi43MjMtMy40ODIgMC0xLjUyLS43Ni0zLjQyNy0yLjY4Ni0zLjQyNy0xLjkwOCAwLTIuNzQgMS43NzgtMi43NCAzLjQ2NHptOS4xNTItMi4wNzZsLS4wNzQtMi40MjZoMS40MjZsLjA3NCAxLjQ2M2guMDU2Yy41LS44NTIgMS4zMzQtMS42NSAyLjgzNC0xLjY1IDEuMjA0IDAgMi4xMy43NCAyLjUyIDEuNzk3aC4wMzdhMy41NCAzLjU0IDAgMCAxIDEuMDE5LTEuMTY3Yy41MzctLjQwNyAxLjEtLjYzIDEuOTYzLS42MyAxLjIwNCAwIDIuOTY0Ljc3OCAyLjk2NCAzLjl2NS4yNmgtMS41OTNWNDguOGMwLTEuNzQtLjY1LTIuNzYtMS45NDUtMi43Ni0uOTQ1IDAtMS42NS42ODUtMS45NDUgMS40NjNhMi43OSAyLjc5IDAgMCAwLS4xMy44MTV2NS41MzhINDAuOHYtNS4zN2MwLTEuNDI2LS42My0yLjQ0NS0xLjg3LTIuNDQ1LTEgMC0xLjc2LjgxNS0yLjAyIDEuNjMtLjA5My4yMjItLjEzLjUyLS4xMy43OTd2NS40aC0xLjU5M3YtNi41NHptMTYuMzU3IDIuMzU1Yy4wMzcgMi4yMDQgMS40MjYgMy4xMTIgMy4wNzUgMy4xMTIgMS4xNjcgMCAxLjktLjIwNCAyLjQ4Mi0uNDYzbC4yOTYgMS4xNjdjLS41NzQuMjYtMS41NzQuNTc0LTMgLjU3NC0yLjc2IDAtNC40MDgtMS44MzQtNC40MDgtNC41MzhzMS41OTMtNC44MTYgNC4yMDUtNC44MTZjMi45NDUgMCAzLjcwNSAyLjU1NiAzLjcwNSA0LjIwNWE0LjA3IDQuMDcgMCAwIDEtLjA1Ni43NnptNC43OC0xLjE2N2MuMDItMS4wMi0uNDI2LTIuNjMtMi4yNi0yLjYzLTEuNjY3IDAtMi4zNyAxLjUtMi41IDIuNjN6bTUuNTU1LTUuNzZ2Mi4xNWgyLjMzNHYxLjI0SDYxLjg4djQuODM1YzAgMS4xLjMxNSAxLjc0IDEuMjIzIDEuNzQuNDQ1IDAgLjcwNC0uMDM3Ljk0NS0uMWwuMDc0IDEuMjRjLS4zMTUuMS0uODE1LjIyMi0xLjQ0NS4yMjItLjc2IDAtMS4zNy0uMjYtMS43Ni0uNjg1LS40NDUtLjUtLjYzLTEuMjk3LS42My0yLjM1M3YtNC45SDU4Ljl2LTEuMjRoMS40VjQzLjIzem00LjE3LTIuMDQ3aDEuNjN2NS42MTNoLjAzN2EzLjA3IDMuMDcgMCAwIDEgMS4xNjctMS4xNjcgMy4zNCAzLjM0IDAgMCAxIDEuNjY3LS40NDVjMS4yMDQgMCAzLjEzLjc0IDMuMTMgMy44MTZ2NS4zMzRoLTEuNjNWNDguN2MwLTEuNDQ1LS41MzctMi42NS0yLjA3NS0yLjY1LTEuMDU2IDAtMS44Ny43NC0yLjE4NiAxLjYtLjA5Mi4yNC0uMS40ODItLjEuNzc4djUuNGgtMS42M1Y0MC43em0xMS4xODggOC45NjRjLjAzNyAyLjIwNCAxLjQyNiAzLjExMiAzLjA3NSAzLjExMiAxLjE2NyAwIDEuOS0uMjA0IDIuNDgyLS40NjNsLjI5NiAxLjE2N2MtLjU3NC4yNi0xLjU3NC41NzQtMyAuNTc0LTIuNzYgMC00LjQtMS44MzQtNC40LTQuNTM4czEuNTkzLTQuODE2IDQuMjA1LTQuODE2YzIuOTQ1IDAgMy43MDUgMi41NTYgMy43MDUgNC4yMDVhMy45NiAzLjk2IDAgMCAxLS4wNTYuNzZ6bTQuNzgtMS4xNjdjLjAyLTEuMDItLjQyNi0yLjYzLTIuMjYtMi42My0xLjY2NyAwLTIuMzcgMS41LTIuNSAyLjYzem0xMS4wOTQgMi45MWwuMDc0IDIuNDY0SDkxLjc0bC0uMDkzLTEuNDYzSDkxLjZjLS40MDguNzIyLTEuMzcgMS42NjctMi45NjQgMS42NjctMS40MDggMC0zLjA5My0uNzk3LTMuMDkzLTMuOTI3di01LjI0MmgxLjYzdjQuOTQ1YzAgMS43MDQuNTM3IDIuODcgMiAyLjg3IDEuMDkzIDAgMS44NTItLjc2IDIuMTUtMS41YTIuMjQgMi4yNCAwIDAgMCAuMTQ4LS44MzR2LTUuNDgzaDEuNjN6bTIuNDgzLjgxNGMuNS4yOTYgMS4zNTIuNjMgMi4xNjcuNjMgMS4xNjcgMCAxLjcyMi0uNTc0IDEuNzIyLTEuMzM0IDAtLjc3OC0uNDYzLTEuMTg1LTEuNjUtMS42My0xLjYzLS41OTMtMi40LTEuNDYzLTIuNC0yLjUzOCAwLTEuNDQ1IDEuMTg1LTIuNjMgMy4wOTMtMi42My45MDggMCAxLjcwNC4yNCAyLjE4Ni41NTZsLS40IDEuMTg1Yy0uMzUyLS4yMjItMS0uNTM3LTEuODM0LS41MzctLjk2MyAwLTEuNDgyLjU1Ni0xLjQ4MiAxLjIyMyAwIC43NC41MTggMS4wNzQgMS42ODUgMS41MzcgMS41MzcuNTc0IDIuMzUyIDEuMzUyIDIuMzUyIDIuNjg2IDAgMS41OTMtMS4yNCAyLjcwNC0zLjMzNCAyLjcwNC0uOTgyIDAtMS45LS4yNi0yLjUyLS42M3oiLz48L3N2Zz4=;align=right;" vertex="1" parent="WruwLa0rmUfx6qdQRTx5-9">
          <mxGeometry width="120" height="60" as="geometry" />
        </mxCell>
        <mxCell id="WruwLa0rmUfx6qdQRTx5-8" value="" style="shape=image;verticalLabelPosition=bottom;labelBackgroundColor=default;verticalAlign=top;aspect=fixed;imageAspect=0;image=https://upload.wikimedia.org/wikipedia/commons/thumb/a/a1/Grafana_logo.svg/512px-Grafana_logo.svg.png;" vertex="1" parent="WruwLa0rmUfx6qdQRTx5-9">
          <mxGeometry x="120" y="1.75" width="55.31" height="56.5" as="geometry" />
        </mxCell>
        <mxCell id="WruwLa0rmUfx6qdQRTx5-11" value="Кэширование" style="shape=image;verticalLabelPosition=bottom;labelBackgroundColor=default;verticalAlign=top;aspect=fixed;imageAspect=0;image=https://download.logo.wine/logo/Redis/Redis-Logo.wine.png;" vertex="1" parent="1">
          <mxGeometry x="927.74" y="180" width="120" height="80" as="geometry" />
        </mxCell>
        <mxCell id="WruwLa0rmUfx6qdQRTx5-13" value="Большие данные" style="shape=image;verticalLabelPosition=bottom;labelBackgroundColor=default;verticalAlign=top;aspect=fixed;imageAspect=0;image=https://www.mrc-productivity.com/blog/wp-content/uploads/2015/07/hadoop-logo.png;" vertex="1" parent="1">
          <mxGeometry x="734.01" y="90" width="128.57" height="90" as="geometry" />
        </mxCell>
        <mxCell id="WruwLa0rmUfx6qdQRTx5-14" value="" style="shape=flexArrow;endArrow=classic;startArrow=classic;html=1;rounded=0;" edge="1" parent="1">
          <mxGeometry width="100" height="100" relative="1" as="geometry">
            <mxPoint x="827.74" y="310" as="sourcePoint" />
            <mxPoint x="921.63" y="250" as="targetPoint" />
          </mxGeometry>
        </mxCell>
        <mxCell id="WruwLa0rmUfx6qdQRTx5-15" value="" style="shape=flexArrow;endArrow=classic;startArrow=classic;html=1;rounded=0;" edge="1" parent="1">
          <mxGeometry width="100" height="100" relative="1" as="geometry">
            <mxPoint x="830.09" y="390" as="sourcePoint" />
            <mxPoint x="921.63" y="450" as="targetPoint" />
          </mxGeometry>
        </mxCell>
        <mxCell id="WruwLa0rmUfx6qdQRTx5-16" value="" style="shape=flexArrow;endArrow=classic;startArrow=classic;html=1;rounded=0;" edge="1" parent="1">
          <mxGeometry width="100" height="100" relative="1" as="geometry">
            <mxPoint x="831.63" y="350" as="sourcePoint" />
            <mxPoint x="921.63" y="350" as="targetPoint" />
          </mxGeometry>
        </mxCell>
        <mxCell id="WruwLa0rmUfx6qdQRTx5-17" value="" style="shape=flexArrow;endArrow=classic;startArrow=classic;html=1;rounded=0;" edge="1" parent="1">
          <mxGeometry width="100" height="100" relative="1" as="geometry">
            <mxPoint x="791.63" y="480" as="sourcePoint" />
            <mxPoint x="791.63" y="390" as="targetPoint" />
          </mxGeometry>
        </mxCell>
        <mxCell id="WruwLa0rmUfx6qdQRTx5-18" value="" style="shape=flexArrow;endArrow=classic;startArrow=classic;html=1;rounded=0;" edge="1" parent="1">
          <mxGeometry width="100" height="100" relative="1" as="geometry">
            <mxPoint x="591.63" y="480" as="sourcePoint" />
            <mxPoint x="591.63" y="390" as="targetPoint" />
          </mxGeometry>
        </mxCell>
        <mxCell id="WruwLa0rmUfx6qdQRTx5-19" value="" style="shape=flexArrow;endArrow=classic;startArrow=classic;html=1;rounded=0;" edge="1" parent="1">
          <mxGeometry width="100" height="100" relative="1" as="geometry">
            <mxPoint x="791.63" y="300" as="sourcePoint" />
            <mxPoint x="791.63" y="210" as="targetPoint" />
          </mxGeometry>
        </mxCell>
        <mxCell id="WruwLa0rmUfx6qdQRTx5-20" value="Брокер сообщений" style="shape=image;verticalLabelPosition=middle;labelBackgroundColor=default;verticalAlign=bottom;aspect=fixed;imageAspect=0;image=https://download.logo.wine/logo/RabbitMQ/RabbitMQ-Logo.wine.png;labelPosition=center;align=center;" vertex="1" parent="1">
          <mxGeometry x="498.40999999999997" y="70" width="195" height="130" as="geometry" />
        </mxCell>
        <mxCell id="WruwLa0rmUfx6qdQRTx5-21" value="" style="shape=flexArrow;endArrow=classic;startArrow=classic;html=1;rounded=0;" edge="1" parent="1">
          <mxGeometry width="100" height="100" relative="1" as="geometry">
            <mxPoint x="591.63" y="300" as="sourcePoint" />
            <mxPoint x="591.63" y="210" as="targetPoint" />
          </mxGeometry>
        </mxCell>
        <mxCell id="WruwLa0rmUfx6qdQRTx5-22" value="&lt;font style=&quot;font-size: 40px;&quot;&gt;&amp;nbsp;Frontend Server&lt;/font&gt;" style="rounded=0;whiteSpace=wrap;html=1;align=left;verticalAlign=top;fontSize=18;" vertex="1" parent="1">
          <mxGeometry x="-110" y="310" width="310" height="70" as="geometry" />
        </mxCell>
        <mxCell id="WruwLa0rmUfx6qdQRTx5-23" value="Основа" style="shape=image;verticalLabelPosition=bottom;labelBackgroundColor=default;verticalAlign=top;aspect=fixed;imageAspect=0;image=https://cdn.icon-icons.com/icons2/2415/PNG/512/react_original_wordmark_logo_icon_146375.png;" vertex="1" parent="1">
          <mxGeometry x="14" y="492" width="62" height="62" as="geometry" />
        </mxCell>
        <mxCell id="WruwLa0rmUfx6qdQRTx5-24" value="Рендеринг" style="shape=image;verticalLabelPosition=bottom;labelBackgroundColor=default;verticalAlign=top;aspect=fixed;imageAspect=0;image=https://upload.wikimedia.org/wikipedia/commons/thumb/d/d9/Node.js_logo.svg/2560px-Node.js_logo.svg.png;" vertex="1" parent="1">
          <mxGeometry x="-380" y="301.92" width="140.86" height="86.16" as="geometry" />
        </mxCell>
        <mxCell id="WruwLa0rmUfx6qdQRTx5-25" value="" style="shape=flexArrow;endArrow=classic;startArrow=classic;html=1;rounded=0;" edge="1" parent="1">
          <mxGeometry width="100" height="100" relative="1" as="geometry">
            <mxPoint x="-220.0000000000001" y="344.47" as="sourcePoint" />
            <mxPoint x="-130.0000000000001" y="344.47" as="targetPoint" />
          </mxGeometry>
        </mxCell>
        <mxCell id="WruwLa0rmUfx6qdQRTx5-26" value="" style="shape=flexArrow;endArrow=classic;startArrow=classic;html=1;rounded=0;" edge="1" parent="1">
          <mxGeometry width="100" height="100" relative="1" as="geometry">
            <mxPoint x="44.47" y="301.92" as="sourcePoint" />
            <mxPoint x="44.47" y="211.92" as="targetPoint" />
          </mxGeometry>
        </mxCell>
        <mxCell id="WruwLa0rmUfx6qdQRTx5-28" value="Управление состоянием" style="shape=image;verticalLabelPosition=bottom;labelBackgroundColor=default;verticalAlign=top;aspect=fixed;imageAspect=0;image=https://upload.wikimedia.org/wikipedia/commons/4/49/Redux.png;" vertex="1" parent="1">
          <mxGeometry x="-6.15" y="95" width="102.3" height="80" as="geometry" />
        </mxCell>
        <mxCell id="WruwLa0rmUfx6qdQRTx5-29" value="" style="shape=flexArrow;endArrow=classic;startArrow=classic;html=1;rounded=0;" edge="1" parent="1">
          <mxGeometry width="100" height="100" relative="1" as="geometry">
            <mxPoint x="44.47" y="484.5" as="sourcePoint" />
            <mxPoint x="44.47" y="394.5" as="targetPoint" />
          </mxGeometry>
        </mxCell>
        <mxCell id="WruwLa0rmUfx6qdQRTx5-30" value="" style="shape=flexArrow;endArrow=classic;startArrow=classic;html=1;rounded=0;" edge="1" parent="1">
          <mxGeometry width="100" height="100" relative="1" as="geometry">
            <mxPoint x="210" y="350" as="sourcePoint" />
            <mxPoint x="490" y="350" as="targetPoint" />
          </mxGeometry>
        </mxCell>
        <mxCell id="WruwLa0rmUfx6qdQRTx5-31" value="" style="shape=image;verticalLabelPosition=bottom;labelBackgroundColor=default;verticalAlign=top;aspect=fixed;imageAspect=0;image=https://uxwing.com/wp-content/themes/uxwing/download/web-app-development/rest-api-icon.png;" vertex="1" parent="1">
          <mxGeometry x="279" y="220" width="134.42" height="110" as="geometry" />
        </mxCell>
      </root>
    </mxGraphModel>
  </diagram>
</mxfile>
